<svg xmlns="http://www.w3.org/2000/svg" xmlns:xlink="http://www.w3.org/1999/xlink" width="1472" zoomAndPan="magnify" viewBox="0 0 1104 623.999998" height="832" preserveAspectRatio="xMidYMid meet" version="1.0"><defs><clipPath id="47440efbe9"><path d="M 427.082031 55.34375 L 770.160156 55.34375 L 770.160156 537.59375 L 427.082031 537.59375 Z M 427.082031 55.34375 " clip-rule="nonzero"/></clipPath></defs><g clip-path="url(#47440efbe9)"><path fill="#100f0d" d="M 733.21875 360.566406 C 733.605469 360.953125 734.277344 360.472656 733.988281 359.988281 C 732.734375 357.960938 731.675781 355.648438 731.097656 353.332031 C 730.515625 350.921875 730.710938 348.507812 730.421875 346.097656 C 730.324219 345.421875 729.457031 345.230469 729.265625 345.90625 L 729.265625 346.003906 C 729.070312 346.003906 728.878906 346.003906 728.785156 346.097656 C 721.742188 350.148438 720.683594 365.484375 729.265625 368.378906 C 730.132812 368.667969 730.902344 367.605469 730.421875 366.835938 C 729.746094 365.582031 728.878906 365.097656 727.820312 364.039062 C 725.984375 362.203125 725.503906 359.988281 725.503906 357.480469 C 725.503906 353.71875 726.273438 350.535156 728.878906 347.933594 C 728.300781 352.367188 730.613281 357.382812 733.21875 360.566406 Z M 675.363281 173.066406 C 674.691406 172.777344 673.917969 173.550781 674.589844 174.125 C 675.554688 174.996094 676.714844 175.671875 677.773438 176.539062 C 678.738281 177.410156 679.703125 178.371094 680.574219 179.335938 C 681.054688 179.820312 681.730469 179.140625 681.339844 178.566406 C 679.609375 176.636719 677.679688 174.226562 675.363281 173.066406 Z M 684.140625 198.335938 C 683.847656 197.664062 682.984375 197.949219 683.078125 198.628906 C 683.558594 202.195312 686.644531 204.316406 688.863281 206.824219 C 692.527344 210.96875 694.554688 215.699219 696 221.097656 C 696.285156 222.257812 697.929688 221.777344 697.734375 220.613281 C 697.058594 216.472656 695.320312 212.417969 692.910156 209.042969 C 690.214844 205.28125 685.777344 202.773438 684.140625 198.335938 Z M 554.933594 470.808594 C 555.320312 468.6875 556.1875 465.503906 555.222656 463.476562 C 555.027344 463.191406 554.546875 463.285156 554.453125 463.574219 C 554.164062 464.539062 554.355469 465.601562 554.355469 466.660156 C 554.355469 468.011719 554.261719 469.265625 553.96875 470.519531 C 553.871094 471.191406 554.742188 471.484375 554.933594 470.808594 Z M 556.1875 372.238281 C 553.582031 378.117188 552.042969 384.195312 551.847656 390.65625 C 551.652344 398.179688 555.320312 406.089844 552.332031 413.324219 C 552.042969 413.902344 553.003906 414.386719 553.390625 413.902344 C 557.246094 410.144531 555.609375 404.933594 554.742188 400.207031 C 553.003906 390.851562 554.0625 381.59375 557.34375 372.71875 C 557.636719 372.046875 556.476562 371.464844 556.1875 372.238281 Z M 606.519531 396.253906 C 606.421875 395.867188 605.847656 395.769531 605.648438 396.15625 C 604.589844 398.277344 605.167969 401.558594 605.363281 403.875 C 605.457031 404.546875 606.421875 404.546875 606.421875 403.875 C 606.421875 402.519531 606.421875 401.171875 606.519531 399.820312 C 606.519531 398.664062 606.808594 397.410156 606.519531 396.253906 Z M 755.683594 365.097656 C 752.691406 368.472656 750.863281 370.210938 746.332031 370.117188 C 746.714844 368.863281 745.847656 367.222656 745.367188 366.160156 C 744.59375 364.421875 743.4375 362.976562 741.992188 361.628906 C 741.605469 361.339844 741.027344 361.722656 741.320312 362.109375 C 742.375 363.460938 743.246094 365.003906 743.921875 366.644531 C 744.304688 367.605469 744.304688 368.957031 744.789062 369.921875 C 744.210938 369.921875 743.730469 369.921875 743.148438 370.117188 C 742.476562 370.402344 741.605469 371.367188 740.929688 371.5625 C 740.640625 371.65625 740.160156 371.65625 739.773438 371.65625 C 739.390625 370.597656 739.003906 369.726562 739.195312 368.570312 C 739.292969 367.800781 738.230469 367.414062 738.039062 368.28125 C 737.847656 369.246094 737.746094 370.402344 738.039062 371.464844 C 735.433594 370.984375 732.542969 370.308594 732.640625 373.875 C 732.640625 374.742188 733.890625 374.742188 733.988281 373.875 C 734.179688 372.238281 739.390625 374.742188 740.449219 374.550781 C 741.800781 374.359375 741.605469 373.875 742.765625 373.394531 C 744.980469 372.332031 745.847656 372.8125 748.066406 372.8125 C 752.117188 372.8125 756.839844 370.019531 757.128906 365.679688 C 757.226562 365.003906 756.164062 364.523438 755.683594 365.097656 Z M 730.902344 374.742188 C 729.84375 374.742188 728.785156 375.132812 727.625 374.9375 C 727.046875 374.839844 726.46875 374.648438 725.984375 374.457031 C 725.117188 373.972656 725.890625 373.585938 726.566406 373.296875 C 727.820312 372.71875 729.359375 372.140625 729.070312 370.5 C 728.976562 369.828125 727.914062 369.828125 727.722656 370.5 C 727.429688 371.753906 725.601562 371.753906 724.636719 372.527344 C 723.863281 373.203125 723.382812 374.359375 724.058594 375.324219 C 725.410156 377.253906 729.84375 377.636719 731.578125 376.09375 C 732.058594 375.613281 731.578125 374.742188 730.902344 374.742188 Z M 746.234375 345.808594 C 746.234375 345.714844 746.332031 345.617188 746.425781 345.421875 C 748.261719 343.203125 751.535156 340.792969 754.816406 339.828125 C 749.515625 335.296875 744.789062 332.019531 737.746094 330.765625 C 737.652344 330.765625 737.460938 330.667969 737.363281 330.667969 C 730.613281 332.5 723.960938 334.8125 717.40625 337.515625 C 720.007812 338.09375 722.609375 338.960938 725.019531 339.828125 C 727.625 340.699219 730.324219 341.46875 732.253906 343.496094 C 737.074219 341.46875 742.476562 342.238281 746.234375 345.808594 Z M 641.617188 346.96875 C 642.871094 345.617188 642.289062 344.265625 641.808594 342.820312 C 641.425781 341.664062 642.773438 340.601562 643.835938 341.082031 C 644.605469 340.503906 645.570312 340.117188 646.628906 339.734375 C 647.109375 339.539062 647.882812 339.347656 648.171875 338.960938 C 648.074219 338.960938 648.074219 338.863281 647.980469 338.863281 C 647.789062 339.054688 647.5 339.054688 647.308594 338.863281 C 646.246094 338.191406 645.089844 338.09375 643.933594 338.09375 C 643.160156 338.09375 642.386719 338.191406 641.808594 337.804688 C 641.714844 337.898438 641.617188 337.898438 641.523438 337.996094 C 639.109375 339.539062 637.085938 342.144531 634.480469 343.109375 C 634 343.300781 633.421875 343.011719 633.128906 342.53125 C 632.746094 342.914062 632.457031 343.300781 632.070312 343.59375 C 631.78125 343.878906 631.398438 343.976562 631.109375 344.074219 C 630.433594 345.421875 628.214844 345.039062 628.023438 343.398438 C 626.671875 341.949219 625.707031 340.117188 624.648438 338.480469 C 624.164062 337.707031 623.683594 336.839844 623.105469 336.070312 C 623.296875 336.644531 623.003906 337.417969 622.140625 337.515625 C 620.792969 337.609375 619.34375 339.15625 618.476562 340.117188 C 618.089844 340.601562 617.21875 341.566406 617.417969 342.238281 C 617.609375 342.914062 618.183594 342.820312 618.667969 343.011719 C 619.054688 343.203125 619.34375 343.398438 619.535156 343.785156 C 620.210938 343.976562 620.691406 344.84375 620.308594 345.617188 C 619.730469 346.773438 619.054688 347.835938 618.957031 349.183594 C 618.863281 349.863281 618.957031 351.691406 620.019531 351.691406 C 620.691406 351.691406 621.847656 350.4375 622.621094 350.246094 C 623.683594 349.957031 624.359375 350.246094 625.222656 350.921875 C 625.222656 350.921875 625.222656 350.921875 625.320312 351.019531 C 625.417969 351.019531 625.515625 351.019531 625.707031 351.019531 C 626.863281 351.308594 627.925781 351.789062 629.082031 352.273438 C 630.914062 353.042969 631.878906 352.558594 633.128906 351.308594 C 634 350.34375 634.867188 349.472656 635.929688 349.089844 C 636.023438 348.507812 636.503906 348.125 637.183594 348.125 C 638.628906 348.125 640.363281 348.316406 641.617188 346.96875 Z M 626.960938 308.289062 C 626.960938 308.191406 626.960938 308.191406 626.960938 308.289062 Z M 628.503906 308.871094 Z M 629.851562 309.738281 C 630.335938 310.800781 630.71875 311.859375 631.007812 312.921875 C 631.007812 311.375 630.914062 309.835938 630.625 308.289062 C 630.625 308.773438 630.335938 309.351562 629.851562 309.738281 Z M 633.226562 453.640625 C 627.734375 449.78125 622.429688 445.152344 620.402344 438.691406 C 620.210938 447.277344 619.148438 456.535156 624.453125 463.765625 C 624.839844 464.25 623.96875 464.921875 623.585938 464.441406 C 618.183594 458.171875 618.089844 449.398438 618.183594 441.199219 C 617.800781 441.777344 617.417969 442.453125 617.027344 443.128906 C 615.488281 446.214844 615.199219 449.78125 613.75 452.867188 C 613.75 452.964844 613.847656 453.0625 613.847656 453.15625 C 614.136719 460.78125 619.148438 466.085938 621.847656 472.835938 C 623.777344 477.753906 625.222656 482.960938 625.804688 488.167969 C 630.71875 482.382812 633.035156 475.632812 633.519531 467.914062 C 633.710938 463.765625 632.363281 457.980469 633.226562 453.640625 Z M 560.910156 416.988281 C 561.683594 417.859375 562.164062 418.917969 562.066406 420.074219 C 561.972656 420.558594 561.777344 421.039062 561.394531 421.234375 C 561.683594 421.425781 561.875 421.71875 561.683594 422.199219 C 561.585938 422.390625 561.585938 422.582031 561.492188 422.777344 C 562.261719 421.621094 563.222656 420.558594 564.09375 419.691406 C 565.152344 418.535156 566.214844 417.375 567.277344 416.414062 C 565.152344 417.085938 562.839844 417.472656 560.910156 416.988281 Z M 542.492188 427.023438 C 542.589844 427.023438 542.6875 427.023438 542.6875 427.023438 C 541.820312 426.632812 540.953125 426.25 540.179688 425.667969 C 539.699219 426.441406 539.023438 426.730469 538.15625 426.730469 C 537.671875 427.023438 537.191406 427.308594 536.707031 427.503906 C 538.734375 427.308594 540.566406 427.117188 542.492188 427.023438 Z M 539.410156 421.910156 C 539.890625 422.101562 540.375 422.199219 540.761719 422.292969 C 538.542969 420.558594 536.613281 418.535156 535.167969 416.414062 C 536.421875 418.339844 537.867188 420.171875 539.410156 421.910156 Z M 533.140625 413.128906 C 533.332031 413.421875 533.53125 413.804688 533.722656 414.09375 C 533.625 414 533.625 413.902344 533.53125 413.710938 C 533.429688 413.421875 533.332031 413.230469 533.429688 412.9375 C 533.332031 413.035156 533.238281 413.128906 533.140625 413.128906 Z M 761.566406 366.449219 C 760.3125 367.027344 759.25 366.742188 758.191406 365.96875 C 757.226562 365.195312 756.648438 364.132812 755.203125 364.132812 C 754.046875 364.132812 753.082031 364.90625 751.925781 365.097656 C 751.152344 365.292969 750.378906 364.230469 751.054688 363.652344 C 751.152344 363.558594 751.246094 363.558594 751.34375 363.460938 C 751.925781 357.960938 750.28125 354.007812 747.007812 349.570312 C 743.339844 344.75 739.003906 344.074219 733.699219 345.039062 C 736.496094 347.253906 738.808594 349.863281 740.546875 352.949219 C 740.835938 353.523438 740.0625 354.007812 739.675781 353.429688 C 737.652344 350.4375 735.144531 347.933594 732.253906 345.808594 C 732.058594 345.714844 731.960938 345.523438 731.960938 345.421875 C 731.195312 345.523438 730.710938 344.75 731 344.167969 C 726.175781 340.699219 719.527344 340.410156 714.03125 338.960938 C 708.339844 341.46875 702.652344 344.359375 697.15625 347.644531 C 699.46875 350.054688 701.496094 352.949219 703.230469 356.226562 C 703.519531 356.707031 702.75 357.09375 702.460938 356.613281 C 700.625 353.238281 698.503906 350.4375 696.09375 348.21875 C 696.09375 348.21875 696.09375 348.21875 696 348.21875 C 694.839844 348.898438 693.875 347.644531 694.265625 346.679688 C 691.949219 344.84375 689.34375 343.496094 686.742188 342.433594 C 685.96875 343.203125 684.429688 342.53125 684.234375 341.566406 C 674.207031 338.480469 662.445312 339.15625 651.644531 339.15625 C 651.546875 339.828125 651.257812 340.601562 650.875 341.082031 C 650.777344 341.179688 650.585938 341.375 650.484375 341.46875 C 653.957031 342.238281 657.140625 344.074219 659.742188 346.386719 C 660.226562 346.871094 659.550781 347.542969 658.972656 347.160156 C 655.695312 344.652344 652.222656 343.496094 648.367188 342.820312 C 648.171875 342.914062 647.980469 342.914062 647.882812 343.011719 C 647.210938 343.300781 646.4375 343.398438 645.761719 343.785156 C 645.859375 343.976562 645.859375 344.265625 645.859375 344.460938 C 654.441406 346.679688 662.058594 354.875 665.820312 362.496094 C 666.109375 362.976562 665.335938 363.460938 665.046875 362.976562 C 662.636719 358.925781 659.550781 355.167969 655.886719 352.175781 C 652.703125 349.570312 649.234375 348.125 645.664062 346.484375 C 645.472656 347.253906 645.183594 347.933594 644.796875 348.507812 C 649.136719 350.628906 651.742188 356.417969 653.476562 360.375 C 653.667969 360.855469 652.996094 361.339844 652.703125 360.855469 C 651.355469 358.15625 650.003906 355.261719 647.980469 353.042969 C 646.726562 351.59375 645.28125 350.726562 643.640625 349.957031 C 643.160156 350.34375 642.679688 350.628906 642.097656 350.828125 C 646.246094 354.96875 648.753906 359.988281 649.621094 365.871094 C 650.96875 374.9375 649.234375 387.089844 659.742188 391.238281 C 660.226562 391.429688 660.035156 392.203125 659.550781 392.007812 C 654.058594 390.175781 651.257812 385.449219 649.910156 379.953125 C 647.308594 369.152344 648.847656 359.410156 640.167969 351.210938 C 639.304688 351.308594 638.53125 351.308594 637.664062 351.113281 C 637.183594 351.984375 636.503906 352.847656 635.738281 353.621094 C 639.398438 375.804688 638.722656 405.320312 666.785156 409.660156 C 667.554688 409.753906 667.941406 410.335938 668.039062 411.007812 C 668.230469 410.625 668.613281 410.238281 669.195312 410.335938 C 669.386719 410.335938 669.484375 410.335938 669.675781 410.335938 C 669.578125 410.238281 669.484375 410.046875 669.386719 409.851562 C 668.230469 405.804688 670.253906 402.425781 673.242188 399.726562 C 675.269531 397.890625 677.773438 396.445312 679.609375 394.324219 C 683.175781 390.082031 682.210938 386.414062 682.789062 381.59375 C 683.175781 377.734375 684.910156 375.515625 688.089844 373.585938 C 687.804688 373.105469 687.515625 372.621094 687.222656 372.140625 C 686.644531 371.273438 685.96875 370.402344 685.199219 369.632812 C 684.714844 369.152344 685.488281 368.378906 685.96875 368.863281 C 686.839844 369.632812 687.609375 370.402344 688.285156 371.273438 C 688.671875 371.753906 689.054688 372.238281 689.25 372.8125 C 689.636719 372.621094 689.925781 372.429688 690.308594 372.238281 C 689.25 370.117188 688.1875 368.089844 686.550781 366.160156 C 684.621094 364.039062 682.5 362.203125 680.28125 360.375 C 679.800781 359.988281 680.476562 359.117188 680.957031 359.507812 C 685.007812 362.398438 690.214844 366.351562 691.851562 371.367188 C 696.964844 368.378906 700.625 365.484375 701.785156 358.445312 C 701.878906 357.863281 702.75 358.058594 702.75 358.542969 C 702.554688 362.59375 701.207031 366.351562 698.410156 369.34375 C 696.675781 371.175781 694.457031 372.429688 692.335938 373.585938 C 692.238281 373.972656 691.851562 374.167969 691.464844 374.070312 C 689.152344 375.421875 687.125 377.058594 686.164062 379.761719 C 684.332031 384.871094 685.875 389.984375 682.59375 394.710938 C 678.929688 400.109375 671.414062 402.039062 671.316406 409.5625 C 671.316406 409.851562 671.214844 410.144531 671.023438 410.335938 C 677.101562 409.945312 682.113281 406.570312 687.03125 403.003906 C 691.5625 399.726562 696.675781 395.960938 700.144531 391.527344 C 704 386.605469 701.785156 382.171875 702.554688 376.769531 C 702.84375 375.03125 703.324219 374.261719 703.808594 372.71875 C 704.964844 370.886719 705.835938 368.765625 706.125 366.542969 C 705.738281 364.132812 704.964844 361.820312 703.90625 359.699219 C 703.519531 358.925781 704.582031 358.347656 705.0625 359.023438 C 708.339844 363.75 709.304688 367.125 706.992188 372.527344 C 703.808594 379.566406 707.761719 386.898438 702.652344 393.359375 C 698.410156 398.761719 692.144531 403.195312 686.550781 407.054688 C 681.054688 410.910156 675.460938 414.191406 668.613281 413.128906 C 668.039062 413.035156 667.746094 412.648438 667.648438 412.265625 C 667.359375 412.839844 666.878906 413.324219 666.109375 413.230469 C 654.539062 412.457031 644.699219 405.03125 640.167969 394.421875 C 640.167969 394.324219 640.074219 394.230469 640.074219 394.03125 C 639.785156 399.050781 638.722656 404.355469 636.699219 409.179688 C 663.410156 421.039062 668.710938 454.121094 658.296875 478.910156 C 658.105469 479.296875 657.816406 479.585938 657.429688 479.679688 C 657.429688 479.777344 657.527344 479.875 657.527344 479.972656 C 657.914062 481.707031 655.214844 482.480469 654.824219 480.742188 C 653.285156 474.183594 651.644531 468.496094 646.628906 463.574219 C 643.0625 460.101562 638.628906 457.496094 634.480469 454.703125 C 637.183594 467.53125 635.539062 481.609375 626.1875 491.449219 C 625.03125 492.609375 623.296875 490.871094 624.359375 489.617188 C 623.296875 481.226562 620.691406 474.472656 616.164062 467.242188 C 613.945312 463.671875 611.726562 460.199219 611.433594 456.242188 C 609.988281 457.980469 608.160156 459.332031 606.421875 460.679688 C 605.265625 461.546875 603.722656 459.523438 604.882812 458.65625 C 607.578125 456.339844 609.894531 454.3125 611.339844 451.132812 C 606.230469 449.972656 601.507812 447.851562 597.167969 444.765625 C 596.585938 444.382812 597.070312 443.417969 597.742188 443.800781 C 602.273438 446.3125 607.003906 448.242188 612.015625 449.300781 C 612.59375 447.46875 612.980469 445.632812 613.75 443.902344 C 614.617188 441.972656 615.871094 440.617188 616.835938 438.789062 C 617.21875 438.207031 617.417969 437.632812 617.703125 437.050781 C 616.355469 436.667969 615.003906 436.085938 613.652344 435.703125 C 611.433594 435.023438 609.21875 434.542969 607.003906 434.058594 C 606.328125 433.867188 606.519531 432.808594 607.195312 432.808594 C 610.667969 432.902344 614.808594 433.386719 618.089844 434.929688 C 618.183594 434.832031 618.183594 434.738281 618.28125 434.640625 C 618.765625 432.035156 618.378906 429.433594 617.992188 426.441406 C 617.800781 425.285156 619.4375 424.804688 619.730469 425.960938 C 620.402344 428.660156 621.078125 431.457031 620.792969 434.253906 C 620.792969 434.738281 620.691406 435.121094 620.59375 435.605469 C 624.742188 447.277344 636.121094 451.710938 645.183594 458.851562 C 651.164062 463.574219 654.539062 469.070312 656.46875 476.015625 C 665.429688 451.617188 659.070312 424.320312 635.738281 410.910156 C 633.324219 415.832031 629.753906 420.074219 625.03125 422.582031 C 626.863281 429.914062 631.109375 434.058594 637.566406 438.015625 C 642.289062 440.910156 645.761719 444.574219 648.65625 449.300781 C 649.039062 449.972656 648.074219 450.554688 647.691406 449.878906 C 645.183594 446.023438 641.808594 442.9375 637.855469 440.617188 C 635.445312 439.269531 632.9375 438.304688 630.816406 436.570312 C 626.671875 433.292969 623.875 428.753906 622.8125 423.644531 C 621.65625 424.03125 620.5 424.414062 619.246094 424.609375 C 618.667969 424.703125 618.476562 423.933594 618.957031 423.742188 C 620.308594 423.164062 621.558594 422.582031 622.71875 421.910156 C 622.910156 421.519531 623.296875 421.234375 623.683594 421.136719 C 623.683594 421.039062 623.683594 421.039062 623.683594 420.945312 C 624.933594 414.09375 625.417969 407.25 624.550781 400.398438 C 624.453125 399.820312 625.417969 399.726562 625.515625 400.300781 C 626.480469 406.960938 626.671875 413.421875 625.613281 420.074219 C 634.867188 412.648438 635.832031 400.398438 637.375 388.246094 C 637.375 387.863281 637.566406 387.570312 637.757812 387.378906 C 634.773438 377.351562 633.710938 365.777344 633.519531 355.648438 C 633.128906 355.839844 632.84375 356.03125 632.457031 356.226562 C 630.71875 356.898438 628.890625 356.417969 627.152344 355.648438 C 617.800781 360.277344 609.894531 374.9375 608.832031 384.777344 C 608.738281 385.257812 607.964844 385.257812 608.058594 384.777344 C 608.640625 377.636719 611.824219 371.65625 615.390625 365.679688 C 617.992188 361.238281 620.886719 357.09375 625.320312 354.683594 C 625.320312 354.683594 625.320312 354.683594 625.222656 354.683594 C 618.28125 357.09375 612.980469 361.722656 607.675781 366.742188 C 602.472656 371.65625 593.792969 378.601562 593.113281 386.03125 C 593.113281 386.511719 592.347656 386.511719 592.347656 386.03125 C 592.828125 378.601562 600.15625 372.238281 604.976562 367.125 C 608.832031 362.976562 613.269531 358.445312 618.28125 355.453125 C 617.320312 355.070312 616.453125 354.203125 615.96875 353.238281 C 615.871094 352.949219 615.773438 352.65625 615.679688 352.367188 C 615.488281 352.65625 615.199219 352.949219 614.808594 352.949219 C 604.300781 354.585938 594.851562 356.515625 584.726562 359.890625 C 577.207031 362.398438 570.363281 363.074219 562.9375 359.890625 C 559.464844 358.347656 556.089844 356.324219 553.199219 353.910156 C 533.238281 368.472656 544.039062 397.316406 549.726562 416.699219 C 549.921875 416.699219 550.015625 416.605469 550.207031 416.605469 C 551.558594 414.769531 553.96875 414.289062 556.1875 414.769531 C 556.765625 414.867188 557.4375 415.15625 558.117188 415.449219 C 559.949219 410.71875 559.464844 404.355469 559.65625 399.535156 C 559.65625 398.855469 560.8125 398.855469 560.8125 399.535156 C 560.71875 403.875 561.105469 408.214844 560.8125 412.457031 C 560.71875 413.902344 560.527344 415.351562 559.847656 416.507812 C 560.046875 416.699219 560.238281 416.796875 560.429688 416.988281 C 560.332031 416.605469 560.429688 416.214844 560.71875 416.023438 C 562.9375 414.386719 566.3125 414.289062 568.914062 413.519531 C 572.191406 412.554688 574.792969 411.109375 577.496094 409.082031 C 576.628906 406.1875 576.148438 403.101562 575.855469 399.726562 C 575.855469 399.4375 576.339844 399.335938 576.4375 399.628906 C 577.6875 405.125 579.132812 409.945312 582.027344 413.902344 C 581.0625 410.429688 582.507812 405.511719 583.472656 402.621094 C 583.667969 401.945312 584.632812 402.230469 584.4375 402.910156 C 583.667969 406.285156 581.835938 412.359375 584.246094 415.449219 C 584.535156 415.734375 584.4375 416.121094 584.152344 416.414062 C 585.882812 418.144531 588.007812 419.59375 590.703125 420.753906 C 599.097656 424.511719 607.964844 425.09375 616.933594 424.03125 C 617.511719 423.933594 617.609375 424.898438 617.027344 424.996094 C 607.097656 427.308594 596.203125 425.960938 587.136719 421.039062 C 582.507812 418.535156 579.714844 415.058594 578.074219 410.910156 C 576.917969 412.265625 575.566406 413.324219 574.027344 414.191406 C 574.027344 414.484375 573.929688 414.769531 573.542969 414.964844 C 568.914062 417.761719 565.25 422.777344 563.03125 427.695312 C 564.1875 427.117188 565.347656 426.539062 566.503906 425.574219 C 567.46875 424.804688 568.242188 424.03125 569.207031 423.257812 C 571.324219 421.621094 573.542969 420.753906 576.242188 421.234375 C 576.722656 421.328125 576.53125 422.101562 576.050781 422.003906 C 570.84375 421.234375 568.527344 427.214844 564.480469 428.949219 C 568.722656 430.007812 578.558594 425.09375 581.933594 424.804688 C 586.5625 424.320312 590.898438 424.898438 595.332031 426.25 C 595.816406 426.441406 595.625 427.214844 595.140625 427.023438 C 585.5 424.609375 578.558594 426.824219 569.6875 430.398438 C 567.179688 431.363281 565.152344 431.746094 563.222656 430.398438 C 563.222656 430.492188 563.320312 430.589844 563.320312 430.683594 C 563.421875 430.972656 563.320312 431.265625 563.222656 431.554688 C 564.285156 432.519531 564.960938 433.773438 564.960938 435.21875 C 567.46875 437.535156 573.445312 435.605469 576.53125 436.472656 C 579.230469 437.242188 581.542969 438.980469 583.28125 441.101562 C 583.667969 441.582031 582.992188 442.257812 582.605469 441.777344 C 580.386719 439.269531 577.496094 437.632812 574.027344 437.535156 C 571.617188 437.433594 569.207031 438.398438 566.890625 438.015625 C 566.023438 437.917969 565.152344 437.535156 564.480469 437.148438 C 564.1875 437.917969 563.707031 438.597656 563.128906 438.980469 C 568.433594 442.453125 572.382812 446.695312 576.53125 451.617188 C 579.132812 454.703125 581.835938 457.886719 585.402344 459.816406 C 589.9375 462.320312 593.792969 461.644531 598.515625 460.488281 C 599.480469 460.296875 599.960938 461.355469 599.382812 462.03125 C 594.949219 467.433594 586.367188 464.636719 581.542969 461.164062 C 576.148438 457.207031 572.289062 451.808594 567.757812 446.886719 C 575.375 458.851562 585.308594 473.800781 574.792969 486.242188 C 573.929688 487.304688 572.964844 488.070312 571.902344 489.035156 C 568.433594 492.027344 567.5625 492.511719 565.25 497.042969 C 563.804688 499.742188 562.457031 502.15625 560.140625 504.183594 C 559.65625 504.566406 559.175781 504.949219 558.691406 505.339844 C 558.691406 505.433594 558.691406 505.53125 558.691406 505.53125 C 558.597656 506.203125 558.019531 506.304688 557.535156 506.109375 C 553.199219 508.714844 548.085938 509.582031 543.171875 508.230469 C 542.300781 507.941406 542.6875 506.785156 543.554688 506.878906 C 548.570312 507.558594 553.296875 506.496094 557.152344 503.984375 C 558.019531 498.105469 558.117188 492.316406 556.957031 486.433594 C 556.863281 485.855469 557.730469 485.566406 557.921875 486.144531 C 559.175781 491.546875 559.5625 496.949219 559.082031 502.445312 C 560.910156 500.707031 562.457031 498.585938 563.613281 496.078125 C 565.734375 491.160156 568.335938 489.714844 572 485.949219 C 584.824219 473.027344 569.589844 455.085938 562.550781 443.222656 C 562.261719 442.738281 562.359375 442.257812 562.648438 441.875 C 562.164062 441.488281 561.585938 441.101562 561.007812 440.71875 C 560.140625 441.199219 559.175781 441.292969 558.117188 441.292969 C 557.636719 441.292969 556.765625 441.101562 556.378906 441.292969 C 555.898438 441.582031 555.898438 442.644531 555.609375 443.128906 C 555.417969 443.417969 555.222656 443.703125 555.027344 443.996094 C 556.957031 448.816406 557.246094 454.121094 556.863281 459.234375 C 556.863281 459.816406 555.898438 459.816406 555.898438 459.234375 C 556.089844 454.3125 555.027344 449.6875 553.871094 444.960938 C 552.8125 445.539062 551.652344 445.632812 550.496094 445.441406 C 550.304688 449.300781 550.980469 453.0625 550.496094 456.921875 C 549.921875 461.453125 548.957031 465.984375 548.183594 470.519531 C 548.085938 471 547.316406 470.808594 547.414062 470.328125 C 548.085938 465.214844 549.148438 459.71875 549.339844 454.511719 C 549.4375 451.230469 548.761719 448.046875 549.050781 444.863281 C 548.761719 444.667969 548.570312 444.574219 548.375 444.382812 C 547.992188 444.863281 547.511719 445.25 546.832031 445.347656 C 547.414062 449.878906 545.867188 454.511719 543.941406 458.851562 C 539.214844 469.460938 533.816406 480.164062 538.15625 491.929688 C 538.351562 492.410156 537.578125 492.609375 537.480469 492.125 C 534.492188 484.503906 535.359375 476.59375 537.960938 468.878906 C 540.761719 460.679688 545.773438 453.449219 544.710938 445.058594 C 544.039062 444.765625 543.457031 444.285156 542.976562 443.800781 C 541.242188 442.164062 540.179688 438.113281 543.265625 437.242188 C 544.328125 436.953125 545.195312 437.917969 545.003906 438.980469 C 544.902344 439.269531 544.808594 439.460938 544.808594 439.65625 C 544.902344 439.753906 544.902344 439.753906 545.003906 439.847656 C 545.484375 440.71875 545.867188 441.488281 546.160156 442.355469 C 546.449219 442.546875 546.738281 442.644531 546.832031 442.546875 C 546.546875 441.972656 546.351562 441.292969 546.351562 440.617188 C 546.351562 439.460938 547.894531 438.789062 548.667969 439.65625 C 549.050781 440.136719 549.53125 440.8125 549.921875 441.390625 C 550.402344 441.007812 551.171875 441.292969 550.980469 442.066406 C 550.980469 442.164062 550.980469 442.164062 550.980469 442.257812 C 551.367188 442.355469 551.652344 442.355469 552.136719 442.066406 C 553.101562 441.488281 553.101562 440.136719 553.96875 439.363281 C 554.742188 438.691406 555.707031 438.398438 556.765625 438.398438 C 557.636719 438.398438 559.5625 438.980469 560.046875 438.113281 C 560.332031 437.632812 560.71875 437.535156 561.105469 437.433594 C 561.394531 437.050781 561.777344 436.667969 562.066406 436.085938 C 562.550781 434.929688 562.261719 433.675781 561.296875 432.902344 C 561.203125 432.808594 561.203125 432.710938 561.105469 432.613281 C 559.5625 431.84375 558.691406 429.625 558.402344 428.082031 C 558.117188 426.058594 558.691406 424.128906 559.949219 422.484375 L 560.046875 422.390625 C 559.949219 422.390625 559.847656 422.292969 559.847656 422.292969 C 558.5 421.425781 557.921875 419.882812 556.476562 418.917969 C 555.609375 418.339844 553.96875 417.570312 552.714844 417.664062 C 552.617188 419.109375 550.789062 419.59375 549.4375 419.59375 C 548.476562 419.59375 547.703125 419.398438 547.121094 420.460938 C 546.738281 421.136719 546.640625 421.910156 546.351562 422.582031 C 548.957031 423.546875 551.652344 423.933594 554.355469 424.804688 C 555.511719 425.1875 555.609375 426.34375 555.125 427.117188 C 556.863281 427.503906 557.152344 429.816406 555.320312 430.492188 C 554.835938 430.683594 554.261719 430.78125 553.777344 430.972656 C 551.847656 432.808594 548.761719 433.484375 546.351562 434.542969 C 543.847656 435.605469 541.335938 436.859375 538.832031 438.015625 C 539.023438 438.304688 539.117188 438.691406 538.832031 438.980469 C 538.253906 439.65625 537.671875 440.425781 537.097656 441.199219 C 535.457031 451.710938 528.996094 458.558594 521.089844 465.886719 C 520.511719 466.46875 519.546875 465.503906 520.222656 465.023438 C 523.980469 461.453125 527.742188 457.691406 530.636719 453.449219 C 532.46875 450.652344 533.53125 447.757812 534.394531 444.667969 C 530.921875 448.816406 526.875 452.773438 521.957031 454.414062 C 517.523438 455.859375 512.410156 455.277344 507.78125 455.183594 C 502.191406 455.085938 496.597656 455.085938 491.105469 454.894531 C 490.332031 454.894531 490.332031 453.738281 491.105469 453.738281 C 500.164062 453.640625 510.480469 454.992188 519.351562 452.964844 C 526.296875 451.421875 529.863281 446.117188 534.296875 441.390625 C 534.105469 441.390625 533.816406 441.390625 533.625 441.292969 C 532.949219 440.910156 532.371094 440.617188 531.695312 440.328125 C 527.9375 446.214844 519.933594 447.949219 513.375 447.851562 C 512.601562 447.851562 512.601562 446.695312 513.375 446.695312 C 519.933594 446.597656 525.910156 444.476562 530.058594 439.558594 C 528.707031 438.882812 527.453125 438.304688 526.101562 437.824219 C 525.816406 437.917969 525.527344 437.917969 525.136719 437.824219 C 512.796875 435.023438 498.140625 434.15625 487.730469 442.644531 C 484.0625 445.632812 480.980469 449.398438 477.410156 452.582031 C 472.394531 457.113281 466.707031 461.164062 468.539062 467.722656 C 468.730469 467.433594 469.3125 467.242188 469.695312 467.625 C 474.132812 471.097656 481.265625 471.097656 486.570312 471.582031 C 491.003906 471.964844 495.535156 472.253906 499.972656 472.253906 C 500.550781 472.253906 500.550781 473.21875 499.972656 473.21875 C 493.222656 473.316406 486.570312 473.316406 479.917969 472.546875 C 476.058594 472.0625 471.820312 471.964844 469.019531 469.167969 C 469.3125 469.941406 469.695312 470.617188 470.175781 471.390625 C 470.566406 472.0625 469.601562 472.835938 469.117188 472.253906 C 465.644531 468.300781 465.070312 463.09375 468.058594 458.65625 C 469.890625 455.859375 472.878906 454.027344 475.289062 451.902344 C 478.375 449.207031 480.980469 446.023438 483.871094 443.128906 C 488.691406 438.207031 494.28125 435.3125 500.164062 433.867188 C 498.140625 433.484375 496.210938 432.902344 494.1875 431.84375 C 489.175781 429.335938 483.964844 425.960938 480.980469 421.039062 C 478.570312 417.085938 477.890625 412.648438 477.605469 408.117188 C 477.316406 407.925781 477.121094 407.824219 476.832031 407.632812 C 475.960938 407.054688 476.640625 405.804688 477.507812 406.089844 C 477.507812 405.222656 477.410156 404.449219 477.410156 403.582031 C 477.410156 402.621094 478.761719 402.714844 478.855469 403.582031 C 478.953125 404.742188 479.050781 405.996094 479.242188 407.152344 C 483.773438 409.945312 488.304688 412.746094 493.222656 414.769531 C 493.609375 414.964844 493.320312 415.640625 492.933594 415.542969 C 488.304688 413.710938 483.871094 411.78125 479.628906 409.371094 C 480.882812 416.214844 483.582031 422.101562 490.234375 426.25 C 496.5 430.203125 502.285156 431.167969 509.519531 431.265625 C 517.039062 431.457031 526.972656 431.9375 533.046875 437.242188 C 533.140625 436.761719 533.429688 436.375 533.816406 436.183594 C 534.976562 435.703125 536.324219 435.796875 537.191406 436.667969 C 539.601562 435.121094 542.109375 433.675781 544.617188 432.328125 C 540.179688 432.421875 535.742188 432.035156 532.082031 431.265625 C 531.3125 432.230469 529.765625 432.519531 528.800781 431.457031 C 528.511719 431.070312 528.320312 430.683594 528.226562 430.300781 C 528.128906 430.109375 528.128906 430.007812 528.128906 429.816406 C 528.03125 429.335938 528.226562 428.851562 528.511719 428.46875 C 522.921875 426.925781 516.847656 423.644531 511.929688 424.996094 C 511.253906 425.1875 510.964844 424.128906 511.636719 423.933594 C 519.835938 421.8125 527.453125 427.988281 535.261719 426.632812 C 534.203125 425.960938 533.332031 425.1875 532.660156 424.511719 C 532.273438 424.128906 531.886719 423.742188 531.503906 423.355469 C 530.828125 423.839844 530.058594 423.933594 529.285156 423.546875 C 528.128906 422.875 527.839844 421.328125 528.511719 420.269531 C 528.609375 420.171875 528.707031 420.074219 528.800781 419.980469 C 524.945312 414.769531 521.476562 409.082031 514.53125 407.632812 C 513.953125 407.535156 514.148438 406.667969 514.820312 406.765625 C 519.449219 407.535156 522.824219 409.851562 525.910156 413.324219 C 526.683594 414.191406 528.511719 416.894531 530.636719 419.496094 C 530.730469 419.496094 530.730469 419.496094 530.828125 419.496094 C 531.40625 419.59375 531.984375 420.074219 532.175781 420.558594 C 532.371094 420.460938 532.660156 420.460938 532.851562 420.558594 C 533.625 420.847656 534.296875 421.136719 535.070312 421.425781 C 532.660156 417.953125 530.828125 413.902344 528.898438 410.429688 C 522.441406 398.664062 511.351562 391.046875 497.949219 389.691406 C 497.082031 389.597656 497.082031 388.34375 497.949219 388.34375 C 507.78125 389.117188 517.039062 393.167969 523.980469 400.300781 C 526.875 403.292969 528.996094 406.667969 531.019531 410.046875 C 531.117188 409.851562 531.214844 409.660156 531.40625 409.5625 C 531.792969 409.082031 532.371094 408.984375 532.949219 409.179688 C 534.394531 408.789062 535.84375 409.945312 535.742188 411.589844 C 535.742188 412.265625 535.359375 412.9375 534.878906 413.324219 C 535.261719 413.324219 535.550781 413.421875 535.84375 413.804688 C 538.15625 417.085938 540.855469 419.980469 544.421875 421.8125 C 544.519531 421.8125 544.519531 421.910156 544.617188 421.910156 C 545.003906 420.460938 546.160156 418.917969 547.316406 418.242188 C 547.414062 418.242188 547.414062 418.144531 547.511719 418.144531 C 545.195312 414.289062 543.457031 409.753906 542.207031 404.933594 C 537.480469 399.628906 534.203125 393.070312 529.285156 387.765625 C 524.269531 382.363281 518.101562 377.925781 510.964844 375.996094 C 502.960938 373.777344 497.371094 376.386719 489.847656 378.316406 C 485.992188 379.277344 481.171875 379.179688 478.277344 382.558594 C 475.097656 386.316406 477.605469 393.265625 478.472656 397.316406 C 478.664062 398.472656 477.121094 398.855469 476.734375 397.796875 C 474.324219 391.621094 473.070312 382.941406 478.953125 378.214844 C 482.519531 375.421875 487.53125 375.902344 491.679688 374.457031 C 495.636719 373.105469 499.203125 371.847656 503.441406 371.847656 C 518.484375 371.753906 532.757812 383.519531 540.566406 396.734375 C 539.601562 390.65625 539.316406 384.484375 539.410156 379.082031 C 539.601562 369.34375 542.976562 357.960938 552.136719 353.140625 C 545.003906 346.386719 540.566406 337.128906 542.207031 326.90625 C 541.726562 326.421875 541.917969 325.460938 542.785156 325.359375 L 542.882812 325.359375 C 542.976562 325.359375 543.171875 325.359375 543.265625 325.359375 C 547.316406 325.359375 551.171875 326.230469 554.835938 328.160156 C 555.417969 328.445312 554.933594 329.21875 554.355469 328.929688 C 550.980469 327.484375 547.414062 326.808594 543.746094 326.90625 C 542.785156 343.203125 556.1875 358.542969 572.867188 359.410156 C 580.679688 359.792969 588.199219 355.550781 595.527344 353.523438 C 601.792969 351.789062 608.542969 350.4375 615.003906 350.628906 C 615.488281 350.628906 615.773438 350.828125 616.0625 351.113281 C 616.0625 349.664062 616.453125 348.21875 617.125 346.96875 C 616.546875 346.773438 615.96875 346.484375 615.582031 346.003906 C 615.003906 345.324219 614.617188 344.558594 614.523438 343.6875 C 609.796875 344.75 605.746094 347.542969 600.925781 348.125 C 597.261719 348.605469 593.792969 347.835938 590.511719 346.195312 C 589.9375 345.90625 590.320312 344.941406 590.898438 345.132812 C 597.261719 347.542969 602.082031 346.484375 608.160156 343.785156 C 610.375 342.820312 612.398438 341.949219 614.617188 341.855469 C 614.617188 341.664062 614.714844 341.566406 614.714844 341.375 C 614.808594 341.179688 614.90625 340.984375 615.003906 340.792969 C 604.011719 336.359375 593.695312 340.019531 582.316406 339.445312 C 575.183594 339.054688 566.695312 337.898438 561.683594 332.304688 C 561.203125 331.824219 561.972656 331.054688 562.457031 331.535156 C 570.457031 339.734375 584.824219 338.574219 595.238281 337.324219 C 601.410156 336.550781 608.058594 335.679688 613.75 338.289062 C 609.507812 334.523438 604.6875 329.507812 599.097656 331.246094 C 598.515625 331.4375 598.324219 330.570312 598.898438 330.375 C 605.363281 328.160156 612.015625 334.523438 616.644531 338.480469 C 616.933594 338.191406 617.320312 337.898438 617.609375 337.609375 C 616.933594 337.035156 616.355469 336.164062 615.871094 335.394531 C 614.136719 332.789062 612.496094 330.089844 609.316406 329.125 C 608.640625 328.929688 608.929688 328.0625 609.605469 328.160156 C 611.726562 328.445312 613.460938 329.703125 614.808594 331.339844 C 616.164062 332.984375 617.320312 335.679688 619.34375 336.644531 C 619.828125 336.453125 620.308594 336.359375 620.691406 336.261719 C 611.148438 323.238281 601.214844 309.15625 586.65625 301.730469 C 586.464844 301.730469 586.269531 301.636719 586.078125 301.441406 C 584.054688 300.476562 582.027344 299.609375 579.90625 298.835938 C 575.472656 297.390625 571.519531 296.8125 567.953125 297.390625 C 573.738281 299.417969 579.039062 302.3125 583.953125 305.976562 C 584.34375 306.261719 583.953125 306.84375 583.570312 306.554688 C 577.785156 302.695312 571.519531 299.996094 564.867188 298.164062 C 563.707031 298.644531 562.550781 299.226562 561.492188 299.996094 C 563.996094 300.191406 566.597656 301.539062 568.625 302.695312 C 569.109375 302.984375 568.722656 303.566406 568.242188 303.371094 C 566.890625 302.695312 565.441406 302.117188 563.996094 301.730469 C 562.742188 301.441406 561.394531 301.441406 560.140625 301.15625 C 558.5 302.601562 557.054688 304.53125 555.800781 306.941406 C 553.296875 311.566406 551.367188 316.871094 547.027344 320.15625 C 546.449219 320.636719 545.964844 319.671875 546.351562 319.191406 C 551.460938 312.824219 553.582031 304.335938 559.175781 298.453125 C 564.671875 292.761719 572.773438 293.433594 579.8125 295.460938 C 580.96875 295.75 582.125 296.136719 583.28125 296.617188 C 579.714844 289.867188 578.074219 283.117188 577.882812 275.015625 C 577.59375 264.308594 576.722656 253.40625 577.109375 242.703125 C 576.917969 242.03125 576.722656 241.257812 576.53125 240.484375 C 576.339844 239.519531 577.785156 239.039062 578.074219 240.101562 C 578.167969 240.292969 578.269531 240.582031 578.269531 240.777344 C 578.367188 240.871094 578.460938 241.066406 578.558594 241.257812 C 578.558594 241.351562 578.558594 241.449219 578.558594 241.546875 C 582.703125 251.960938 597.359375 257.074219 600.347656 268.070312 C 600.734375 261.320312 602.179688 254.371094 606.808594 249.265625 C 613.363281 242.125 621.847656 244.824219 629.660156 240.675781 C 630.335938 240.292969 631.007812 241.351562 630.335938 241.738281 C 623.777344 245.886719 615.390625 243.476562 609.605469 249.359375 C 603.144531 255.917969 602.472656 266.042969 602.953125 274.824219 C 603.917969 292.085938 611.824219 304.914062 621.949219 318.320312 C 622.910156 319.671875 620.886719 320.925781 619.730469 319.960938 C 607.292969 309.15625 600.925781 290.253906 600.347656 273.953125 C 599.960938 274.144531 599.382812 274.144531 599.191406 273.664062 C 595.722656 265.753906 592.441406 259.773438 585.980469 253.890625 C 583.472656 251.578125 580.871094 249.265625 579.039062 246.5625 C 579.617188 254.371094 579.523438 262.378906 579.90625 270.191406 C 580.097656 275.589844 580.097656 281.09375 581.742188 286.300781 C 582.992188 290.542969 585.308594 294.398438 587.425781 298.355469 C 592.632812 300.863281 597.359375 304.140625 601.699219 308 C 594.175781 295.171875 588.101562 281.378906 584.34375 267.492188 C 584.152344 266.816406 585.113281 266.527344 585.402344 267.203125 C 589.257812 279.644531 594.757812 291.21875 601.3125 302.40625 C 604.398438 307.617188 607.773438 312.730469 611.242188 317.742188 C 614.90625 321.984375 618.183594 326.519531 621.367188 331.054688 C 621.65625 331.054688 621.949219 331.054688 622.238281 331.246094 C 622.332031 331.246094 622.332031 331.339844 622.429688 331.4375 L 622.523438 331.4375 C 622.8125 331.535156 623.203125 331.726562 623.394531 332.019531 C 623.585938 332.113281 623.777344 332.210938 623.875 332.402344 C 625.128906 334.042969 626.480469 335.679688 627.734375 337.226562 C 627.539062 336.164062 627.34375 335.105469 626.863281 333.949219 C 625.707031 331.339844 623.96875 329.027344 622.238281 326.90625 C 621.367188 327.195312 620.308594 326.90625 619.632812 326.132812 C 618.574219 324.976562 618.765625 323.046875 620.210938 322.277344 C 621.753906 321.410156 623.585938 322.660156 623.585938 324.300781 C 623.585938 324.496094 623.585938 324.589844 623.488281 324.785156 C 625.515625 326.714844 628.117188 329.507812 629.851562 332.5 C 630.046875 331.246094 630.144531 329.992188 630.238281 328.738281 C 629.082031 318.128906 618.476562 311.859375 617.320312 301.15625 C 617.21875 300.476562 618.476562 300.285156 618.574219 300.957031 C 619.632812 308.675781 626.863281 314.65625 630.238281 321.792969 C 630.046875 318.226562 629.371094 314.75 628.40625 311.472656 C 627.25 311.375 626.09375 310.507812 626.1875 309.15625 C 626.285156 307.324219 628.214844 305.976562 629.953125 306.460938 C 630.527344 306.652344 630.914062 307.035156 631.203125 307.519531 C 631.203125 307.324219 631.109375 307.226562 631.109375 307.035156 C 629.46875 301.058594 624.164062 297.007812 621.65625 291.507812 C 617.511719 282.441406 617.703125 272.3125 619.148438 262.667969 C 619.246094 261.894531 620.402344 262.285156 620.308594 262.957031 C 619.34375 270.09375 618.957031 277.425781 620.691406 284.46875 C 622.140625 290.640625 625.320312 294.6875 629.082031 299.609375 C 633.421875 305.398438 634.289062 312.53125 633.324219 319.574219 C 633.710938 322.566406 633.808594 325.554688 633.808594 328.738281 C 633.808594 329.027344 633.808594 329.21875 633.808594 329.507812 C 634.867188 327.773438 636.023438 326.035156 637.183594 324.398438 C 636.796875 324.398438 636.503906 324.011719 636.601562 323.625 C 637.757812 320.054688 639.109375 316.679688 638.148438 312.824219 C 637.566406 310.410156 636.121094 308.289062 635.253906 305.976562 C 633.902344 302.3125 633.613281 298.835938 634.578125 295.078125 C 634.773438 294.304688 635.832031 294.6875 635.738281 295.367188 C 634.289062 302.503906 638.53125 306.746094 639.976562 313.113281 C 640.460938 315.042969 640.363281 316.871094 639.878906 318.707031 C 640.167969 318.707031 640.363281 318.707031 640.652344 318.800781 C 642.003906 319.285156 642.484375 320.636719 642.289062 321.890625 C 642.195312 322.566406 641.523438 322.949219 640.941406 323.046875 C 638.914062 327.484375 636.699219 331.628906 634.867188 336.070312 C 637.953125 332.5 641.617188 329.316406 645.664062 327.289062 C 645.570312 327.097656 645.570312 326.90625 645.664062 326.617188 C 650.101562 318.898438 656.660156 313.980469 663.699219 308.871094 C 664.179688 308.582031 664.664062 309.253906 664.273438 309.640625 C 661.289062 312.148438 658.199219 314.65625 655.214844 317.261719 C 652.996094 319.191406 651.257812 321.503906 649.621094 323.820312 C 649.71875 323.820312 649.910156 323.820312 650.003906 323.914062 C 650.777344 324.105469 651.355469 324.6875 651.644531 325.359375 C 654.632812 323.625 657.71875 321.984375 660.804688 320.15625 C 667.648438 316.105469 672.179688 306.554688 680.957031 306.554688 C 681.4375 306.554688 681.4375 307.324219 680.957031 307.324219 C 674.304688 307.519531 671.699219 312.921875 667.554688 316.871094 C 665.238281 319.09375 662.539062 320.925781 659.742188 322.566406 C 656.949219 324.203125 654.25 325.84375 651.546875 327.582031 C 651.257812 327.964844 650.875 328.253906 650.390625 328.351562 L 650.292969 328.351562 C 646.246094 331.054688 642.386719 333.851562 638.628906 337.226562 C 638.53125 337.324219 638.433594 337.515625 638.339844 337.609375 C 639.109375 337.128906 639.976562 336.644531 640.652344 336.261719 C 642.582031 335.199219 644.414062 334.332031 646.4375 333.75 C 646.054688 333.75 645.570312 333.65625 645.183594 333.65625 C 644.316406 333.558594 644.21875 332.210938 645.183594 332.210938 C 653.476562 332.402344 658.972656 328.445312 666.203125 325.652344 C 669.195312 324.496094 671.699219 324.496094 674.496094 326.132812 C 674.980469 326.421875 674.496094 327.097656 674.109375 326.808594 C 668.421875 323.722656 662.445312 329.605469 657.429688 331.628906 C 655.886719 332.210938 654.441406 332.789062 652.898438 333.175781 C 652.996094 333.367188 653.09375 333.558594 653.09375 333.75 C 653.476562 335.585938 651.644531 336.742188 650.101562 335.875 C 649.71875 335.679688 649.523438 335.296875 649.425781 334.914062 C 648.171875 335.488281 646.824219 336.164062 645.570312 336.839844 C 646.4375 337.128906 647.308594 337.515625 647.980469 337.996094 C 648.074219 337.515625 648.367188 337.035156 649.039062 336.933594 C 661.289062 334.914062 674.589844 335.296875 685.679688 340.019531 C 687.320312 336.644531 690.019531 334.140625 692.910156 331.535156 C 698.695312 326.519531 701.6875 322.855469 701.304688 314.75 C 701.109375 310.121094 701.109375 305.878906 704.097656 302.117188 C 705.738281 299.996094 707.953125 298.453125 709.882812 296.714844 C 706.125 297.199219 702.652344 298.066406 699.179688 299.800781 C 698.695312 300.09375 698.214844 299.320312 698.695312 299.03125 C 702.554688 296.8125 707.089844 295.269531 711.523438 295.171875 C 713.066406 293.628906 714.320312 291.894531 714.898438 289.582031 C 715.1875 288.617188 716.535156 289 716.34375 289.964844 C 715.667969 294.496094 712.390625 296.910156 709.113281 299.898438 C 706.21875 302.601562 704 305.105469 703.714844 309.351562 C 703.425781 312.921875 704.679688 316.390625 704.289062 319.960938 C 703.324219 329.894531 692.71875 333.367188 688.285156 341.277344 C 688.378906 341.375 688.480469 341.375 688.574219 341.375 C 688.769531 341.082031 689.152344 340.890625 689.535156 340.890625 C 701.207031 340.890625 708.054688 332.113281 713.355469 322.855469 C 718.851562 313.210938 721.355469 302.019531 717.113281 291.410156 C 716.824219 290.640625 717.980469 290.15625 718.371094 290.832031 C 724.539062 302.601562 721.453125 315.332031 714.898438 326.324219 C 709.882812 334.621094 702.652344 343.398438 692.527344 343.878906 C 693.683594 344.652344 694.746094 345.523438 695.804688 346.484375 C 705.835938 340.410156 716.632812 335.488281 727.820312 331.921875 C 730.230469 329.992188 732.351562 328.0625 733.699219 325.265625 C 735.050781 322.46875 735.335938 319.382812 737.265625 316.871094 C 737.746094 316.199219 738.710938 316.777344 738.328125 317.453125 C 736.691406 320.828125 736.300781 324.589844 734.375 327.773438 C 733.796875 328.738281 733.121094 329.703125 732.351562 330.570312 C 744.015625 327.289062 756.164062 325.359375 768.316406 324.976562 C 768.992188 324.976562 768.894531 325.941406 768.316406 325.941406 C 759.347656 326.714844 750.671875 328.0625 742.085938 330.183594 C 747.585938 331.921875 753.273438 335.199219 756.359375 339.925781 C 756.359375 340.019531 756.457031 340.019531 756.457031 340.117188 C 757.515625 339.925781 758.480469 339.828125 759.347656 339.925781 C 763.492188 340.503906 768.121094 344.84375 769.664062 348.605469 C 769.953125 349.378906 768.796875 349.957031 768.316406 349.378906 C 766.289062 346.871094 763.878906 343.6875 760.988281 342.238281 C 759.925781 341.664062 758.675781 341.566406 757.515625 341.757812 L 757.613281 341.855469 C 760.3125 344.84375 760.601562 349.957031 760.40625 353.8125 C 760.40625 354.488281 759.347656 354.488281 759.347656 353.8125 C 759.347656 351.691406 759.058594 349.664062 758.382812 347.738281 C 757.804688 346.003906 756.839844 344.359375 756.359375 342.628906 C 756.261719 342.339844 756.359375 342.144531 756.550781 341.949219 C 756.265625 342.046875 755.875 342.144531 755.585938 342.238281 C 755.683594 343.496094 754.71875 344.75 754.527344 345.90625 C 754.238281 347.449219 754.332031 348.898438 754.527344 350.4375 C 754.621094 350.921875 753.847656 351.113281 753.5625 350.726562 C 752.691406 349.183594 752.5 347.449219 752.792969 345.714844 C 752.890625 344.941406 753.082031 343.976562 753.464844 343.109375 C 751.246094 344.167969 749.222656 345.714844 747.777344 346.96875 C 747.679688 347.0625 747.488281 347.0625 747.390625 347.160156 C 747.488281 347.253906 747.488281 347.253906 747.585938 347.351562 C 751.828125 352.175781 754.046875 357.289062 752.984375 363.558594 C 754.046875 363.074219 755.394531 362.785156 756.457031 362.976562 C 757.226562 363.074219 757.902344 363.460938 758.480469 363.941406 C 759.25 364.617188 760.121094 366.257812 761.46875 365.96875 C 761.757812 365.003906 762.335938 366.160156 761.566406 366.449219 Z M 769.855469 359.507812 C 769.566406 357.191406 769.183594 354.777344 768.699219 352.464844 C 768.601562 351.886719 767.542969 351.984375 767.542969 352.65625 C 767.738281 355.359375 768.027344 358.058594 768.21875 360.757812 C 768.410156 362.496094 768.21875 364.421875 766.191406 365.003906 C 765.617188 365.195312 765.132812 365.195312 764.652344 365.386719 C 765.035156 363.75 764.84375 362.011719 764.652344 360.375 C 764.460938 358.828125 764.265625 357.289062 763.589844 355.839844 C 763.398438 355.359375 762.722656 355.648438 762.722656 356.03125 C 762.53125 357.671875 762.914062 359.3125 762.914062 361.046875 C 763.011719 362.59375 762.816406 364.039062 763.109375 365.582031 C 763.207031 365.96875 763.496094 366.0625 763.78125 366.160156 C 763.78125 366.449219 763.878906 366.644531 764.167969 366.742188 C 766.289062 367.507812 769.085938 366.160156 769.855469 364.039062 C 770.4375 362.59375 770.050781 360.953125 769.855469 359.507812 Z M 622.71875 209.332031 C 618.957031 208.65625 616.257812 207.019531 613.460938 204.699219 C 615.582031 211.359375 616.546875 218.398438 620.402344 224.378906 C 624.648438 231.03125 631.203125 234.3125 638.628906 236.046875 C 638.628906 234.117188 638.914062 232.285156 639.59375 230.550781 C 631.398438 227.273438 624.742188 221.097656 619.921875 213.769531 C 619.4375 212.996094 620.59375 212.324219 621.078125 213.09375 C 626.1875 220.039062 632.84375 224.761719 640.460938 228.527344 C 641.230469 227.082031 642.195312 225.726562 643.253906 224.570312 C 643.253906 224.472656 643.253906 224.378906 643.253906 224.28125 C 643.351562 223.507812 643.351562 222.835938 643.449219 222.0625 C 643.0625 221.96875 642.773438 221.675781 642.582031 221.195312 C 639.398438 211.550781 631.203125 210.777344 622.71875 209.332031 Z M 639.878906 236.628906 C 639.976562 236.726562 639.976562 236.726562 640.074219 236.820312 C 644.605469 236.242188 648.847656 237.207031 653.285156 240.871094 C 657.914062 244.726562 661.863281 249.550781 663.890625 255.144531 C 670.734375 254.855469 673.53125 250.804688 678.738281 247.429688 C 681.730469 245.40625 685.296875 244.441406 688.863281 244.246094 C 688.671875 243.28125 688.769531 242.222656 688.960938 241.546875 C 684.714844 243.667969 679.511719 244.535156 674.980469 244.824219 C 674.398438 244.824219 674.304688 243.960938 674.882812 243.859375 C 677.679688 243.28125 680.476562 242.605469 683.175781 241.738281 C 685.296875 241.066406 687.222656 240.003906 689.25 239.230469 C 689.25 238.941406 689.25 238.652344 689.25 238.363281 C 689.25 238.363281 689.25 238.363281 689.25 238.265625 C 689.152344 238.554688 689.054688 238.75 688.671875 238.75 C 684.332031 239.519531 680.667969 238.363281 676.519531 236.917969 C 669.484375 234.507812 663.410156 233.832031 656.175781 236.046875 C 655.503906 236.242188 655.214844 235.179688 655.886719 234.988281 C 660.324219 233.445312 664.757812 232.769531 669.484375 233.445312 C 676.136719 234.3125 681.730469 237.59375 688.574219 237.207031 C 688.863281 237.207031 689.152344 237.398438 689.25 237.59375 C 689.25 237.492188 689.25 237.492188 689.25 237.398438 C 689.054688 235.953125 688.863281 234.507812 688.960938 233.058594 C 681.824219 233.925781 674.789062 227.5625 669.003906 224.1875 C 655.695312 216.472656 642.773438 221.578125 639.878906 236.628906 Z M 689.734375 227.273438 C 680.859375 223.125 673.144531 216.273438 666.109375 209.238281 C 667.941406 211.164062 669.769531 213.1875 671.605469 215.117188 C 676.90625 220.613281 682.113281 226.210938 689.734375 227.273438 Z M 671.121094 210.683594 C 669.578125 209.621094 668.132812 208.464844 666.589844 207.402344 C 674.015625 213.960938 681.4375 220.328125 690.117188 225.535156 C 685.777344 219.457031 676.519531 214.636719 671.121094 210.683594 Z M 695.519531 227.082031 C 695.519531 227.273438 695.519531 227.5625 695.519531 227.753906 C 695.519531 228.71875 694.648438 229.203125 693.78125 229.203125 C 693.683594 229.492188 693.394531 229.777344 693.007812 229.777344 C 692.625 229.875 692.335938 229.875 691.949219 229.875 C 691.949219 229.972656 691.949219 230.066406 691.851562 230.261719 C 690.695312 232.285156 690.792969 233.925781 691.179688 235.855469 C 691.660156 235.761719 692.144531 235.761719 692.625 235.855469 C 693.683594 236.046875 694.648438 236.242188 695.519531 236.433594 C 694.839844 235.664062 694.554688 234.699219 694.648438 233.542969 C 694.746094 232.671875 695.128906 231.902344 695.613281 231.128906 C 695.519531 230.648438 695.804688 230.261719 696.191406 230.066406 L 696.191406 229.972656 C 697.058594 228.332031 697.058594 226.691406 697.058594 225.054688 C 696.867188 225.246094 696.675781 225.535156 696.382812 225.824219 C 696.285156 226.210938 695.902344 226.691406 695.519531 227.082031 Z M 705.542969 174.320312 C 705.445312 173.066406 705.445312 171.8125 705.351562 170.558594 L 705.253906 170.460938 C 702.652344 167.472656 701.207031 163.710938 698.503906 160.722656 C 695.421875 157.347656 692.046875 155.800781 687.996094 153.871094 C 687.222656 153.488281 687.804688 152.425781 688.574219 152.617188 C 692.816406 153.488281 696.675781 155.800781 699.660156 158.792969 C 701.589844 160.722656 703.714844 163.226562 705.253906 165.929688 C 705.253906 164.386719 705.160156 162.84375 705.160156 161.296875 C 696.191406 153.199219 688.960938 143.554688 675.945312 145.097656 C 683.464844 148.957031 682.019531 161.203125 690.984375 163.808594 C 691.464844 163.90625 691.660156 164.289062 691.753906 164.675781 C 696.867188 162.84375 702.167969 168.820312 705.542969 174.320312 Z M 704.097656 143.070312 C 704.195312 143.070312 704.195312 143.070312 704.289062 143.070312 C 704.195312 142.972656 704.097656 142.878906 704 142.78125 C 702.269531 139.695312 699.953125 138.25 697.25 136.128906 C 694.746094 134.199219 692.527344 132.078125 690.40625 129.664062 C 689.828125 129.085938 690.695312 128.121094 691.273438 128.796875 C 694.265625 131.6875 697.539062 134.292969 701.207031 136.511719 C 701.6875 136.800781 702.167969 137.089844 702.652344 137.476562 C 696.09375 129.085938 687.125 118.1875 676.714844 117.414062 C 680.765625 119.441406 682.789062 123.972656 684.910156 128.023438 C 689.25 136.511719 693.589844 143.359375 704.097656 143.070312 Z M 701.304688 110.085938 C 701.398438 110.085938 701.398438 110.085938 701.304688 110.085938 C 699.277344 108.347656 697.445312 106.320312 695.320312 104.683594 C 692.625 102.660156 689.636719 101.015625 686.644531 99.476562 C 685.679688 98.992188 686.359375 97.355469 687.417969 97.738281 C 690.792969 99.089844 693.972656 100.921875 696.964844 103.140625 C 698.503906 104.296875 700.242188 105.554688 701.6875 106.902344 C 701.6875 106.804688 701.6875 106.710938 701.589844 106.613281 C 696.191406 97.160156 686.453125 91.855469 676.039062 90.121094 C 678.164062 91.761719 679.414062 94.171875 681.054688 97.066406 C 685.199219 104.78125 691.371094 112.6875 701.304688 110.085938 Z M 695.519531 85.875 C 695.519531 85.78125 695.519531 85.78125 695.519531 85.683594 C 692.144531 81.441406 689.925781 76.136719 689.054688 70.734375 C 688.960938 69.867188 690.214844 69.480469 690.40625 70.347656 C 691.273438 75.265625 693.007812 79.511719 695.710938 83.5625 C 696 77.773438 694.554688 72.277344 691.949219 66.972656 C 690.597656 64.273438 689.054688 61.761719 687.804688 59.0625 C 687.515625 63.5 687.125 67.9375 687.515625 72.371094 C 687.996094 78.546875 691.5625 82.015625 695.519531 85.875 Z M 705.929688 106.902344 C 706.796875 105.164062 707.664062 103.335938 708.628906 101.695312 C 710.171875 99.089844 712.390625 96.484375 712.875 93.398438 C 712.96875 92.726562 714.03125 92.917969 714.03125 93.589844 C 713.839844 96.195312 712.390625 98.222656 711.136719 100.441406 C 709.304688 103.625 707.761719 106.902344 706.410156 110.277344 C 706.21875 110.660156 705.929688 110.859375 705.738281 110.859375 C 705.738281 110.859375 705.738281 110.859375 705.738281 110.953125 C 705.738281 111.433594 705.445312 111.722656 705.160156 111.824219 C 705.253906 112.109375 705.253906 112.304688 705.351562 112.589844 C 710.65625 108.640625 715.285156 104.683594 718.269531 98.605469 C 721.550781 91.953125 721.742188 84.71875 722.417969 77.582031 C 718.269531 81.246094 713.742188 83.851562 710.65625 88.769531 C 707.089844 94.363281 706.410156 100.632812 705.929688 106.902344 Z M 708.339844 141.238281 C 708.339844 141.625 708.339844 142.007812 708.4375 142.394531 C 709.5 140.949219 710.847656 139.597656 711.8125 138.441406 C 714.996094 134.679688 718.5625 131.59375 722.515625 128.703125 C 723 128.3125 723.574219 129.085938 723.09375 129.46875 C 720.199219 132.078125 717.40625 134.871094 714.800781 137.765625 C 712.292969 140.5625 710.558594 143.652344 708.535156 146.640625 C 708.535156 147.3125 708.535156 147.992188 708.628906 148.664062 C 716.152344 143.9375 722.707031 139.3125 725.695312 130.433594 C 727.335938 125.613281 727.625 120.40625 731.289062 117.222656 C 725.214844 118.476562 720.972656 124.164062 716.921875 128.703125 C 713.546875 132.75 710.75 136.800781 708.339844 141.238281 Z M 706.21875 219.847656 C 709.113281 214.636719 713.355469 210.203125 716.632812 205.183594 C 719.625 200.554688 722.609375 195.925781 725.695312 191.296875 C 717.5 199.878906 708.726562 207.980469 706.21875 219.847656 Z M 721.742188 203.835938 C 724.539062 198.238281 726.757812 192.453125 729.84375 186.957031 C 725.984375 193.324219 721.9375 199.6875 717.886719 205.957031 C 714.222656 211.648438 709.210938 216.953125 706.316406 223.027344 C 706.125 223.414062 705.835938 223.507812 705.542969 223.414062 C 705.351562 223.898438 704.964844 224.1875 704.480469 224.28125 C 704.871094 224.378906 705.160156 224.667969 704.964844 225.152344 C 704.097656 229.203125 709.015625 231.804688 707.664062 235.953125 C 706.605469 239.519531 702.652344 241.351562 701.304688 244.726562 C 701.976562 244.921875 702.75 245.117188 703.425781 245.117188 C 704.964844 245.117188 706.125 244.152344 707.570312 244.054688 L 707.664062 244.054688 C 707.664062 243.960938 707.664062 243.859375 707.570312 243.761719 C 707.472656 243.378906 707.855469 242.996094 708.148438 242.796875 C 708.054688 242.605469 707.855469 242.414062 707.761719 242.222656 C 707.472656 241.738281 708.148438 241.257812 708.535156 241.640625 C 714.03125 247.910156 719.910156 251.09375 727.625 253.988281 C 732.445312 255.726562 734.472656 258.519531 737.652344 261.605469 C 731.675781 250.128906 721.644531 244.726562 709.210938 240.871094 C 708.246094 240.582031 708.339844 238.941406 709.5 239.039062 C 709.59375 239.039062 709.691406 239.039062 709.691406 239.039062 C 709.785156 238.652344 710.074219 238.265625 710.65625 238.074219 C 711.136719 237.882812 711.523438 237.785156 712.003906 237.691406 C 712.003906 236.820312 711.8125 236.144531 711.425781 235.566406 C 710.847656 235.46875 710.367188 235.371094 709.785156 235.179688 C 709.210938 234.988281 709.210938 234.023438 709.980469 234.023438 C 710.074219 234.023438 710.171875 234.023438 710.367188 234.023438 C 710.171875 233.832031 710.074219 233.542969 709.980469 233.347656 C 709.304688 233.25 709.015625 232.386719 709.5 231.902344 C 709.113281 230.066406 709.5 228.238281 708.148438 226.691406 C 707.472656 226.597656 706.992188 226.117188 706.992188 225.535156 C 706.316406 225.152344 705.929688 224.089844 706.507812 223.414062 C 712.585938 217.238281 717.980469 211.550781 721.742188 203.835938 Z M 739.582031 265.078125 C 739.484375 264.789062 739.292969 264.40625 739.101562 264.117188 C 739.101562 264.117188 739.003906 264.117188 739.003906 264.019531 C 738.710938 263.824219 738.519531 263.632812 738.328125 263.441406 C 738.808594 264.019531 739.195312 264.5 739.582031 265.078125 Z M 727.429688 257.171875 C 730.421875 258.425781 734.179688 260.066406 736.980469 262.285156 C 735.335938 260.546875 734.085938 258.519531 732.058594 257.171875 C 728.785156 255.050781 724.636719 254.46875 721.070312 252.832031 C 716.730469 250.902344 712.875 248.101562 709.882812 244.535156 C 711.714844 248.78125 712.96875 252.25 718.078125 254.277344 C 721.070312 255.433594 724.347656 255.917969 727.429688 257.171875 Z M 713.742188 264.597656 C 711.523438 258.710938 709.304688 252.832031 707.375 246.851562 C 706.316406 247.527344 704.871094 247.816406 703.714844 247.816406 C 703.714844 247.816406 703.714844 247.816406 703.617188 247.816406 C 704.582031 250.324219 704.480469 253.214844 704.480469 255.917969 C 704.480469 261.03125 704.480469 266.140625 704.386719 271.15625 C 704.386719 271.832031 703.324219 271.832031 703.324219 271.15625 C 703.035156 263.25 703.714844 255.144531 701.878906 247.527344 C 700.914062 247.238281 699.953125 246.851562 698.988281 246.464844 C 699.953125 250.996094 699.375 255.917969 698.796875 260.449219 C 698.695312 261.03125 697.832031 261.03125 697.832031 260.449219 C 698.3125 255.628906 697.734375 250.902344 697.445312 246.175781 C 696.578125 246.082031 695.613281 246.273438 694.648438 246.851562 L 694.648438 246.945312 C 693.007812 252.542969 691.660156 259.003906 688.378906 263.921875 C 686.164062 267.203125 683.175781 269.421875 682.210938 273.46875 C 681.535156 276.554688 681.730469 279.738281 682.113281 282.921875 C 686.261719 281.285156 690.792969 279.933594 695.226562 279.546875 C 695.519531 276.753906 695.613281 274.050781 695.710938 271.25 C 695.710938 270.675781 696.578125 270.578125 696.675781 271.15625 C 697.15625 273.859375 697.15625 276.753906 696.867188 279.449219 C 703.230469 279.164062 709.304688 280.609375 714.03125 285.042969 C 719.234375 278.582031 716.25 271.347656 713.742188 264.597656 Z M 697.445312 232.769531 C 696.964844 234.023438 696.964844 235.277344 698.410156 235.953125 L 698.503906 236.046875 C 701.011719 235.179688 703.230469 235.179688 705.0625 237.207031 C 706.507812 234.988281 705.929688 233.152344 705.0625 231.222656 C 704.871094 231.222656 704.773438 231.222656 704.582031 231.128906 C 703.035156 230.359375 701.6875 230.550781 700.433594 231.613281 C 699.855469 231.996094 699.375 232.480469 698.695312 232.769531 C 698.3125 232.867188 697.832031 232.867188 697.445312 232.769531 Z M 700.339844 223.605469 C 700.050781 223.898438 699.566406 224.089844 699.179688 223.898438 C 699.757812 225.4375 699.660156 227.175781 699.277344 228.8125 C 699.179688 229.296875 698.894531 229.777344 698.695312 230.261719 C 699.660156 229.972656 701.011719 229.296875 701.589844 229.203125 C 702.554688 229.007812 703.425781 229.203125 704.289062 229.492188 C 703.714844 228.140625 703.230469 226.691406 703.519531 225.152344 C 703.324219 225.152344 703.132812 225.054688 702.941406 224.957031 C 702.070312 224.089844 701.207031 223.703125 700.339844 223.605469 Z M 690.40625 250.324219 C 690.5 249.9375 690.890625 249.839844 691.179688 249.839844 C 691.660156 248.585938 692.144531 247.238281 692.71875 245.980469 C 692.910156 245.597656 693.300781 245.40625 693.683594 245.5 C 694.839844 243.960938 696.769531 243.761719 698.695312 244.054688 C 698.796875 244.054688 698.796875 244.054688 698.894531 244.054688 C 700.144531 241.351562 702.460938 240.292969 704.289062 238.265625 C 701.589844 235.664062 699.855469 238.074219 697.25 238.75 C 695.421875 239.136719 693.683594 238.074219 691.851562 238.265625 C 691.851562 238.363281 691.851562 238.457031 691.851562 238.554688 C 692.046875 238.847656 692.046875 239.328125 691.753906 239.519531 C 691.464844 241.066406 690.5 242.796875 691.082031 244.054688 C 691.179688 244.054688 691.273438 244.152344 691.273438 244.152344 C 691.371094 244.152344 691.464844 244.054688 691.5625 244.054688 C 692.910156 243.761719 693.492188 245.789062 692.144531 246.175781 C 691.371094 246.371094 690.695312 246.5625 690.019531 246.753906 C 684.621094 250.804688 681.632812 257.554688 677.964844 263.152344 C 675.171875 267.492188 672.277344 272.023438 669.097656 276.074219 C 668.804688 276.847656 668.421875 277.617188 668.039062 278.292969 C 676.90625 270.09375 686.644531 262.765625 690.40625 250.324219 Z M 671.796875 269.324219 C 674.496094 265.5625 677.292969 261.703125 679.800781 257.847656 C 682.019531 254.46875 684.042969 251.191406 686.742188 248.394531 C 679.414062 252.445312 675.074219 260.449219 672.085938 268.359375 C 672.085938 268.746094 671.894531 269.035156 671.796875 269.324219 Z M 640.167969 238.074219 L 640.074219 238.074219 C 640.074219 238.171875 639.976562 238.171875 639.976562 238.265625 C 639.976562 238.171875 640.074219 238.171875 640.167969 238.074219 Z M 627.25 183.480469 C 624.839844 178.757812 623.777344 173.066406 623.203125 168.050781 C 623.105469 167.375 624.164062 167.28125 624.359375 167.859375 C 625.417969 172.296875 626.578125 177.210938 628.597656 181.265625 C 630.816406 185.699219 634.191406 187.628906 638.148438 189.847656 C 638.53125 180.394531 637.183594 171.90625 630.238281 164.871094 C 626.863281 161.394531 622.8125 159.082031 620.113281 155.320312 C 620.886719 162.261719 621.367188 169.59375 623.203125 176.152344 C 623.96875 179.335938 625.417969 181.652344 627.25 183.480469 Z M 718.851562 168.820312 C 718.175781 170.367188 717.5 172.105469 716.730469 173.742188 C 722.035156 169.304688 726.273438 164.480469 728.6875 157.828125 C 728.878906 157.152344 729.941406 157.441406 729.746094 158.117188 C 727.722656 164.480469 724.058594 170.65625 718.753906 174.800781 C 723.863281 172.488281 728.492188 169.402344 732.351562 164.964844 C 736.398438 160.238281 738.230469 153.96875 742.476562 149.53125 C 736.207031 149.050781 731.960938 150.6875 727.722656 155.800781 C 724.15625 159.851562 721.070312 164 718.851562 168.820312 Z M 716.054688 175.285156 C 715.957031 175.574219 715.765625 175.863281 715.667969 176.054688 C 715.957031 175.960938 716.25 175.863281 716.441406 175.765625 C 716.34375 175.671875 716.152344 175.480469 716.054688 175.285156 Z M 611.148438 202.871094 C 610.953125 202.003906 612.015625 201.613281 612.496094 202.195312 C 612.59375 202.195312 612.789062 202.195312 612.882812 202.289062 C 619.632812 207.113281 627.058594 205.859375 634.382812 208.753906 C 638.050781 210.203125 641.230469 212.613281 643.160156 215.792969 C 642.679688 208.078125 640.75 200.359375 639.304688 192.933594 C 639.011719 193.226562 638.53125 193.417969 638.050781 193.324219 C 618.957031 189.558594 619.632812 168.246094 618.574219 153.101562 C 618.378906 152.8125 618.28125 152.425781 618.089844 152.042969 C 617.703125 151.078125 619.246094 150.496094 619.730469 151.367188 C 623.105469 158.886719 632.554688 162.070312 636.796875 169.402344 C 640.363281 175.574219 642.289062 183.679688 640.269531 190.621094 C 640.167969 190.910156 639.976562 191.105469 639.785156 191.296875 C 639.785156 191.394531 639.785156 191.488281 639.785156 191.585938 C 639.785156 191.679688 639.785156 191.777344 639.785156 191.875 C 639.976562 191.875 640.074219 191.96875 640.167969 192.261719 C 642.003906 198.335938 643.253906 204.699219 644.414062 210.96875 C 645.089844 214.542969 646.148438 218.492188 645.761719 222.160156 C 648.847656 219.847656 652.511719 218.398438 656.371094 218.109375 C 661.960938 217.722656 666.976562 220.039062 671.699219 222.738281 C 674.398438 224.28125 677.003906 226.019531 679.703125 227.464844 C 682.789062 229.101562 686.066406 229.683594 689.152344 230.9375 C 689.34375 230.648438 689.441406 230.359375 689.636719 230.066406 C 683.847656 229.777344 679.125 226.5 674.980469 222.257812 C 667.265625 214.542969 659.644531 206.246094 652.800781 197.757812 C 652.320312 197.179688 653.09375 196.410156 653.574219 196.984375 L 653.667969 197.082031 C 653.859375 196.984375 654.058594 196.984375 654.34375 197.082031 C 663.019531 202.003906 671.121094 208.078125 679.027344 213.960938 C 683.078125 217.046875 688.1875 219.941406 691.273438 224.089844 C 686.933594 211.359375 671.894531 203.160156 667.265625 190.332031 C 665.628906 185.800781 665.53125 180.203125 668.230469 175.960938 C 671.699219 170.558594 677.964844 171.140625 683.078125 168.4375 C 683.75 168.050781 684.429688 169.113281 683.75 169.496094 C 683.078125 169.980469 682.402344 170.269531 681.632812 170.65625 C 687.03125 176.347656 690.40625 183.578125 691.5625 191.394531 C 691.660156 192.261719 690.308594 192.644531 690.214844 191.777344 C 689.152344 184.0625 685.777344 177.410156 680.375 171.90625 C 680.183594 171.714844 680.089844 171.523438 680.089844 171.332031 C 678.929688 171.714844 677.679688 172.003906 676.328125 172.390625 C 671.316406 173.835938 667.84375 177.503906 667.554688 182.90625 C 667.167969 191.003906 673.144531 197.082031 678.0625 202.578125 C 683.367188 208.464844 692.625 215.890625 694.746094 224.28125 C 694.839844 224.1875 694.9375 224.089844 695.035156 223.992188 C 695.902344 223.125 696.769531 222.351562 697.929688 222.0625 C 698.023438 222.0625 698.121094 222.0625 698.3125 221.96875 C 697.636719 216.953125 697.15625 211.933594 696.480469 206.921875 C 696.382812 206.246094 697.636719 206.054688 697.734375 206.726562 C 698.503906 211.742188 699.375 216.757812 700.144531 221.871094 C 700.625 221.96875 701.109375 222.0625 701.496094 222.160156 C 702.070312 212.707031 706.699219 203.738281 706.992188 193.996094 C 707.183594 186.761719 701.304688 158.601562 688.574219 168.246094 C 687.996094 168.628906 687.515625 167.859375 687.898438 167.375 C 688.285156 166.894531 688.671875 166.507812 689.152344 166.121094 C 679.609375 164.097656 681.148438 149.53125 672.664062 145.675781 C 672.472656 145.578125 672.375 145.480469 672.375 145.382812 C 671.796875 145 671.796875 143.9375 672.570312 143.746094 C 686.261719 140.46875 696.09375 147.601562 704.675781 156.863281 C 704.582031 152.617188 704.582031 148.472656 704.480469 144.226562 C 704.386719 144.417969 704.289062 144.515625 704.191406 144.617188 C 699.371094 147.507812 693.585938 144.902344 689.828125 141.332031 C 683.269531 135.066406 682.59375 120.695312 673.242188 117.894531 C 672.570312 117.703125 672.570312 117.03125 672.953125 116.644531 C 672.953125 116.644531 672.953125 116.546875 673.050781 116.546875 C 678.546875 112.785156 685.96875 118.574219 690.308594 121.851562 C 695.613281 125.902344 700.242188 130.722656 704.386719 135.835938 C 704.097656 127.640625 703.425781 119.539062 702.167969 111.53125 C 702.070312 111.625 701.976562 111.722656 701.878906 111.824219 C 697.058594 114.234375 691.660156 113.074219 687.417969 109.894531 C 680.574219 104.683594 679.125 92.53125 671.023438 89.542969 L 670.929688 89.542969 C 669.386719 89.441406 669.386719 87.03125 670.929688 87.128906 C 683.175781 88.09375 693.972656 93.882812 700.722656 104.007812 C 699.46875 98.414062 697.734375 92.820312 695.519531 87.320312 C 691.949219 84.71875 688.378906 81.535156 686.839844 77.386719 C 684.429688 71.117188 686.066406 62.917969 686.261719 56.363281 C 686.261719 56.167969 686.359375 55.976562 686.453125 55.882812 C 686.359375 55.300781 687.125 55.109375 687.320312 55.6875 C 687.609375 55.785156 687.804688 55.976562 687.804688 56.363281 C 687.804688 56.457031 687.804688 56.648438 687.804688 56.75 C 689.636719 61.472656 693.109375 65.527344 695.128906 70.25 C 697.25 75.363281 698.023438 80.28125 697.347656 85.78125 C 697.347656 86.066406 697.15625 86.164062 697.058594 86.359375 C 699.757812 92.433594 701.878906 98.703125 703.425781 105.070312 C 703.90625 99.667969 705.542969 94.363281 708.148438 89.640625 C 711.714844 83.078125 717.214844 80.378906 722.515625 75.554688 C 722.800781 74.976562 723.863281 75.074219 723.960938 75.847656 C 725.214844 90.988281 720.683594 108.539062 705.738281 115.390625 C 706.894531 122.335938 707.664062 129.375 708.148438 136.511719 C 710.945312 132.171875 714.511719 128.3125 718.078125 124.554688 C 722.226562 120.308594 727.238281 114.328125 733.699219 115.773438 C 733.796875 115.773438 733.890625 115.679688 733.988281 115.679688 C 734.570312 115.390625 735.144531 115.96875 735.144531 116.449219 C 735.242188 116.835938 735.144531 117.222656 734.664062 117.222656 C 734.570312 117.222656 734.570312 117.222656 734.472656 117.222656 C 728.976562 120.40625 729.550781 126.867188 727.820312 132.171875 C 726.855469 135.164062 725.410156 137.957031 723.574219 140.5625 C 720.105469 145.289062 714.898438 149.921875 709.113281 151.269531 C 709.015625 151.269531 708.917969 151.269531 708.820312 151.269531 C 709.113281 161.105469 709.113281 170.941406 709.402344 180.6875 C 719.332031 168.050781 723.863281 144.132812 744.113281 148.375 C 744.886719 148.566406 744.691406 149.824219 743.921875 149.722656 C 740.738281 153.007812 739.675781 157.441406 737.363281 161.296875 C 735.726562 164.097656 733.699219 166.601562 731.480469 168.921875 C 726.757812 173.742188 720.78125 177.601562 714.320312 179.335938 C 714.222656 179.335938 714.125 179.335938 714.03125 179.335938 C 712.875 181.167969 711.425781 182.714844 709.5 183.773438 C 709.5 183.964844 709.5 184.160156 709.5 184.351562 C 710.65625 189.75 710.65625 195.445312 709.980469 200.941406 C 709.785156 202.773438 709.5 204.796875 709.113281 206.824219 C 715.476562 197.566406 725.3125 190.234375 732.542969 181.84375 C 733.023438 181.265625 733.890625 182.132812 733.410156 182.714844 C 733.21875 183 733.023438 183.195312 732.734375 183.480469 C 732.734375 183.578125 732.734375 183.679688 732.734375 183.871094 C 726.660156 195.347656 723.480469 209.140625 714.996094 219.074219 C 718.078125 216.472656 721.164062 213.863281 724.636719 211.742188 C 730.421875 208.175781 737.945312 207.691406 744.59375 208.175781 C 756.550781 209.042969 761.179688 221.578125 757.128906 231.902344 C 756.9375 232.480469 756.066406 232.1875 756.265625 231.613281 C 758.675781 224.667969 756.648438 213.863281 748.742188 211.453125 C 743.921875 209.910156 735.726562 210.777344 731.097656 212.128906 C 723 214.542969 718.371094 223.027344 710.75 225.824219 C 711.621094 227.082031 711.910156 228.621094 712.195312 230.359375 C 712.195312 230.457031 712.195312 230.457031 712.292969 230.550781 C 716.824219 228.429688 720.105469 224.378906 724.636719 222.0625 C 728.585938 220.039062 732.734375 219.265625 737.171875 219.363281 C 737.746094 219.363281 737.746094 220.132812 737.171875 220.230469 C 730.613281 220.519531 724.925781 222.835938 720.007812 227.175781 C 717.597656 229.296875 715.667969 231.03125 712.96875 232.09375 C 713.257812 232.578125 713.640625 232.960938 714.03125 233.445312 C 720.972656 232.09375 727.238281 226.789062 734.570312 228.910156 C 735.144531 229.101562 734.855469 229.875 734.375 229.777344 C 727.238281 228.042969 721.550781 234.40625 714.996094 235.371094 C 715.1875 235.953125 715.1875 236.628906 715.1875 237.300781 C 720.007812 237.398438 724.636719 239.90625 729.457031 240.675781 C 738.039062 242.125 749.03125 241.351562 754.621094 233.925781 C 755.105469 233.25 756.265625 233.832031 755.78125 234.601562 C 752.210938 240.386719 745.65625 242.511719 739.292969 243.476562 C 735.820312 243.960938 732.351562 244.152344 728.878906 243.667969 C 725.019531 243.089844 721.550781 241.546875 717.886719 240.777344 C 728.300781 244.921875 736.882812 254.855469 740.738281 264.789062 C 740.929688 265.371094 740.160156 265.5625 739.871094 265.179688 C 739.964844 265.5625 739.390625 265.851562 739.101562 265.5625 C 732.832031 258.710938 723.574219 258.8125 715.765625 255.144531 C 714.222656 254.46875 712.96875 253.40625 711.910156 252.25 C 714.414062 258.710938 716.921875 265.371094 718.269531 271.929688 C 719.332031 276.945312 718.945312 281.957031 714.996094 285.527344 C 715.476562 286.007812 715.957031 286.589844 716.441406 287.164062 C 716.824219 287.648438 715.957031 288.226562 715.570312 287.84375 C 704.289062 274.628906 683.65625 283.308594 672.179688 292.085938 C 666.300781 296.617188 661.671875 302.019531 657.625 308.097656 C 654.730469 312.4375 651.933594 317.070312 647.789062 320.25 C 646.628906 321.117188 644.898438 319.382812 645.761719 318.226562 C 655.503906 305.105469 663.699219 291.503906 678.929688 284.078125 C 679.609375 283.789062 680.28125 283.40625 681.054688 283.117188 C 680.183594 277.8125 679.511719 272.507812 682.304688 267.875 C 676.425781 274.050781 669.867188 280.320312 663.019531 285.335938 C 662.828125 285.527344 662.539062 285.433594 662.445312 285.238281 C 661.960938 285.140625 661.671875 284.5625 662.058594 284.078125 C 663.503906 282.539062 664.757812 280.800781 665.914062 278.96875 C 665.722656 278.773438 665.628906 278.484375 665.820312 278.199219 C 666.6875 276.847656 667.554688 275.589844 668.421875 274.242188 C 672.953125 264.597656 675.847656 253.214844 684.234375 247.335938 C 682.984375 247.621094 681.824219 248.007812 680.667969 248.683594 C 678.738281 249.746094 677.101562 251.191406 675.363281 252.445312 C 671.988281 254.953125 668.613281 256.398438 664.46875 256.300781 C 664.855469 257.460938 665.144531 258.710938 665.238281 259.875 C 666.492188 269.035156 663.984375 278.96875 660.417969 287.363281 C 656.753906 296.042969 649.136719 303.371094 647.402344 312.824219 C 647.109375 314.269531 644.605469 313.980469 644.796875 312.4375 C 645.472656 306.363281 648.847656 301.828125 652.128906 296.8125 C 656.46875 290.15625 659.742188 282.921875 661.574219 275.109375 C 663.792969 265.371094 663.890625 256.015625 657.332031 247.816406 C 655.019531 244.921875 652.128906 241.640625 649.039062 239.714844 C 646.246094 237.976562 643.449219 237.492188 640.75 237.785156 C 640.941406 237.785156 641.132812 237.976562 641.230469 238.265625 C 643.449219 244.054688 643.449219 250.226562 643.351562 256.300781 C 643.351562 256.980469 642.386719 256.980469 642.386719 256.300781 C 642.195312 250.226562 641.90625 244.441406 639.976562 238.652344 C 639.878906 238.457031 639.976562 238.265625 639.976562 238.171875 C 639.785156 238.457031 639.496094 238.554688 639.109375 238.554688 C 638.628906 238.554688 638.242188 238.457031 637.757812 238.457031 C 637.375 238.554688 636.894531 238.652344 636.503906 238.847656 C 637.375 240.675781 637.277344 243.1875 637.183594 244.921875 C 637.085938 245.5 636.3125 245.5 636.3125 244.921875 C 636.3125 243.570312 636.121094 242.222656 635.738281 240.96875 C 635.539062 240.386719 635.347656 239.90625 635.058594 239.328125 C 634.382812 239.617188 633.613281 239.8125 632.9375 240.101562 C 632.070312 240.386719 631.78125 239.136719 632.554688 238.75 C 633.226562 238.457031 634 238.265625 634.675781 237.976562 L 634.675781 237.882812 C 619.246094 234.3125 613.75 217.238281 611.148438 202.871094 Z M 523.691406 497.523438 C 521.1875 494.4375 519.640625 490.773438 520.222656 486.53125 C 520.414062 485.085938 520.796875 483.539062 521.1875 482.09375 C 515.59375 490.964844 510.191406 499.9375 508.84375 510.835938 C 508.746094 511.511719 507.6875 511.609375 507.6875 510.835938 C 507.496094 503.3125 510.582031 496.367188 514.246094 489.90625 C 517.328125 484.3125 520.511719 478.621094 523.980469 473.027344 C 519.257812 478.042969 513.953125 482.671875 508.746094 486.625 C 508.84375 486.820312 508.84375 487.105469 508.746094 487.304688 C 506.433594 491.738281 503.636719 495.210938 501.996094 500.128906 C 500.550781 504.46875 499.683594 509.097656 499.585938 513.632812 C 499.492188 519.898438 501.515625 526.074219 499.585938 531.957031 C 510.191406 522.121094 522.246094 512.957031 523.691406 497.523438 Z M 474.613281 507.558594 C 471.335938 510.644531 468.828125 514.308594 465.550781 517.488281 C 461.214844 521.734375 456.195312 525.203125 451.183594 528.582031 C 450.699219 528.871094 450.125 528.097656 450.507812 527.714844 C 456.101562 523.277344 461.695312 518.742188 466.320312 513.246094 C 468.636719 510.449219 470.660156 507.265625 473.457031 504.855469 C 463.816406 506.785156 456.484375 511.703125 450.125 520.097656 C 445.109375 526.652344 439.226562 530.898438 432.089844 534.5625 C 441.929688 535.238281 451.28125 533.117188 459.570312 527.039062 C 467 521.734375 470.566406 514.886719 474.613281 507.558594 Z M 476.058594 489.519531 C 473.457031 489.808594 470.757812 489.714844 468.058594 489.425781 C 460.054688 488.460938 452.054688 486.722656 444.050781 485.375 C 443.277344 485.277344 443.46875 483.925781 444.242188 484.023438 C 456.003906 485.277344 469.792969 488.84375 481.265625 484.984375 C 475.195312 484.890625 469.695312 482.863281 463.816406 480.453125 C 453.015625 475.921875 443.660156 478.71875 434.792969 485.085938 C 443.277344 487.304688 448.679688 495.304688 458.222656 495.402344 C 465.070312 495.5 470.757812 492.894531 476.058594 489.519531 Z M 482.90625 484.984375 C 482.808594 484.984375 482.710938 484.984375 482.617188 484.984375 L 482.710938 485.085938 C 482.808594 485.085938 482.90625 484.984375 482.90625 484.984375 Z M 536.515625 506.6875 C 533.046875 505.144531 529.09375 502.925781 526.007812 499.9375 C 524.945312 514.984375 508.84375 526.558594 498.335938 535.238281 C 497.65625 535.8125 496.691406 534.949219 497.175781 534.273438 C 497.082031 534.082031 496.984375 533.792969 497.175781 533.5 C 501.128906 525.402344 496.890625 514.210938 498.140625 505.339844 C 498.816406 500.609375 500.359375 495.113281 503.15625 490.773438 C 495.828125 495.886719 487.824219 500.417969 479.628906 503.503906 C 479.628906 503.792969 479.433594 504.082031 479.050781 504.082031 C 478.953125 504.183594 478.855469 504.375 478.664062 504.46875 C 478.570312 504.46875 478.570312 504.566406 478.570312 504.566406 C 474.804688 525.882812 448.480469 542.472656 427.847656 536.296875 C 426.5 535.914062 427.078125 533.984375 428.429688 534.175781 C 428.523438 534.175781 428.621094 534.175781 428.8125 534.175781 C 428.910156 534.082031 429.003906 533.886719 429.199219 533.792969 C 434.695312 530.898438 440.285156 528.097656 444.820312 523.664062 C 448.679688 519.898438 451.375 515.078125 455.523438 511.511719 C 461.308594 506.59375 468.636719 503.410156 476.160156 502.925781 C 476.640625 502.636719 477.214844 502.347656 477.796875 502.15625 C 478.277344 501.960938 478.664062 502.15625 478.855469 502.347656 C 488.980469 497.234375 498.429688 491.929688 507.300781 484.792969 C 503.15625 486.433594 498.816406 487.304688 494.671875 486.53125 C 492.261719 486.144531 489.847656 485.46875 487.53125 484.503906 C 487.53125 484.601562 487.4375 484.601562 487.4375 484.695312 C 479.820312 491.160156 470.660156 497.234375 460.441406 497.714844 C 455.714844 498.007812 451.28125 496.851562 447.324219 494.339844 C 442.601562 491.351562 438.359375 488.554688 433.34375 485.949219 C 432.960938 486.046875 432.574219 485.46875 432.769531 485.085938 C 436.238281 478.332031 445.878906 475.339844 452.917969 474.859375 C 457.449219 474.570312 461.40625 475.824219 465.453125 477.65625 C 471.238281 480.164062 476.253906 481.609375 482.136719 482 C 478.085938 479.777344 474.515625 476.886719 471.820312 473.511719 C 471.335938 472.929688 472.105469 472.15625 472.6875 472.640625 C 478.855469 478.234375 488.886719 483.730469 497.464844 483.730469 C 505.277344 483.730469 515.402344 478.140625 519.546875 471.582031 C 522.34375 467.144531 524.078125 463.191406 528.320312 459.910156 C 535.167969 454.414062 536.515625 448.625 539.214844 440.71875 C 539.601562 439.558594 541.433594 439.753906 541.433594 441.007812 C 541.144531 447.371094 539.214844 453.449219 535.167969 458.171875 C 532.566406 464.921875 528.320312 470.808594 525.332031 477.460938 C 522.726562 483.347656 521.378906 488.941406 525.042969 494.246094 C 525.425781 494.339844 525.910156 494.632812 525.910156 495.210938 C 525.910156 495.304688 525.910156 495.402344 525.910156 495.5 C 526.007812 495.59375 526.101562 495.789062 526.199219 495.886719 C 529.382812 499.359375 533.914062 501.769531 538.253906 503.601562 C 540.179688 504.566406 538.542969 507.558594 536.515625 506.6875 Z M 612.304688 356.613281 C 605.941406 359.988281 598.898438 361.238281 592.921875 365.582031 C 586.171875 370.402344 580.484375 377.636719 578.460938 385.742188 C 578.460938 385.933594 578.167969 385.835938 578.269531 385.640625 C 580.097656 377.445312 583.570312 370.789062 590.03125 365.292969 C 595.722656 360.375 604.203125 355.167969 611.917969 354.777344 C 612.789062 354.683594 613.171875 356.132812 612.304688 356.613281 " fill-opacity="1" fill-rule="nonzero"/></g></svg>