<svg xmlns="http://www.w3.org/2000/svg" xmlns:xlink="http://www.w3.org/1999/xlink" width="851" zoomAndPan="magnify" viewBox="0 0 638.25 236.249991" height="315" preserveAspectRatio="xMidYMid meet" version="1.2"><defs><clipPath id="5e1091961b"><path d="M 0.636719 0 L 636.867188 0 L 636.867188 190 L 0.636719 190 Z M 0.636719 0 "/></clipPath></defs><g id="8355aae284"><path style=" stroke:none;fill-rule:nonzero;fill:#f5f5f5;fill-opacity:1;" d="M 618.089844 211.882812 C 614.628906 208.886719 611.121094 206.03125 607.410156 203.390625 C 606.945312 203.0625 606.421875 202.875 605.925781 202.875 C 605.488281 202.875 605.070312 203.023438 604.738281 203.335938 C 602.394531 202.9375 600.054688 202.535156 597.714844 202.148438 C 597.140625 201.195312 596.339844 200.722656 595.5625 200.722656 C 594.953125 200.722656 594.363281 201.007812 593.90625 201.570312 C 593.046875 204.085938 591.546875 205.339844 589.417969 205.339844 C 588.839844 205.339844 588.21875 205.246094 587.542969 205.0625 C 587.042969 204.75 586.550781 204.589844 586.097656 204.589844 C 585.488281 204.589844 584.949219 204.875 584.519531 205.460938 C 583.890625 206.1875 583.21875 206.863281 582.503906 207.488281 C 581.933594 206.566406 581.320312 205.644531 580.601562 204.316406 C 580.164062 203.5 579.21875 202.824219 578.359375 202.824219 C 578.085938 202.824219 577.820312 202.894531 577.578125 203.046875 C 575.253906 204.550781 572.621094 205.082031 569.847656 205.082031 C 565.359375 205.082031 560.507812 203.6875 555.972656 202.757812 C 555.777344 202.570312 555.585938 202.386719 555.382812 202.191406 C 554.832031 201.644531 554.191406 201.351562 553.578125 201.332031 C 553.335938 200.691406 553.039062 199.921875 552.636719 198.78125 C 552.195312 197.53125 551.140625 196.8125 550.171875 196.8125 C 549.40625 196.8125 548.691406 197.261719 548.367188 198.242188 C 548.160156 198.882812 547.949219 199.515625 547.738281 200.15625 L 547.640625 200.046875 C 547.21875 199.433594 546.554688 199.167969 545.914062 199.167969 C 545.390625 199.167969 544.871094 199.351562 544.507812 199.664062 C 542.847656 199.308594 541.183594 198.945312 539.523438 198.597656 C 538.578125 197.25 537.316406 196.242188 535.582031 196.035156 C 535.109375 195.980469 534.652344 195.953125 534.199219 195.953125 C 533.0625 195.953125 531.96875 196.113281 530.832031 196.335938 C 530.566406 196.386719 530.304688 196.410156 530.050781 196.410156 C 529.21875 196.410156 528.421875 196.179688 527.621094 195.949219 C 526.824219 195.722656 526.023438 195.492188 525.191406 195.492188 C 524.945312 195.492188 524.699219 195.511719 524.449219 195.554688 C 523.253906 195.769531 522.253906 196.835938 521.613281 197.820312 C 521.238281 198.386719 520.898438 198.800781 520.570312 199.136719 C 517.890625 197.328125 515.253906 195.511719 512.789062 195.511719 C 512.007812 195.511719 511.238281 195.691406 510.492188 196.125 C 508.691406 193.464844 506.660156 192.464844 504.53125 192.464844 C 502.515625 192.464844 500.417969 193.363281 498.339844 194.589844 C 498.195312 194.546875 498.054688 194.503906 497.890625 194.484375 C 497.8125 194.476562 497.734375 194.472656 497.65625 194.472656 C 496.890625 194.472656 496.371094 194.855469 496.070312 195.40625 C 495.972656 195.535156 495.910156 195.703125 495.84375 195.859375 C 493.558594 193.464844 491.769531 191.015625 489.699219 188.125 C 488.847656 188.402344 487.871094 188.5625 486.910156 188.5625 C 485.832031 188.5625 484.769531 188.355469 483.933594 187.875 C 483.378906 188.082031 482.78125 188.164062 482.15625 188.164062 C 479.710938 188.164062 476.828125 186.902344 474.296875 186.8125 C 474.285156 186.8125 474.277344 186.8125 474.265625 186.8125 C 473.582031 186.8125 471.757812 187.585938 470.578125 187.625 C 470.550781 187.628906 470.519531 187.628906 470.492188 187.628906 C 469.210938 187.628906 467.765625 186.578125 466.390625 186.488281 C 466.238281 186.609375 465.914062 187.101562 465.785156 187.230469 C 464.601562 186.160156 464.015625 184.632812 462.96875 183.347656 C 462.5 183.503906 462.0625 183.636719 461.636719 183.753906 L 461.398438 183.820312 C 460.59375 184.023438 459.832031 184.136719 459.097656 184.136719 C 459.011719 184.136719 458.925781 184.136719 458.84375 184.132812 L 458.800781 184.132812 C 457.910156 184.09375 457.050781 183.867188 456.167969 183.375 C 455.65625 184.734375 452.648438 185.601562 449.964844 185.902344 L 449.925781 185.90625 C 449.261719 185.980469 448.621094 186.019531 448.046875 186.019531 C 446.605469 186.019531 445.554688 185.789062 445.539062 185.292969 C 445.550781 185.824219 445.324219 186.484375 445.371094 187.007812 C 441.605469 188.023438 445.0625 190.710938 441.167969 191.375 C 441.050781 191.394531 440.929688 191.40625 440.804688 191.40625 C 439.707031 191.40625 438.382812 190.664062 437.136719 189.914062 C 435.886719 189.171875 434.726562 188.429688 433.957031 188.429688 C 433.394531 188.429688 433.042969 188.824219 433.023438 189.910156 C 433.011719 190.617188 432.945312 191.246094 432.855469 191.832031 C 431.050781 191.488281 429.285156 190.777344 427.417969 189.410156 C 427.027344 189.128906 426.625 189.003906 426.242188 189.003906 C 425.328125 189.003906 424.5 189.699219 424.152344 190.621094 C 424.15625 190.613281 424.15625 190.601562 424.148438 190.601562 C 424.023438 190.601562 422.898438 191.523438 421.433594 192.640625 C 421.292969 192.308594 421.128906 191.996094 420.992188 191.652344 C 420.671875 190.847656 419.757812 190.378906 418.921875 190.378906 C 418.566406 190.378906 418.222656 190.464844 417.953125 190.648438 C 417.996094 190.621094 414.59375 188.125 412.613281 187.089844 C 412.378906 186.964844 412.160156 186.867188 411.972656 186.789062 L 411.90625 186.761719 C 411.722656 186.695312 411.570312 186.652344 411.457031 186.640625 C 411.414062 186.640625 411.371094 186.640625 411.324219 186.640625 C 411.054688 186.640625 410.792969 186.664062 410.542969 186.691406 C 410.296875 186.71875 410.0625 186.761719 409.824219 186.816406 C 407.445312 187.378906 405.632812 189.34375 404.171875 191.4375 C 403.367188 190.652344 402.558594 189.859375 401.753906 189.078125 C 401.449219 188.71875 401.113281 188.527344 400.773438 188.414062 C 400.523438 187.609375 400.28125 186.792969 400.101562 185.941406 C 399.882812 184.925781 398.917969 184.171875 397.957031 184.132812 C 397.777344 184.128906 397.589844 184.117188 397.40625 184.109375 C 397.382812 184.109375 397.359375 184.109375 397.339844 184.109375 C 396.433594 184.109375 395.425781 184.761719 395.257812 185.746094 C 395.117188 186.601562 394.792969 187.347656 394.421875 188.070312 C 393.332031 187.398438 392.289062 187.109375 391.277344 187.109375 C 389.078125 187.109375 387.03125 188.480469 384.976562 190.144531 C 383.929688 190.25 382.894531 190.347656 381.847656 190.460938 C 378.199219 190.875 374.574219 191.511719 370.957031 192.160156 C 370.613281 191.945312 370.265625 191.660156 369.921875 191.238281 C 368.871094 189.941406 367.488281 189.453125 365.964844 189.453125 C 362.71875 189.453125 358.851562 191.664062 356.324219 192.875 C 354.703125 193.253906 352.925781 193.632812 351.285156 194.257812 C 350.832031 194.320312 350.375 194.394531 349.917969 194.453125 C 348.113281 193.394531 346.625 191.832031 344.621094 191.007812 C 344.082031 190.78125 343.59375 190.6875 343.136719 190.6875 C 341.8125 190.6875 340.757812 191.484375 339.648438 192.273438 C 338.53125 193.066406 337.359375 193.859375 335.792969 193.859375 C 334.894531 193.859375 333.859375 193.597656 332.632812 192.917969 C 331.324219 192.191406 329.746094 191.875 328.210938 191.875 C 327.453125 191.875 326.710938 191.949219 326.015625 192.097656 C 325.496094 192.203125 324.972656 192.25 324.449219 192.328125 C 320.457031 189.507812 315.375 187.195312 310.871094 187.195312 C 308.285156 187.195312 305.894531 187.957031 304.007812 189.816406 C 302.988281 189.449219 301.917969 189.285156 300.8125 189.285156 C 298.976562 189.285156 297.0625 189.742188 295.1875 190.53125 C 291.25 190.539062 287.355469 190.941406 283.382812 191.601562 C 281.878906 191.851562 280.519531 191.960938 279.277344 191.960938 C 273.453125 191.960938 269.941406 189.644531 264 189.164062 C 262.300781 189.023438 260.59375 188.960938 258.890625 188.960938 C 255.933594 188.960938 252.96875 189.152344 250.023438 189.511719 C 247.488281 189.820312 242.742188 193.242188 239.472656 193.242188 C 238.574219 193.242188 237.785156 192.988281 237.1875 192.328125 C 236.8125 191.917969 236.289062 191.722656 235.757812 191.722656 C 235.320312 191.722656 234.875 191.851562 234.492188 192.09375 L 234.351562 192.160156 L 234.179688 192.148438 C 232.734375 192.222656 232.136719 192.628906 231.707031 193.03125 C 230.785156 193.175781 229.796875 193.230469 228.800781 193.230469 C 226.871094 193.230469 224.921875 193.03125 223.390625 192.929688 C 223.34375 192.925781 223.296875 192.925781 223.253906 192.925781 C 222.535156 192.925781 222.011719 193.28125 221.679688 193.808594 C 219.769531 194.648438 216.101562 195.746094 217.292969 196.523438 C 217.007812 196.335938 216.683594 196.253906 216.347656 196.253906 C 215.707031 196.253906 215.039062 196.558594 214.601562 197.042969 C 214.464844 197.203125 214.351562 197.320312 214.226562 197.457031 C 212.8125 196.96875 211.347656 196.636719 209.851562 196.570312 C 209.8125 196.570312 209.773438 196.566406 209.734375 196.566406 C 208.761719 196.566406 207.140625 197.019531 205.457031 197.472656 C 203.769531 197.925781 202.019531 198.371094 200.78125 198.371094 C 200.183594 198.371094 199.707031 198.269531 199.414062 198.011719 C 199.019531 197.660156 198.445312 197.414062 197.871094 197.414062 C 197.464844 197.414062 197.058594 197.535156 196.71875 197.832031 C 195.410156 198.953125 193.910156 199.53125 192.402344 199.53125 C 190.25 199.53125 188.082031 198.351562 186.4375 195.898438 C 186.015625 195.265625 185.304688 194.886719 184.582031 194.886719 C 184 194.886719 183.40625 195.132812 182.953125 195.6875 C 181.449219 197.535156 180.914062 198.128906 180.191406 198.128906 C 179.621094 198.128906 178.9375 197.765625 177.566406 197.347656 C 177.402344 197.300781 177.230469 197.273438 177.042969 197.273438 C 176.207031 197.273438 175.203125 197.761719 174.195312 198.25 C 173.1875 198.730469 172.171875 199.21875 171.300781 199.21875 C 170.710938 199.21875 170.195312 198.992188 169.792969 198.390625 C 169.355469 197.730469 168.746094 197.417969 168.101562 197.417969 C 167.496094 197.417969 166.859375 197.691406 166.304688 198.214844 C 164.742188 198.980469 163.386719 199.363281 162.238281 199.363281 C 160.25 199.363281 158.882812 198.210938 158.140625 195.898438 C 157.769531 195.273438 157.039062 194.90625 156.300781 194.90625 C 155.691406 194.90625 155.078125 195.160156 154.660156 195.742188 C 152.042969 199.398438 150.195312 200.726562 148.71875 200.726562 C 145.050781 200.726562 143.691406 192.511719 138.5625 191.457031 C 138.191406 191.386719 137.835938 191.347656 137.488281 191.347656 C 133.617188 191.347656 131.03125 195.746094 127.726562 198.335938 C 127.429688 198.566406 127.144531 198.761719 126.855469 198.984375 C 123.058594 199.65625 119.105469 200.445312 115.414062 201.492188 C 114.425781 201.773438 113.242188 202.265625 111.964844 202.820312 C 111.53125 202.679688 111.113281 202.578125 110.664062 202.394531 C 108.96875 201.691406 106.488281 200.597656 104.519531 200.597656 C 104.449219 200.597656 104.382812 200.597656 104.3125 200.605469 C 101.289062 200.730469 98.984375 201.808594 96.863281 203.433594 C 96.273438 202.726562 95.636719 202.035156 94.785156 201.511719 C 94.246094 201.183594 91.859375 200.894531 91.058594 200.617188 C 89.839844 200.195312 90.515625 198.476562 89.535156 198.476562 C 89.210938 198.476562 88.703125 198.660156 87.882812 199.148438 C 87.300781 197.984375 85.984375 197.378906 85.191406 196.714844 C 85.109375 197 85.035156 197.28125 84.976562 197.566406 C 84.144531 196.941406 82.160156 196.722656 81.347656 196.242188 C 80.980469 196.792969 80.109375 197.492188 79.792969 197.976562 C 78.117188 197.214844 74.730469 194.820312 71.882812 194.820312 C 70.855469 194.820312 69.902344 195.132812 69.125 195.949219 C 68.933594 195.652344 68.613281 195.441406 68.292969 195.210938 L 68.289062 195.210938 L 67.988281 194.941406 L 67.773438 194.742188 C 67.632812 194.570312 67.511719 194.363281 67.4375 194.109375 C 66.957031 194.175781 66.484375 194.316406 66.019531 194.476562 C 65.828125 194.546875 65.644531 194.628906 65.457031 194.714844 C 65.207031 194.820312 64.953125 194.933594 64.710938 195.066406 C 64.460938 195.199219 64.214844 195.34375 63.972656 195.496094 C 63.832031 195.582031 63.6875 195.675781 63.550781 195.777344 C 63.253906 195.980469 62.957031 196.183594 62.675781 196.414062 C 62.367188 196.65625 62.054688 196.902344 61.769531 197.160156 C 61.570312 195.589844 60.71875 194.859375 59.820312 194.859375 C 58.664062 194.859375 57.414062 196.066406 57.335938 198.230469 C 56.46875 197.160156 55.363281 196.785156 54.101562 196.785156 C 51.726562 196.785156 48.78125 198.117188 45.816406 198.738281 C 45.773438 198.210938 45.660156 197.625 45.660156 197.082031 C 42.96875 197.671875 41.402344 200.359375 40.835938 202.671875 C 40.132812 200.402344 37.300781 200.589844 35.746094 199.535156 C 35.679688 199.828125 35.609375 200.113281 35.554688 200.40625 C 34.675781 200.171875 33.535156 200.0625 32.296875 200.0625 C 29.816406 200.0625 26.945312 200.511719 25.03125 201.304688 C 23.605469 201.898438 22.335938 203.464844 21.042969 204.835938 C 21.046875 202.339844 21.046875 199.835938 21.050781 197.335938 C 21.109375 135.488281 21.179688 73.644531 21.238281 11.800781 C 120.65625 -4.71875 220.960938 -12.976562 321.304688 -12.976562 C 422.882812 -12.976562 524.503906 -4.507812 625.140625 12.421875 C 625.074219 76.75 625.007812 141.078125 624.945312 205.40625 C 624.570312 205.464844 624.226562 205.550781 623.894531 205.671875 L 623.828125 205.707031 C 623.523438 205.820312 623.230469 205.960938 622.957031 206.132812 C 621.34375 207.132812 620.308594 209.027344 619.554688 211.511719 C 619.460938 211.503906 619.363281 211.492188 619.269531 211.492188 C 618.84375 211.492188 618.433594 211.625 618.089844 211.882812 "/><g clip-rule="nonzero" clip-path="url(#5e1091961b)"><path style=" stroke:none;fill-rule:nonzero;fill:#ffffff;fill-opacity:1;" d="M -2.488281 -21.0625 L -2.699219 174.652344 C -1.308594 173.484375 0.0585938 172.105469 1.59375 171.742188 C 4.695312 171.011719 10.078125 171.425781 12.929688 172.558594 C 12.988281 172.273438 13.058594 171.988281 13.136719 171.710938 C 14.808594 173.027344 17.851562 173.28125 18.609375 175.695312 C 19.21875 173.441406 20.90625 170.964844 23.800781 170.789062 C 23.800781 171.339844 23.921875 171.945312 23.96875 172.496094 C 28.859375 172.230469 33.691406 170.25 36.355469 173.726562 C 36.507812 169.839844 40.628906 169.589844 41.125 173.296875 C 42.847656 172.0625 44.953125 171.027344 47.222656 171.027344 C 47.492188 172.066406 48.59375 172.417969 49.03125 173.125 C 52.191406 170.441406 58.039062 175.3125 60.492188 176.671875 C 60.832031 176.222656 61.765625 175.632812 62.164062 175.121094 C 63.027344 175.722656 65.15625 176.207031 66.054688 176.949219 C 66.121094 176.671875 66.199219 176.390625 66.289062 176.113281 C 67.132812 176.890625 68.554688 177.683594 69.175781 178.941406 C 72.710938 177.378906 70.839844 180.0625 72.582031 180.84375 C 73.441406 181.226562 76.003906 181.832031 76.585938 182.226562 C 77.5 182.863281 78.183594 183.652344 78.816406 184.441406 C 81.085938 183.066406 83.5625 182.253906 86.800781 182.496094 C 88.945312 182.652344 91.738281 184.132812 93.621094 185.078125 C 94.101562 185.316406 94.550781 185.46875 95.011719 185.664062 C 96.378906 185.25 97.65625 184.890625 98.714844 184.71875 C 102.667969 184.078125 106.902344 183.730469 110.976562 183.464844 C 111.285156 183.273438 111.589844 183.101562 111.90625 182.898438 C 115.769531 180.429688 118.703125 175.6875 123.515625 177.074219 C 131.210938 179.300781 130.984375 195.0625 140.753906 182.996094 C 141.742188 181.777344 143.753906 182.273438 144.480469 183.480469 C 145.734375 187.289062 148.652344 188.316406 153.21875 186.5625 C 154.445312 185.570312 156.039062 185.671875 156.949219 187.039062 C 158.777344 189.792969 162.917969 185.773438 165.261719 186.628906 C 168.597656 187.839844 168.148438 188.507812 171.027344 185.371094 C 172.117188 184.1875 173.941406 184.632812 174.757812 185.855469 C 177.746094 190.304688 182.359375 191.113281 185.75 188.5625 C 186.625 187.910156 187.902344 188.277344 188.632812 188.9375 C 190.277344 190.425781 197.3125 187.925781 199.789062 188.164062 C 201.386719 188.320312 202.949219 188.75 204.46875 189.328125 C 204.59375 189.203125 204.71875 189.085938 204.859375 188.9375 C 205.578125 188.21875 206.863281 187.972656 207.738281 188.5625 C 206.46875 187.707031 210.386719 186.816406 212.425781 186.070312 C 212.804688 185.523438 213.414062 185.175781 214.257812 185.273438 C 216.734375 185.558594 220.265625 186.121094 223.140625 185.816406 C 223.597656 185.429688 224.238281 185.042969 225.78125 185.042969 L 225.960938 185.066406 L 226.121094 185.003906 C 227.023438 184.5 228.265625 184.582031 228.996094 185.371094 C 231.957031 188.59375 239.257812 183.355469 242.707031 183.085938 C 247.675781 182.699219 252.679688 182.710938 257.636719 183.242188 C 265.339844 184.0625 269.203125 187.5 278.328125 186.246094 C 282.570312 185.664062 286.726562 185.332031 290.933594 185.378906 C 294.128906 184.148438 297.457031 183.757812 300.339844 184.773438 C 305.875 179.664062 315.453125 182.921875 322.167969 187.417969 C 322.726562 187.339844 323.285156 187.289062 323.839844 187.179688 C 326.09375 186.734375 328.816406 186.910156 330.902344 187.992188 C 337.539062 191.445312 338.855469 184.097656 343.699219 185.949219 C 345.835938 186.769531 347.425781 188.328125 349.351562 189.378906 C 349.839844 189.308594 350.324219 189.230469 350.816406 189.152344 C 352.5625 188.496094 354.460938 188.078125 356.191406 187.664062 C 360.152344 185.800781 367.195312 181.671875 370.710938 185.703125 C 371.078125 186.125 371.449219 186.40625 371.816406 186.617188 C 375.675781 185.863281 379.546875 185.105469 383.445312 184.574219 C 384.558594 184.421875 385.671875 184.28125 386.785156 184.148438 C 389.988281 181.570312 393.152344 179.644531 396.875 181.695312 C 397.265625 180.941406 397.613281 180.171875 397.765625 179.300781 C 397.949219 178.273438 399.074219 177.554688 400.058594 177.554688 L 400.648438 177.554688 C 401.667969 177.554688 402.707031 178.273438 402.9375 179.300781 C 403.132812 180.15625 403.390625 180.972656 403.65625 181.777344 C 404.019531 181.882812 404.375 182.058594 404.703125 182.40625 C 405.5625 183.167969 406.421875 183.929688 407.285156 184.695312 C 409.183594 182.027344 411.625 179.488281 415.066406 179.488281 C 416.34375 179.488281 422.0625 183.183594 422.003906 183.222656 C 422.984375 182.554688 424.773438 182.945312 425.253906 184.074219 C 425.402344 184.414062 425.574219 184.722656 425.726562 185.046875 C 427.425781 183.734375 428.707031 182.671875 428.636719 182.859375 C 429.164062 181.496094 430.722656 180.542969 432.121094 181.4375 C 434.113281 182.71875 436 183.332031 437.929688 183.574219 C 438.027344 182.972656 438.097656 182.332031 438.109375 181.617188 C 438.195312 177.332031 443.65625 183.292969 446.816406 182.585938 C 450.980469 181.648438 447.285156 179.15625 451.3125 177.878906 C 451.257812 177.347656 451.503906 176.664062 451.488281 176.125 C 451.53125 177.652344 461.828125 176.058594 462.855469 173.429688 C 465.132812 174.476562 467.304688 173.996094 470.128906 172.878906 C 471.246094 174.109375 471.878906 175.601562 473.140625 176.597656 C 473.277344 176.453125 473.621094 175.9375 473.789062 175.800781 C 475.292969 175.78125 476.878906 176.769531 478.269531 176.609375 C 479.546875 176.472656 481.535156 175.507812 482.242188 175.480469 C 485.648438 175.324219 489.636719 176.984375 492.554688 175.722656 C 494.246094 176.503906 496.800781 176.210938 498.730469 175.449219 C 500.945312 178.1875 502.859375 180.5 505.308594 182.707031 C 505.378906 182.539062 505.441406 182.375 505.550781 182.230469 C 505.90625 181.589844 506.539062 181.113281 507.496094 181.113281 C 507.667969 181.113281 507.820312 181.148438 507.972656 181.179688 C 512.554688 178.195312 517.242188 176.628906 520.992188 181.507812 C 524.296875 179.382812 528.003906 181.457031 531.789062 183.484375 C 532.144531 183.105469 532.507812 182.644531 532.90625 182.027344 C 533.59375 180.960938 534.671875 179.773438 535.953125 179.417969 C 538.332031 178.765625 540.414062 180.175781 542.789062 179.480469 C 544.488281 178.984375 546.105469 178.617188 547.882812 178.621094 C 549.742188 178.625 551.101562 179.5 552.109375 180.746094 C 553.894531 180.902344 555.679688 181.058594 557.460938 181.21875 C 558.324219 180.410156 559.992188 180.183594 560.816406 181.21875 L 560.925781 181.316406 C 561.152344 180.640625 561.378906 179.96875 561.597656 179.300781 C 562.378906 176.953125 565.332031 177.136719 566.175781 179.300781 C 566.613281 180.40625 566.933594 181.152344 567.195312 181.761719 C 567.847656 181.710938 568.535156 181.925781 569.132812 182.40625 C 569.347656 182.578125 569.554688 182.738281 569.761719 182.902344 C 577.625 183.472656 586.414062 185.113281 592.960938 180.253906 C 594.023438 179.46875 595.585938 180.101562 596.210938 181.105469 C 596.984375 182.347656 597.636719 183.195312 598.257812 184.050781 C 599.019531 183.3125 599.746094 182.53125 600.425781 181.699219 C 601.226562 180.550781 602.410156 180.289062 603.667969 180.847656 C 607.050781 181.257812 609.332031 179.761719 610.511719 176.355469 C 611.632812 174.894531 613.511719 174.792969 614.613281 176.355469 C 617.132812 176.394531 619.648438 176.433594 622.164062 176.472656 C 622.933594 175.675781 624.097656 175.609375 625.042969 176.097656 C 629.039062 178.183594 632.816406 180.515625 636.542969 182.972656 C 636.992188 182.589844 637.542969 182.378906 638.121094 182.359375 C 639.222656 178.753906 640.878906 176.171875 643.921875 175.257812 L 644.132812 -20.464844 L -2.488281 -21.0625 "/></g></g></svg>