<svg xmlns="http://www.w3.org/2000/svg" xmlns:xlink="http://www.w3.org/1999/xlink" width="851" zoomAndPan="magnify" viewBox="0 0 638.25 236.249991" height="315" preserveAspectRatio="xMidYMid meet" version="1.2"><defs><clipPath id="f374c734c7"><path d="M 530 76 L 627 76 L 627 162.027344 L 530 162.027344 Z M 530 76 "/></clipPath></defs><g id="481bb599ab"><g style="fill:#202d45;fill-opacity:1;"><g transform="translate(4.553233, 187.526684)"><path style="stroke:none" d="M 271.699219 -126.335938 C 272.324219 -124.773438 272.34375 -123.199219 271.761719 -121.609375 C 271.3125 -120.375 270.5 -119.222656 269.324219 -118.152344 C 267.765625 -116.726562 265.390625 -115.058594 262.199219 -113.144531 L 262.0625 -113.0625 L 261.921875 -112.992188 C 260.4375 -112.25 258.980469 -112.117188 257.550781 -112.59375 C 256.125 -113.070312 255.039062 -114.050781 254.296875 -115.535156 L 257.960938 -117.367188 L 254.847656 -114.699219 C 253.675781 -116.066406 253.214844 -117.5625 253.464844 -119.1875 C 253.695312 -120.675781 254.492188 -121.929688 255.855469 -122.953125 L 256.089844 -123.125 L 256.339844 -123.265625 C 258.5625 -124.488281 260.023438 -125.347656 260.722656 -125.847656 C 261.015625 -126.058594 261.242188 -126.230469 261.398438 -126.371094 C 261.433594 -126.402344 261.457031 -126.421875 261.460938 -126.429688 C 261.410156 -126.371094 261.351562 -126.296875 261.289062 -126.203125 L 264.699219 -123.929688 L 262.425781 -120.515625 C 262.492188 -120.472656 262.550781 -120.4375 262.601562 -120.414062 L 262.59375 -120.414062 C 262.480469 -120.457031 262.324219 -120.5 262.117188 -120.550781 C 261.542969 -120.683594 260.773438 -120.796875 259.804688 -120.890625 C 257.65625 -121.097656 254.71875 -121.1875 250.992188 -121.15625 C 243.304688 -121.097656 232.933594 -120.746094 219.871094 -120.097656 C 206.773438 -119.449219 191.371094 -118.535156 173.664062 -117.355469 L 173.394531 -121.445312 L 176.222656 -118.480469 L 137.042969 -81.070312 L 134.210938 -84.039062 L 133.679688 -88.101562 C 139.21875 -88.824219 144.761719 -89.335938 150.300781 -89.636719 C 155.925781 -89.945312 160.933594 -89.910156 165.316406 -89.539062 C 170.339844 -89.117188 174.0625 -87.933594 176.484375 -85.996094 L 176.53125 -85.960938 L 176.574219 -85.925781 C 177.84375 -84.851562 178.757812 -83.652344 179.304688 -82.335938 C 179.9375 -80.816406 180.066406 -79.242188 179.691406 -77.621094 L 175.699219 -78.542969 L 179.796875 -78.542969 C 179.796875 -76.839844 179.207031 -75.464844 178.023438 -74.414062 C 176.980469 -73.484375 175.671875 -73.023438 174.101562 -73.023438 C 172.53125 -73.023438 171.222656 -73.484375 170.183594 -74.414062 C 169 -75.464844 168.40625 -76.839844 168.40625 -78.542969 L 168.40625 -79.332031 L 168.699219 -80.0625 C 168.445312 -79.429688 168.433594 -78.769531 168.660156 -78.085938 C 168.828125 -77.585938 169.078125 -77.203125 169.414062 -76.933594 L 169.300781 -77.027344 L 169.195312 -77.125 C 168.910156 -77.382812 168.34375 -77.632812 167.488281 -77.871094 C 166.285156 -78.203125 164.722656 -78.421875 162.804688 -78.523438 C 158.554688 -78.75 153.628906 -78.636719 148.019531 -78.179688 C 142.308594 -77.710938 136.601562 -77.070312 130.890625 -76.253906 L 130.3125 -80.3125 L 133.132812 -77.339844 L 126.042969 -70.605469 L 123.21875 -73.578125 L 127.058594 -72.136719 C 125.824219 -68.851562 123.164062 -64.808594 119.070312 -60.011719 C 115.203125 -55.480469 110.503906 -50.539062 104.972656 -45.1875 C 99.496094 -39.890625 93.664062 -34.476562 87.480469 -28.945312 C 81.300781 -23.421875 75.269531 -18.191406 69.386719 -13.257812 L 53.777344 -0.222656 C 49.195312 3.585938 45.769531 6.386719 43.496094 8.183594 L 43.164062 8.441406 L 42.789062 8.632812 C 41.738281 9.15625 40.773438 9.417969 39.890625 9.417969 C 38.285156 9.417969 36.90625 8.839844 35.75 7.6875 L 35.28125 7.214844 L 34.984375 6.621094 C 34.40625 5.46875 34.164062 4.324219 34.25 3.1875 C 34.359375 1.792969 34.917969 0.59375 35.929688 -0.417969 L 35.960938 -0.449219 L 117.730469 -78.492188 L 120.558594 -75.527344 L 116.460938 -75.527344 L 116.460938 -76.058594 L 120.558594 -76.058594 L 116.699219 -74.679688 L 115.8125 -77.164062 L 119.671875 -78.542969 L 120.320312 -74.492188 C 117.445312 -74.03125 114.832031 -73.542969 112.484375 -73.03125 C 109.941406 -72.472656 107.660156 -72.066406 105.644531 -71.8125 L 105.136719 -75.882812 L 106.261719 -71.941406 C 104.824219 -71.527344 103.484375 -71.636719 102.238281 -72.257812 C 101.046875 -72.855469 100.164062 -73.820312 99.59375 -75.152344 L 103.363281 -76.769531 L 100.027344 -74.386719 C 99.140625 -75.625 98.757812 -76.910156 98.878906 -78.246094 C 99.027344 -79.875 99.824219 -81.167969 101.265625 -82.128906 L 101.476562 -82.269531 L 101.707031 -82.386719 C 102.027344 -82.546875 102.914062 -83.109375 104.367188 -84.078125 C 106.257812 -85.339844 108.496094 -86.414062 111.078125 -87.296875 C 114.222656 -88.371094 117.246094 -88.398438 120.152344 -87.371094 L 118.785156 -83.503906 L 119.78125 -87.484375 C 120.859375 -87.214844 121.816406 -86.730469 122.652344 -86.035156 C 122.761719 -85.941406 122.914062 -85.847656 123.101562 -85.753906 L 121.269531 -82.085938 L 120.59375 -86.132812 L 128.042969 -87.371094 L 128.714844 -83.328125 L 125.882812 -86.292969 L 165.417969 -124.054688 L 168.25 -121.089844 L 168.574219 -117.003906 C 164.058594 -116.648438 159.398438 -116.320312 154.585938 -116.023438 C 149.8125 -115.730469 144.949219 -115.40625 140 -115.050781 L 138.132812 -114.917969 L 136.632812 -116.417969 L 139.53125 -119.320312 L 139.53125 -115.21875 C 137.960938 -115.21875 136.652344 -115.683594 135.609375 -116.609375 C 134.425781 -117.660156 133.835938 -119.035156 133.835938 -120.738281 L 137.933594 -120.738281 L 133.957031 -119.742188 C 133.464844 -121.714844 133.941406 -123.429688 135.390625 -124.878906 C 136.546875 -126.03125 137.925781 -126.609375 139.53125 -126.609375 L 139.53125 -122.511719 L 139.210938 -126.597656 C 151.304688 -127.546875 162.21875 -128.257812 171.953125 -128.734375 L 172.152344 -124.636719 L 169.308594 -127.589844 L 179.058594 -136.984375 C 180.15625 -138.085938 181.421875 -138.6875 182.851562 -138.789062 C 184.386719 -138.898438 185.785156 -138.410156 187.054688 -137.324219 L 187.484375 -136.957031 L 187.796875 -136.484375 C 188.390625 -135.59375 188.757812 -134.59375 188.898438 -133.480469 C 189.015625 -132.523438 188.898438 -131.621094 188.546875 -130.773438 C 188.15625 -129.832031 187.527344 -129.074219 186.660156 -128.496094 L 184.386719 -131.90625 L 187.210938 -128.9375 L 179.941406 -122.019531 L 177.117188 -124.992188 L 176.84375 -129.082031 C 192.824219 -130.148438 206.203125 -130.949219 216.980469 -131.480469 C 227.769531 -132.015625 236.488281 -132.371094 243.136719 -132.546875 C 249.910156 -132.730469 255.085938 -132.664062 258.667969 -132.355469 C 262.488281 -132.027344 265.265625 -131.523438 266.992188 -130.847656 C 269.664062 -129.804688 271.289062 -128.125 271.867188 -125.808594 L 267.890625 -124.816406 Z M 264.085938 -123.292969 L 263.980469 -123.550781 L 263.914062 -123.820312 C 263.992188 -123.503906 264.132812 -123.253906 264.328125 -123.070312 L 264.332031 -123.0625 C 264.25 -123.109375 264.140625 -123.160156 264.003906 -123.210938 C 263.011719 -123.601562 261 -123.925781 257.964844 -124.1875 C 254.691406 -124.46875 249.820312 -124.523438 243.355469 -124.351562 C 236.769531 -124.175781 228.113281 -123.820312 217.386719 -123.289062 C 206.65625 -122.761719 193.320312 -121.964844 177.390625 -120.902344 L 166.074219 -120.148438 L 181.816406 -135.121094 L 182.109375 -135.316406 C 181.601562 -134.976562 181.222656 -134.511719 180.976562 -133.925781 C 180.773438 -133.433594 180.699219 -132.945312 180.761719 -132.460938 C 180.78125 -132.292969 180.851562 -132.121094 180.972656 -131.9375 L 184.386719 -134.210938 L 181.71875 -131.097656 C 182.15625 -130.722656 182.730469 -130.558594 183.4375 -130.609375 C 184.039062 -130.652344 184.476562 -130.808594 184.75 -131.082031 L 173.890625 -120.617188 L 172.351562 -120.542969 C 162.699219 -120.070312 151.867188 -119.363281 139.851562 -118.421875 L 139.691406 -118.410156 L 139.53125 -118.410156 C 140.191406 -118.410156 140.742188 -118.632812 141.1875 -119.078125 C 141.929688 -119.820312 142.167969 -120.703125 141.910156 -121.730469 L 142.035156 -121.242188 L 142.035156 -120.738281 C 142.035156 -121.492188 141.707031 -122.160156 141.058594 -122.738281 C 140.546875 -123.191406 140.039062 -123.417969 139.53125 -123.417969 L 141.226562 -123.417969 L 142.605469 -122.039062 L 139.707031 -119.140625 L 139.414062 -123.230469 C 144.394531 -123.585938 149.28125 -123.914062 154.082031 -124.207031 C 158.84375 -124.503906 163.460938 -124.824219 167.929688 -125.179688 L 179.417969 -126.085938 L 130.632812 -79.492188 L 120.628906 -77.824219 L 119.433594 -78.417969 C 118.679688 -78.796875 118 -79.238281 117.402344 -79.734375 C 117.527344 -79.628906 117.660156 -79.5625 117.792969 -79.527344 L 117.605469 -79.574219 L 117.421875 -79.640625 C 116.308594 -80.03125 115.078125 -80 113.730469 -79.539062 C 111.820312 -78.882812 110.214844 -78.125 108.917969 -77.257812 C 107.179688 -76.097656 105.996094 -75.363281 105.371094 -75.050781 L 103.539062 -78.71875 L 105.8125 -75.308594 C 106.546875 -75.796875 106.957031 -76.527344 107.046875 -77.503906 C 107.109375 -78.191406 106.992188 -78.738281 106.699219 -79.152344 L 106.957031 -78.789062 L 107.128906 -78.382812 C 106.914062 -78.890625 106.503906 -79.292969 105.90625 -79.59375 C 105.25 -79.921875 104.617188 -79.996094 104.007812 -79.824219 L 104.3125 -79.910156 L 104.625 -79.949219 C 106.394531 -80.171875 108.425781 -80.535156 110.726562 -81.039062 C 113.226562 -81.585938 115.992188 -82.105469 119.027344 -82.589844 L 122.390625 -83.128906 L 124.660156 -76.769531 L 124.660156 -73.773438 L 41.65625 5.449219 L 38.828125 2.480469 L 41.726562 5.382812 C 42.144531 4.960938 42.378906 4.441406 42.425781 3.816406 C 42.457031 3.445312 42.417969 3.15625 42.316406 2.953125 L 38.648438 4.785156 L 41.550781 1.886719 C 41.101562 1.441406 40.550781 1.21875 39.890625 1.21875 C 39.566406 1.21875 39.28125 1.257812 39.039062 1.339844 C 39.019531 1.347656 39.007812 1.351562 39.007812 1.351562 C 39.035156 1.339844 39.074219 1.320312 39.121094 1.296875 L 40.953125 4.964844 L 38.414062 1.746094 C 40.632812 -0.00390625 44 -2.757812 48.519531 -6.515625 L 64.117188 -19.542969 C 69.933594 -24.417969 75.898438 -29.589844 82.011719 -35.058594 C 88.121094 -40.519531 93.871094 -45.859375 99.269531 -51.082031 C 104.613281 -56.25 109.132812 -61 112.832031 -65.335938 C 116.300781 -69.402344 118.484375 -72.628906 119.378906 -75.015625 L 119.710938 -75.898438 L 128.4375 -84.1875 L 129.730469 -84.371094 C 135.605469 -85.210938 141.476562 -85.871094 147.351562 -86.351562 C 153.328125 -86.839844 158.625 -86.960938 163.238281 -86.714844 C 168.65625 -86.425781 172.496094 -85.234375 174.753906 -83.148438 L 171.976562 -80.136719 L 174.535156 -83.339844 C 175.460938 -82.597656 176.097656 -81.710938 176.441406 -80.679688 C 176.847656 -79.464844 176.804688 -78.242188 176.3125 -77.019531 L 172.507812 -78.542969 L 176.605469 -78.542969 C 176.605469 -79.296875 176.28125 -79.960938 175.628906 -80.542969 C 175.117188 -80.996094 174.609375 -81.222656 174.101562 -81.222656 C 173.59375 -81.222656 173.085938 -80.996094 172.574219 -80.542969 C 171.921875 -79.960938 171.597656 -79.296875 171.597656 -78.542969 L 171.597656 -79.007812 L 171.703125 -79.464844 C 171.683594 -79.375 171.695312 -79.28125 171.734375 -79.179688 C 171.695312 -79.28125 171.542969 -79.441406 171.277344 -79.667969 L 173.925781 -82.796875 L 171.363281 -79.59375 C 170.238281 -80.492188 167.996094 -81.085938 164.625 -81.371094 C 160.621094 -81.707031 155.992188 -81.734375 150.746094 -81.449219 C 145.410156 -81.160156 140.078125 -80.667969 134.742188 -79.972656 L 122.320312 -78.351562 L 171.636719 -125.4375 L 173.121094 -125.535156 C 190.875 -126.71875 206.320312 -127.636719 219.464844 -128.289062 C 232.640625 -128.941406 243.128906 -129.296875 250.929688 -129.359375 C 254.941406 -129.386719 258.164062 -129.285156 260.59375 -129.050781 C 263.566406 -128.761719 265.695312 -128.191406 266.972656 -127.339844 L 270.386719 -125.066406 L 268.109375 -121.652344 C 267.597656 -120.882812 266.722656 -120.054688 265.488281 -119.171875 C 264.527344 -118.488281 262.796875 -117.457031 260.292969 -116.082031 L 258.316406 -119.671875 L 260.777344 -116.394531 C 261.195312 -116.707031 261.460938 -117.222656 261.570312 -117.941406 C 261.703125 -118.796875 261.539062 -119.496094 261.074219 -120.035156 L 261.402344 -119.652344 L 261.628906 -119.203125 C 261.359375 -119.742188 260.863281 -120.132812 260.144531 -120.371094 C 259.425781 -120.609375 258.796875 -120.597656 258.257812 -120.328125 L 260.089844 -116.660156 L 257.980469 -120.175781 C 260.699219 -121.808594 262.640625 -123.152344 263.796875 -124.207031 C 263.9375 -124.335938 264.039062 -124.445312 264.105469 -124.535156 L 264.113281 -124.542969 C 264.097656 -124.511719 264.078125 -124.472656 264.0625 -124.429688 C 263.925781 -124.050781 263.933594 -123.671875 264.085938 -123.292969 Z M 120.726562 -81.300781 L 121.96875 -82.363281 L 124.636719 -79.25 L 125.089844 -75.175781 L 123.496094 -75 L 123.042969 -79.074219 L 126.847656 -80.59375 L 127.203125 -79.710938 L 123.394531 -78.1875 Z M 121.714844 -71.347656 L 117.234375 -82.554688 L 137.40625 -84.792969 L 126.066406 -75.074219 Z M 76.40625 -34.671875 C 82.96875 -40.296875 88.96875 -45.710938 94.410156 -50.921875 C 99.839844 -56.117188 104.355469 -60.6875 107.957031 -64.636719 L 110.984375 -61.875 L 113.808594 -58.902344 L 81.898438 -28.585938 L 79.074219 -31.558594 Z M 81.742188 -28.445312 L 76.25 -34.53125 L 108.160156 -64.847656 L 114.015625 -59.113281 C 110.289062 -55.027344 105.644531 -50.320312 100.082031 -44.996094 C 94.53125 -39.683594 88.417969 -34.167969 81.742188 -28.445312 Z M 81.742188 -28.445312 "/></g></g><g style="fill:#202d45;fill-opacity:1;"><g transform="translate(139.990759, 187.526684)"><path style="stroke:none" d=""/></g></g><g style="fill:#202d45;fill-opacity:1;"><g transform="translate(228.627893, 187.526684)"><path style="stroke:none" d="M 47.828125 -30.636719 C 48.757812 -29.523438 49.222656 -28.261719 49.222656 -26.859375 C 49.222656 -25.664062 48.867188 -24.496094 48.15625 -23.355469 L 47.90625 -22.960938 L 47.578125 -22.632812 C 46.304688 -21.359375 44.863281 -20.722656 43.257812 -20.722656 C 41.890625 -20.722656 40.6875 -21.238281 39.652344 -22.277344 L 42.550781 -25.175781 L 41.253906 -21.285156 C 39.910156 -21.734375 38.917969 -22.515625 38.28125 -23.628906 C 37.507812 -24.980469 37.425781 -26.417969 38.035156 -27.9375 L 41.839844 -26.417969 L 40.226562 -22.648438 C 39.835938 -22.816406 38.902344 -22.945312 37.425781 -23.035156 C 35.558594 -23.148438 33.308594 -23.203125 30.671875 -23.203125 L 30.671875 -27.304688 L 33.757812 -24.601562 C 32.136719 -22.75 30.570312 -20.898438 29.066406 -19.042969 C 27.75 -17.425781 26.871094 -16.125 26.425781 -15.144531 L 26.328125 -14.933594 L 26.210938 -14.734375 C 25.058594 -12.816406 23.414062 -11.855469 21.273438 -11.855469 C 20.511719 -11.855469 19.78125 -12.03125 19.085938 -12.378906 C 19.546875 -12.148438 20.039062 -12.035156 20.566406 -12.035156 L 19.597656 -12.035156 L 18.734375 -12.464844 C 17.183594 -13.242188 16.1875 -14.414062 15.738281 -15.984375 C 15.273438 -17.613281 15.507812 -19.128906 16.445312 -20.535156 L 19.855469 -18.261719 L 16.273438 -20.253906 C 16.949219 -21.472656 17.933594 -22.953125 19.222656 -24.691406 C 20.460938 -26.363281 21.824219 -28.066406 23.304688 -29.792969 L 26.417969 -27.125 L 26.417969 -23.027344 C 23.011719 -23.027344 19.664062 -22.855469 16.378906 -22.515625 L 16.167969 -22.492188 L 15.957031 -22.492188 C 14.433594 -22.492188 13.136719 -22.976562 12.0625 -23.945312 C 11.117188 -24.796875 10.488281 -25.914062 10.179688 -27.300781 L 10.082031 -27.738281 L 10.082031 -28.191406 C 10.082031 -29.855469 10.617188 -31.21875 11.683594 -32.285156 C 12.75 -33.351562 14.113281 -33.886719 15.777344 -33.886719 L 15.777344 -29.785156 L 15.351562 -33.863281 C 17.703125 -34.109375 20.054688 -34.265625 22.410156 -34.328125 C 24.617188 -34.386719 26.828125 -34.472656 29.039062 -34.589844 L 29.253906 -30.496094 L 26.199219 -33.226562 C 28.242188 -35.511719 30.109375 -37.53125 31.800781 -39.28125 L 34.59375 -42.171875 L 34.742188 -42.292969 C 35.921875 -43.308594 37.210938 -43.8125 38.605469 -43.8125 C 40.121094 -43.8125 41.457031 -43.234375 42.613281 -42.082031 C 43.769531 -40.925781 44.34375 -39.605469 44.34375 -38.117188 C 44.34375 -36.632812 43.769531 -35.308594 42.613281 -34.15625 L 39.714844 -37.054688 L 42.691406 -34.238281 L 36.488281 -27.675781 L 33.507812 -30.496094 L 33.671875 -34.589844 C 36.8125 -34.464844 39.476562 -34.210938 41.667969 -33.824219 C 44.9375 -33.246094 47.128906 -31.988281 48.238281 -30.046875 L 44.679688 -28.011719 Z M 41.527344 -25.386719 L 41.296875 -25.664062 L 41.117188 -25.976562 C 41.246094 -25.753906 41.394531 -25.570312 41.566406 -25.429688 C 41.601562 -25.398438 41.632812 -25.375 41.664062 -25.359375 C 41.660156 -25.359375 41.648438 -25.367188 41.628906 -25.375 C 41.34375 -25.511719 40.882812 -25.636719 40.242188 -25.746094 C 38.414062 -26.070312 36.117188 -26.285156 33.34375 -26.398438 L 24.332031 -26.757812 L 36.773438 -39.914062 L 36.816406 -39.953125 C 36.367188 -39.507812 36.144531 -38.894531 36.144531 -38.117188 C 36.144531 -37.339844 36.367188 -36.730469 36.816406 -36.28125 C 37.261719 -35.835938 37.859375 -35.613281 38.605469 -35.613281 C 39.234375 -35.613281 39.722656 -35.765625 40.078125 -36.070312 L 37.410156 -39.183594 L 40.355469 -36.332031 L 37.699219 -33.585938 C 36.082031 -31.910156 34.285156 -29.96875 32.308594 -27.761719 L 31.171875 -26.488281 L 29.46875 -26.398438 C 27.1875 -26.28125 24.90625 -26.191406 22.625 -26.128906 C 20.484375 -26.074219 18.347656 -25.933594 16.207031 -25.707031 L 15.996094 -25.683594 L 15.777344 -25.683594 C 16.378906 -25.683594 16.945312 -25.953125 17.480469 -26.488281 C 18.015625 -27.023438 18.285156 -27.589844 18.285156 -28.191406 L 14.183594 -28.191406 L 18.1875 -29.078125 C 18.113281 -29.402344 17.902344 -29.722656 17.546875 -30.039062 C 17.0625 -30.476562 16.53125 -30.695312 15.957031 -30.695312 L 15.957031 -26.59375 L 15.535156 -30.671875 C 19.101562 -31.042969 22.730469 -31.226562 26.417969 -31.226562 L 35.332031 -31.226562 L 29.53125 -24.457031 C 28.175781 -22.875 26.933594 -21.328125 25.8125 -19.808594 C 24.734375 -18.359375 23.945312 -17.179688 23.441406 -16.269531 L 23.359375 -16.125 L 23.269531 -15.988281 C 23.734375 -16.683594 23.851562 -17.433594 23.621094 -18.234375 C 23.410156 -18.976562 23.003906 -19.5 22.398438 -19.800781 L 20.566406 -16.132812 L 20.566406 -20.234375 C 21.328125 -20.234375 22.058594 -20.058594 22.753906 -19.710938 C 22.296875 -19.941406 21.800781 -20.054688 21.273438 -20.054688 C 20.785156 -20.054688 20.328125 -19.921875 19.898438 -19.65625 C 19.578125 -19.453125 19.339844 -19.21875 19.179688 -18.953125 L 22.695312 -16.84375 L 18.960938 -18.539062 C 19.699219 -20.160156 20.945312 -22.050781 22.703125 -24.214844 C 24.269531 -26.144531 25.898438 -28.074219 27.585938 -30.003906 L 28.8125 -31.402344 L 30.671875 -31.402344 C 33.472656 -31.402344 35.890625 -31.339844 37.921875 -31.21875 C 40.347656 -31.070312 42.191406 -30.726562 43.457031 -30.183594 L 47.132812 -28.609375 L 45.648438 -24.894531 C 46.019531 -25.824219 45.9375 -26.757812 45.402344 -27.699219 C 45 -28.398438 44.484375 -28.851562 43.847656 -29.066406 L 44.765625 -28.757812 L 45.449219 -28.074219 C 44.886719 -28.640625 44.15625 -28.921875 43.257812 -28.921875 C 42.601562 -28.921875 42.105469 -28.757812 41.777344 -28.429688 L 44.679688 -25.53125 L 41.203125 -27.703125 C 41.082031 -27.511719 41.019531 -27.230469 41.019531 -26.859375 C 41.019531 -26.285156 41.191406 -25.792969 41.527344 -25.386719 Z M 41.527344 -25.386719 "/></g></g><g style="fill:#202d45;fill-opacity:1;"><g transform="translate(287.837492, 187.526684)"><path style="stroke:none" d="M 33.6875 21.652344 C 30.511719 21.652344 27.785156 20.777344 25.511719 19.027344 L 28.011719 15.777344 L 25.738281 19.191406 C 24.78125 18.550781 23.960938 17.550781 23.28125 16.195312 C 22.574219 14.777344 22.316406 13.085938 22.515625 11.117188 L 22.523438 11.03125 L 22.535156 10.945312 C 22.980469 7.839844 24.675781 4.105469 27.632812 -0.257812 C 30.441406 -4.410156 34.324219 -8.585938 39.277344 -12.789062 C 44.246094 -17.003906 50.101562 -20.605469 56.839844 -23.601562 C 62.488281 -26.125 68.90625 -28.675781 76.09375 -31.25 C 83.460938 -33.890625 90.832031 -35.703125 98.210938 -36.6875 L 98.753906 -32.621094 L 95.980469 -35.644531 C 100.304688 -39.605469 104.597656 -43.296875 108.863281 -46.722656 C 112.910156 -49.972656 116.878906 -53.65625 120.769531 -57.777344 L 123.75 -54.960938 L 119.8125 -53.820312 C 118.441406 -58.566406 117.386719 -64.996094 116.652344 -73.121094 C 115.90625 -81.417969 116.820312 -91.101562 119.402344 -102.167969 C 121.289062 -109.84375 124.097656 -116.617188 127.824219 -122.488281 C 131.539062 -128.347656 135.691406 -133.1875 140.273438 -137.007812 C 144.957031 -140.90625 149.511719 -143.53125 153.941406 -144.871094 C 161.164062 -146.980469 167 -145.886719 171.453125 -141.59375 C 173.542969 -139.503906 175.15625 -136.332031 176.289062 -132.078125 C 177.425781 -127.820312 176.953125 -121.851562 174.867188 -114.167969 C 173.585938 -109.296875 170.796875 -103.410156 166.503906 -96.5 C 162.339844 -89.804688 157.164062 -82.578125 150.976562 -74.832031 C 144.820312 -67.121094 137.984375 -59.265625 130.460938 -51.265625 L 127.472656 -54.074219 L 131.300781 -55.546875 C 131.886719 -54.027344 132.351562 -52.832031 132.699219 -51.960938 L 133.230469 -50.632812 L 129.425781 -49.109375 L 133.007812 -51.101562 C 133.8125 -49.652344 134.054688 -48.222656 133.730469 -46.8125 C 133.351562 -45.175781 132.351562 -43.949219 130.726562 -43.136719 L 130.574219 -43.0625 L 130.414062 -43 C 128.929688 -42.402344 127.53125 -42.308594 126.222656 -42.710938 C 124.554688 -43.222656 123.398438 -44.34375 122.75 -46.074219 L 126.585938 -47.515625 L 122.921875 -45.679688 C 122.761719 -45.996094 122.195312 -47.320312 121.214844 -49.648438 L 124.992188 -51.238281 L 127.941406 -48.390625 C 124.484375 -44.8125 120.960938 -41.65625 117.363281 -38.929688 C 114.066406 -36.429688 110.703125 -33.519531 107.277344 -30.207031 L 104.425781 -33.152344 L 103.964844 -37.226562 C 110.398438 -37.957031 116.445312 -38.289062 122.109375 -38.230469 C 127.839844 -38.167969 132.765625 -37.761719 136.894531 -37.011719 C 141.515625 -36.171875 144.871094 -34.863281 146.964844 -33.09375 C 148.363281 -31.910156 149.277344 -30.570312 149.714844 -29.070312 C 150.207031 -27.378906 150.0625 -25.6875 149.28125 -23.988281 C 148.660156 -22.597656 147.738281 -21.59375 146.503906 -20.976562 C 145.085938 -20.265625 143.578125 -20.210938 141.992188 -20.804688 L 141.789062 -20.878906 L 141.597656 -20.976562 C 139.878906 -21.835938 138.875 -23.128906 138.589844 -24.855469 C 138.492188 -25.433594 138.445312 -26.074219 138.445312 -26.769531 C 138.445312 -26.179688 138.554688 -25.71875 138.777344 -25.382812 C 138.847656 -25.273438 138.914062 -25.195312 138.976562 -25.152344 C 138.832031 -25.25 138.605469 -25.355469 138.289062 -25.472656 C 137.335938 -25.824219 135.980469 -26.113281 134.21875 -26.339844 C 130.296875 -26.84375 125.460938 -27.011719 119.707031 -26.839844 C 113.863281 -26.667969 107.636719 -26.171875 101.023438 -25.363281 L 100.527344 -29.429688 L 103.328125 -26.4375 C 95.84375 -19.429688 88.449219 -12.75 81.144531 -6.390625 C 73.769531 0.0234375 66.832031 5.519531 60.335938 10.089844 C 53.640625 14.800781 47.75 18.046875 42.664062 19.828125 C 39.417969 21.042969 36.425781 21.652344 33.6875 21.652344 Z M 33.6875 13.453125 C 35.4375 13.453125 37.527344 12.996094 39.953125 12.085938 C 44.324219 10.558594 49.542969 7.65625 55.617188 3.382812 C 61.882812 -1.027344 68.597656 -6.347656 75.761719 -12.578125 C 82.992188 -18.867188 90.3125 -25.484375 97.722656 -32.421875 L 98.699219 -33.335938 L 100.027344 -33.5 C 106.886719 -34.34375 113.367188 -34.855469 119.460938 -35.035156 C 125.648438 -35.21875 130.914062 -35.03125 135.265625 -34.472656 C 137.640625 -34.167969 139.59375 -33.730469 141.125 -33.167969 C 143.234375 -32.390625 144.722656 -31.3125 145.601562 -29.933594 C 146.296875 -28.890625 146.644531 -27.835938 146.644531 -26.769531 C 146.644531 -26.523438 146.65625 -26.335938 146.675781 -26.203125 C 146.574219 -26.8125 146.324219 -27.339844 145.925781 -27.785156 C 145.710938 -28.023438 145.492188 -28.199219 145.265625 -28.3125 L 143.429688 -24.644531 L 144.871094 -28.484375 C 144.226562 -28.722656 143.550781 -28.667969 142.839844 -28.3125 C 142.316406 -28.050781 141.980469 -27.753906 141.835938 -27.425781 C 141.761719 -27.265625 141.765625 -27.046875 141.84375 -26.777344 C 141.871094 -26.683594 141.898438 -26.613281 141.925781 -26.574219 C 141.882812 -26.640625 141.792969 -26.726562 141.667969 -26.832031 C 140.691406 -27.660156 138.609375 -28.363281 135.429688 -28.941406 C 131.753906 -29.609375 127.285156 -29.972656 122.023438 -30.03125 C 116.695312 -30.085938 110.984375 -29.769531 104.886719 -29.078125 L 92.910156 -27.722656 L 101.578125 -36.101562 C 105.238281 -39.644531 108.851562 -42.761719 112.410156 -45.460938 C 115.667969 -47.933594 118.878906 -50.808594 122.042969 -54.085938 L 126.359375 -58.554688 L 128.769531 -52.828125 C 129.683594 -50.664062 130.175781 -49.503906 130.253906 -49.347656 L 130.351562 -49.15625 L 130.425781 -48.953125 C 130.132812 -49.738281 129.535156 -50.269531 128.636719 -50.546875 C 128.097656 -50.710938 127.675781 -50.734375 127.371094 -50.613281 L 128.890625 -46.804688 L 127.058594 -50.472656 C 126.378906 -50.132812 125.941406 -49.527344 125.738281 -48.660156 C 125.59375 -48.019531 125.625 -47.503906 125.839844 -47.121094 L 125.714844 -47.347656 L 125.085938 -48.917969 C 124.722656 -49.820312 124.246094 -51.050781 123.648438 -52.601562 L 122.722656 -55.007812 L 124.488281 -56.882812 C 131.859375 -64.722656 138.550781 -72.410156 144.570312 -79.945312 C 150.558594 -87.445312 155.546875 -94.40625 159.539062 -100.828125 C 163.398438 -107.039062 165.871094 -112.199219 166.953125 -116.3125 C 168.652344 -122.578125 169.125 -127.128906 168.367188 -129.964844 C 167.613281 -132.800781 166.742188 -134.710938 165.761719 -135.691406 C 163.59375 -137.785156 160.445312 -138.226562 156.320312 -137.023438 C 152.953125 -136.003906 149.351562 -133.898438 145.523438 -130.707031 C 141.597656 -127.433594 138.003906 -123.230469 134.746094 -118.097656 C 131.5 -112.980469 129.046875 -107.046875 127.390625 -100.304688 C 125.007812 -90.09375 124.152344 -81.277344 124.820312 -73.855469 C 125.503906 -66.257812 126.460938 -60.339844 127.6875 -56.101562 L 128.339844 -53.851562 L 126.730469 -52.144531 C 122.582031 -47.753906 118.339844 -43.816406 113.996094 -40.328125 C 109.871094 -37.015625 105.710938 -33.441406 101.523438 -29.601562 L 100.574219 -28.726562 L 99.292969 -28.558594 C 92.492188 -27.652344 85.679688 -25.976562 78.859375 -23.53125 C 71.867188 -21.027344 65.636719 -18.550781 60.171875 -16.109375 C 54.148438 -13.433594 48.953125 -10.242188 44.582031 -6.535156 C 40.199219 -2.816406 36.8125 0.804688 34.421875 4.335938 C 32.175781 7.65625 30.917969 10.246094 30.652344 12.105469 L 26.59375 11.523438 L 30.671875 11.933594 C 30.644531 12.21875 30.640625 12.445312 30.664062 12.609375 C 30.664062 12.636719 30.667969 12.652344 30.667969 12.660156 C 30.660156 12.621094 30.640625 12.578125 30.617188 12.527344 C 30.683594 12.660156 30.730469 12.75 30.761719 12.789062 C 30.65625 12.648438 30.5 12.507812 30.285156 12.367188 L 30.402344 12.445312 L 30.511719 12.53125 C 31.3125 13.144531 32.371094 13.453125 33.6875 13.453125 Z M 123.398438 -60.578125 C 130.425781 -68.191406 136.835938 -75.597656 142.628906 -82.796875 C 148.375 -89.933594 153.125 -96.53125 156.875 -102.59375 C 160.492188 -108.4375 162.78125 -113.28125 163.742188 -117.121094 C 164.9375 -121.679688 165.429688 -125.417969 165.226562 -128.339844 C 165.0625 -130.6875 164.453125 -132.390625 163.402344 -133.441406 C 162.785156 -134.058594 161.800781 -134.367188 160.449219 -134.367188 C 159.96875 -134.367188 159.484375 -134.324219 158.996094 -134.246094 C 158.441406 -134.152344 157.824219 -134.007812 157.144531 -133.816406 C 154.042969 -132.914062 150.730469 -130.992188 147.210938 -128.050781 C 143.59375 -125.027344 140.308594 -121.109375 137.351562 -116.289062 C 134.382812 -111.449219 132.121094 -105.871094 130.570312 -99.546875 C 128.421875 -90.511719 127.574219 -82.5625 128.019531 -75.703125 C 128.476562 -68.699219 129.261719 -63.078125 130.375 -58.839844 L 126.410156 -57.796875 Z M 129.421875 -55.015625 L 124.347656 -49.519531 L 122.445312 -56.753906 C 121.195312 -61.5 120.328125 -67.640625 119.835938 -75.171875 C 119.335938 -82.851562 120.261719 -91.628906 122.605469 -101.503906 C 124.363281 -108.65625 126.949219 -115.011719 130.363281 -120.578125 C 133.789062 -126.15625 137.652344 -130.746094 141.953125 -134.34375 C 146.351562 -138.019531 150.667969 -140.472656 154.890625 -141.699219 C 155.867188 -141.976562 156.789062 -142.191406 157.648438 -142.332031 C 158.582031 -142.488281 159.515625 -142.566406 160.449219 -142.566406 C 164.066406 -142.566406 166.980469 -141.457031 169.199219 -139.238281 C 173.855469 -134.582031 174.6875 -126.546875 171.699219 -115.132812 C 170.53125 -110.464844 167.914062 -104.847656 163.847656 -98.277344 C 159.917969 -91.929688 154.972656 -85.054688 149.019531 -77.65625 C 143.109375 -70.3125 136.578125 -62.765625 129.421875 -55.015625 Z M 32.699219 10.09375 C 32.675781 10.074219 32.65625 10.0625 32.640625 10.054688 C 32.671875 10.070312 32.714844 10.082031 32.773438 10.097656 C 33.039062 10.164062 33.398438 10.191406 33.851562 10.175781 C 35.140625 10.128906 36.839844 9.753906 38.949219 9.054688 C 42.933594 7.761719 47.644531 5.144531 53.085938 1.199219 C 58.78125 -2.925781 64.921875 -7.84375 71.511719 -13.558594 C 78.160156 -19.324219 84.960938 -25.386719 91.90625 -31.746094 L 94.675781 -28.722656 L 95.296875 -24.667969 C 89.457031 -23.769531 83.695312 -22.195312 78.011719 -19.945312 C 72.09375 -17.601562 66.617188 -15.316406 61.582031 -13.09375 C 55.683594 -10.535156 50.707031 -7.5 46.652344 -3.992188 C 42.550781 -0.445312 39.417969 2.921875 37.257812 6.113281 C 35.265625 9.046875 34.191406 11.1875 34.035156 12.535156 L 34.015625 12.699219 L 33.984375 12.859375 C 34.015625 12.695312 34.015625 12.484375 33.976562 12.230469 C 33.878906 11.535156 33.566406 10.925781 33.039062 10.398438 L 30.140625 13.296875 Z M 27.578125 16.5 L 27.402344 16.355469 L 27.242188 16.195312 C 25.96875 14.925781 25.539062 13.277344 25.941406 11.25 L 29.960938 12.054688 L 25.890625 11.578125 C 26.207031 8.90625 27.730469 5.550781 30.46875 1.511719 C 33.035156 -2.273438 36.640625 -6.175781 41.285156 -10.191406 C 45.976562 -14.25 51.636719 -17.714844 58.269531 -20.59375 C 63.398438 -22.859375 68.972656 -25.1875 74.992188 -27.570312 C 81.246094 -30.046875 87.601562 -31.78125 94.050781 -32.773438 L 107.421875 -34.832031 L 97.441406 -25.695312 C 90.441406 -19.289062 83.589844 -13.179688 76.882812 -7.363281 C 70.113281 -1.492188 63.785156 3.574219 57.898438 7.839844 C 51.757812 12.289062 46.304688 15.289062 41.542969 16.832031 C 35.167969 18.957031 30.511719 18.847656 27.578125 16.5 Z M 27.578125 16.5 "/></g></g><g style="fill:#202d45;fill-opacity:1;"><g transform="translate(432.156174, 187.526684)"><path style="stroke:none" d=""/></g></g><g style="fill:#202d45;fill-opacity:1;"><g transform="translate(4.553233, 187.526684)"><path style="stroke:none" d="M 267.890625 -124.8125 C 268.367188 -123.632812 267.925781 -122.425781 266.5625 -121.1875 C 265.207031 -119.945312 263.050781 -118.4375 260.09375 -116.65625 C 259.144531 -116.1875 258.4375 -116.425781 257.96875 -117.375 C 257.257812 -118.195312 257.378906 -118.960938 258.328125 -119.671875 C 260.691406 -120.972656 262.285156 -121.921875 263.109375 -122.515625 C 263.929688 -123.109375 264.460938 -123.582031 264.703125 -123.9375 C 263.285156 -124.875 258.703125 -125.3125 250.953125 -125.25 C 243.210938 -125.195312 232.78125 -124.84375 219.65625 -124.1875 C 206.539062 -123.539062 191.117188 -122.628906 173.390625 -121.453125 L 134.21875 -84.03125 C 139.65625 -84.75 145.09375 -85.253906 150.53125 -85.546875 C 155.96875 -85.835938 160.78125 -85.804688 164.96875 -85.453125 C 169.164062 -85.097656 172.148438 -84.210938 173.921875 -82.796875 C 175.460938 -81.492188 176.054688 -80.078125 175.703125 -78.546875 C 175.703125 -77.597656 175.171875 -77.125 174.109375 -77.125 C 173.046875 -77.125 172.515625 -77.597656 172.515625 -78.546875 C 172.742188 -79.128906 172.566406 -79.660156 171.984375 -80.140625 C 170.441406 -81.554688 167.453125 -82.378906 163.015625 -82.609375 C 158.585938 -82.847656 153.476562 -82.734375 147.6875 -82.265625 C 141.894531 -81.796875 136.101562 -81.144531 130.3125 -80.3125 L 123.21875 -73.578125 C 122.15625 -70.742188 119.734375 -67.109375 115.953125 -62.671875 C 112.171875 -58.242188 107.5625 -53.398438 102.125 -48.140625 C 96.6875 -42.878906 90.894531 -37.5 84.75 -32 C 78.601562 -26.5 72.601562 -21.296875 66.75 -16.390625 C 60.894531 -11.492188 55.691406 -7.148438 51.140625 -3.359375 C 46.597656 0.421875 43.203125 3.195312 40.953125 4.96875 C 40.484375 5.195312 40.128906 5.3125 39.890625 5.3125 C 39.421875 5.3125 39.007812 5.132812 38.65625 4.78125 C 38.175781 3.84375 38.234375 3.078125 38.828125 2.484375 L 120.5625 -75.53125 L 120.5625 -76.0625 L 119.671875 -78.546875 C 116.722656 -78.066406 114.035156 -77.5625 111.609375 -77.03125 C 109.179688 -76.5 107.023438 -76.117188 105.140625 -75.890625 C 104.304688 -75.648438 103.710938 -75.941406 103.359375 -76.765625 C 102.773438 -77.597656 102.835938 -78.25 103.546875 -78.71875 C 104.015625 -78.957031 105.046875 -79.609375 106.640625 -80.671875 C 108.234375 -81.734375 110.15625 -82.648438 112.40625 -83.421875 C 114.65625 -84.191406 116.78125 -84.21875 118.78125 -83.5 C 119.257812 -83.382812 119.675781 -83.175781 120.03125 -82.875 C 120.382812 -82.582031 120.796875 -82.320312 121.265625 -82.09375 L 128.71875 -83.328125 L 168.25 -121.09375 C 163.757812 -120.738281 159.117188 -120.410156 154.328125 -120.109375 C 149.546875 -119.816406 144.671875 -119.492188 139.703125 -119.140625 L 139.53125 -119.328125 C 138.46875 -119.328125 137.9375 -119.796875 137.9375 -120.734375 C 137.820312 -121.210938 137.941406 -121.628906 138.296875 -121.984375 C 138.648438 -122.335938 139.0625 -122.515625 139.53125 -122.515625 C 151.582031 -123.460938 162.457031 -124.171875 172.15625 -124.640625 L 181.90625 -134.03125 C 182.726562 -134.863281 183.554688 -134.925781 184.390625 -134.21875 C 184.628906 -133.863281 184.773438 -133.445312 184.828125 -132.96875 C 184.890625 -132.5 184.742188 -132.144531 184.390625 -131.90625 L 177.125 -125 C 193.070312 -126.0625 206.425781 -126.859375 217.1875 -127.390625 C 227.945312 -127.921875 236.632812 -128.273438 243.25 -128.453125 C 249.875 -128.628906 254.898438 -128.566406 258.328125 -128.265625 C 261.753906 -127.972656 264.144531 -127.5625 265.5 -127.03125 C 266.863281 -126.5 267.660156 -125.757812 267.890625 -124.8125 Z M 123.40625 -78.1875 L 124.640625 -79.25 L 123.046875 -79.078125 Z M 79.078125 -31.5625 C 85.691406 -37.226562 91.742188 -42.691406 97.234375 -47.953125 C 102.734375 -53.210938 107.316406 -57.851562 110.984375 -61.875 Z M 79.078125 -31.5625 "/></g></g><g style="fill:#202d45;fill-opacity:1;"><g transform="translate(139.990759, 187.526684)"><path style="stroke:none" d=""/></g></g><g style="fill:#202d45;fill-opacity:1;"><g transform="translate(228.627893, 187.526684)"><path style="stroke:none" d="M 44.671875 -28.015625 C 45.265625 -27.304688 45.265625 -26.476562 44.671875 -25.53125 C 44.203125 -25.0625 43.734375 -24.828125 43.265625 -24.828125 C 43.023438 -24.828125 42.785156 -24.941406 42.546875 -25.171875 C 41.835938 -25.410156 41.601562 -25.828125 41.84375 -26.421875 C 41.007812 -26.773438 39.617188 -27.007812 37.671875 -27.125 C 35.722656 -27.238281 33.390625 -27.296875 30.671875 -27.296875 C 29.015625 -25.410156 27.414062 -23.519531 25.875 -21.625 C 24.34375 -19.738281 23.28125 -18.144531 22.6875 -16.84375 C 22.332031 -16.25 21.863281 -15.953125 21.28125 -15.953125 C 21.15625 -15.953125 21.035156 -15.984375 20.921875 -16.046875 C 20.804688 -16.109375 20.6875 -16.140625 20.5625 -16.140625 C 20.09375 -16.367188 19.796875 -16.691406 19.671875 -17.109375 C 19.554688 -17.523438 19.617188 -17.910156 19.859375 -18.265625 C 20.453125 -19.328125 21.335938 -20.65625 22.515625 -22.25 C 23.703125 -23.84375 25.003906 -25.46875 26.421875 -27.125 C 22.867188 -27.125 19.378906 -26.945312 15.953125 -26.59375 C 15.003906 -26.59375 14.414062 -27.125 14.1875 -28.1875 C 14.1875 -29.25 14.71875 -29.78125 15.78125 -29.78125 C 18.019531 -30.019531 20.265625 -30.164062 22.515625 -30.21875 C 24.765625 -30.28125 27.007812 -30.375 29.25 -30.5 C 31.257812 -32.738281 33.09375 -34.710938 34.75 -36.421875 C 36.40625 -38.140625 37.289062 -39.0625 37.40625 -39.1875 C 38.238281 -39.894531 39.007812 -39.894531 39.71875 -39.1875 C 40.425781 -38.476562 40.425781 -37.769531 39.71875 -37.0625 L 33.515625 -30.5 C 36.460938 -30.375 38.941406 -30.132812 40.953125 -29.78125 C 42.960938 -29.425781 44.203125 -28.835938 44.671875 -28.015625 Z M 44.671875 -28.015625 "/></g></g><g style="fill:#202d45;fill-opacity:1;"><g transform="translate(287.837492, 187.526684)"><path style="stroke:none" d="M 33.6875 17.546875 C 31.4375 17.546875 29.546875 16.957031 28.015625 15.78125 C 27.660156 15.539062 27.304688 15.066406 26.953125 14.359375 C 26.597656 13.648438 26.476562 12.707031 26.59375 11.53125 C 26.945312 9.039062 28.421875 5.875 31.015625 2.03125 C 33.617188 -1.800781 37.253906 -5.695312 41.921875 -9.65625 C 46.597656 -13.625 52.128906 -17.023438 58.515625 -19.859375 C 64.066406 -22.335938 70.382812 -24.847656 77.46875 -27.390625 C 84.5625 -29.929688 91.65625 -31.675781 98.75 -32.625 C 103.007812 -36.519531 107.234375 -40.148438 111.421875 -43.515625 C 115.617188 -46.890625 119.726562 -50.707031 123.75 -54.96875 C 122.445312 -59.457031 121.441406 -65.628906 120.734375 -73.484375 C 120.023438 -81.347656 120.914062 -90.597656 123.40625 -101.234375 C 125.175781 -108.441406 127.800781 -114.796875 131.28125 -120.296875 C 134.769531 -125.796875 138.640625 -130.316406 142.890625 -133.859375 C 147.148438 -137.398438 151.234375 -139.765625 155.140625 -140.953125 C 160.804688 -142.609375 165.296875 -141.835938 168.609375 -138.640625 C 170.148438 -137.109375 171.390625 -134.566406 172.328125 -131.015625 C 173.273438 -127.472656 172.804688 -122.21875 170.921875 -115.25 C 169.734375 -110.75 167.097656 -105.21875 163.015625 -98.65625 C 158.941406 -92.101562 153.859375 -85.015625 147.765625 -77.390625 C 141.679688 -69.765625 134.914062 -61.992188 127.46875 -54.078125 C 128.0625 -52.535156 128.535156 -51.320312 128.890625 -50.4375 C 129.242188 -49.550781 129.421875 -49.109375 129.421875 -49.109375 C 130.015625 -48.046875 129.835938 -47.28125 128.890625 -46.8125 C 127.710938 -46.332031 126.945312 -46.566406 126.59375 -47.515625 C 126.46875 -47.753906 125.9375 -48.992188 125 -51.234375 C 121.6875 -47.804688 118.316406 -44.789062 114.890625 -42.1875 C 111.460938 -39.59375 107.972656 -36.582031 104.421875 -33.15625 C 110.691406 -33.863281 116.570312 -34.1875 122.0625 -34.125 C 127.5625 -34.070312 132.257812 -33.6875 136.15625 -32.96875 C 140.0625 -32.257812 142.78125 -31.257812 144.3125 -29.96875 C 145.851562 -28.664062 146.269531 -27.242188 145.5625 -25.703125 C 145.082031 -24.640625 144.375 -24.285156 143.4375 -24.640625 C 142.957031 -24.878906 142.6875 -25.175781 142.625 -25.53125 C 142.570312 -25.882812 142.546875 -26.296875 142.546875 -26.765625 C 142.546875 -27.003906 142.425781 -27.300781 142.1875 -27.65625 C 141.363281 -28.957031 138.882812 -29.875 134.75 -30.40625 C 130.613281 -30.9375 125.5625 -31.113281 119.59375 -30.9375 C 113.625 -30.757812 107.269531 -30.257812 100.53125 -29.4375 C 93.082031 -22.457031 85.722656 -15.804688 78.453125 -9.484375 C 71.179688 -3.160156 64.351562 2.242188 57.96875 6.734375 C 51.59375 11.222656 46.039062 14.296875 41.3125 15.953125 C 38.476562 17.015625 35.9375 17.546875 33.6875 17.546875 Z M 126.40625 -57.796875 C 133.5 -65.484375 139.972656 -72.957031 145.828125 -80.21875 C 151.679688 -87.488281 156.523438 -94.226562 160.359375 -100.4375 C 164.203125 -106.644531 166.65625 -111.875 167.71875 -116.125 C 170.320312 -126.050781 169.847656 -132.789062 166.296875 -136.34375 C 164.878906 -137.757812 162.929688 -138.46875 160.453125 -138.46875 C 159.742188 -138.46875 159.035156 -138.40625 158.328125 -138.28125 C 157.617188 -138.164062 156.847656 -137.992188 156.015625 -137.765625 C 152.359375 -136.691406 148.546875 -134.5 144.578125 -131.1875 C 140.617188 -127.882812 137.046875 -123.632812 133.859375 -118.4375 C 130.671875 -113.238281 128.25 -107.269531 126.59375 -100.53125 C 124.34375 -91.070312 123.453125 -82.707031 123.921875 -75.4375 C 124.398438 -68.164062 125.226562 -62.285156 126.40625 -57.796875 Z M 30.140625 13.296875 C 31.910156 14.710938 35.28125 14.59375 40.25 12.9375 C 44.625 11.519531 49.707031 8.710938 55.5 4.515625 C 61.289062 0.328125 67.523438 -4.660156 74.203125 -10.453125 C 80.878906 -16.242188 87.703125 -22.332031 94.671875 -28.71875 C 88.523438 -27.769531 82.46875 -26.113281 76.5 -23.75 C 70.53125 -21.394531 65.003906 -19.09375 59.921875 -16.84375 C 53.660156 -14.125 48.34375 -10.875 43.96875 -7.09375 C 39.59375 -3.3125 36.222656 0.320312 33.859375 3.8125 C 31.492188 7.300781 30.195312 10.050781 29.96875 12.0625 C 29.84375 12.644531 29.898438 13.054688 30.140625 13.296875 Z M 30.140625 13.296875 "/></g></g><g style="fill:#202d45;fill-opacity:1;"><g transform="translate(432.156174, 187.526684)"><path style="stroke:none" d=""/></g></g><g clip-rule="nonzero" clip-path="url(#f374c734c7)"><path style=" stroke:none;fill-rule:nonzero;fill:#d088a6;fill-opacity:1;" d="M 625.058594 95.226562 C 616.285156 70.417969 588.65625 72.253906 578.625 91.082031 C 568.609375 72.230469 540.984375 70.351562 532.164062 95.140625 C 520.894531 126.867188 574.246094 159.46875 578.539062 162.027344 C 582.851562 159.46875 636.269531 126.972656 625.058594 95.226562 Z M 625.058594 95.226562 "/></g></g></svg>