<svg xmlns="http://www.w3.org/2000/svg" xmlns:xlink="http://www.w3.org/1999/xlink" width="500" zoomAndPan="magnify" viewBox="0 0 375 374.999991" height="500" preserveAspectRatio="xMidYMid meet" version="1.0"><defs><clipPath id="f5bc7fa602"><path d="M 74 82 L 344.496094 82 L 344.496094 286 L 74 286 Z M 74 82 " clip-rule="nonzero"/></clipPath><clipPath id="72bcf9329c"><path d="M 17.496094 73.441406 L 275 73.441406 L 275 248 L 17.496094 248 Z M 17.496094 73.441406 " clip-rule="nonzero"/></clipPath></defs><path fill="#ffe9e9" d="M 302.992188 278.058594 C 314.917969 245.804688 326.929688 208.679688 336.421875 175.671875 C 342.46875 154.675781 338.941406 145.6875 316.179688 138.378906 C 254.613281 118.8125 191.703125 103.859375 128.878906 88.996094 C 112.332031 85.046875 107.292969 88.996094 103.09375 101.929688 C 98.054688 117.636719 72.859375 206.832031 80.417969 221.363281 C 87.640625 235.054688 297.449219 292.921875 302.992188 278.058594 Z M 302.992188 278.058594 " fill-opacity="1" fill-rule="nonzero"/><g clip-path="url(#f5bc7fa602)"><path fill="#000000" d="M 307.863281 279.402344 C 315.253906 259.496094 322.058594 239.335938 328.523438 219.09375 C 331.800781 208.933594 334.910156 198.769531 337.933594 188.605469 C 340.367188 180.375 343.308594 172.0625 344.0625 163.410156 C 344.566406 157.277344 343.308594 151.148438 339.527344 146.277344 C 335.160156 140.566406 328.441406 137.457031 321.890625 135.019531 C 317.019531 133.257812 312.0625 131.828125 307.105469 130.234375 C 301.730469 128.554688 296.441406 126.957031 291.066406 125.363281 C 280.230469 122.171875 269.394531 119.0625 258.5625 116.125 C 236.808594 110.160156 214.96875 104.617188 193.132812 99.242188 C 182.214844 96.554688 171.210938 93.867188 160.292969 91.261719 C 154.832031 90.003906 149.457031 88.660156 143.996094 87.398438 C 138.707031 86.136719 133.414062 84.710938 128.039062 83.617188 C 121.070312 82.191406 113.003906 81.433594 107.042969 86.054688 C 102.085938 89.835938 99.902344 95.882812 98.054688 101.59375 C 95.453125 109.738281 93.183594 118.054688 91 126.285156 C 87.640625 138.632812 84.53125 150.980469 81.761719 163.410156 C 78.988281 175.671875 76.46875 188.019531 75.042969 200.535156 C 74.539062 204.984375 74.117188 209.4375 74.203125 213.886719 C 74.285156 217.25 74.621094 221.027344 76.386719 224.050781 C 77.476562 225.898438 79.324219 227.242188 81.089844 228.335938 C 82.9375 229.59375 85.035156 230.601562 87.050781 231.527344 C 93.6875 234.71875 100.660156 237.320312 107.628906 239.839844 C 116.617188 243.117188 125.773438 246.140625 134.84375 248.996094 C 145.511719 252.355469 156.261719 255.546875 167.011719 258.570312 C 178.351562 261.761719 189.6875 264.871094 201.109375 267.808594 C 212.113281 270.667969 223.199219 273.355469 234.371094 275.875 C 244.113281 278.058594 253.941406 280.15625 263.851562 281.921875 C 271.832031 283.347656 279.8125 284.609375 287.875 285.195312 C 290.5625 285.363281 293.164062 285.53125 295.851562 285.449219 C 298.035156 285.363281 300.386719 285.195312 302.488281 284.523438 C 304.839844 283.601562 306.769531 282.089844 307.863281 279.402344 C 308.789062 276.964844 306.855469 273.773438 304.335938 273.183594 C 301.480469 272.511719 299.128906 274.027344 298.121094 276.714844 C 298.035156 276.882812 298.875 275.117188 298.457031 275.789062 C 298.035156 276.460938 299.378906 274.613281 299.046875 275.117188 C 298.960938 275.203125 298.875 275.285156 298.792969 275.371094 C 298.539062 275.621094 300.21875 274.445312 299.464844 274.78125 C 299.378906 274.863281 299.210938 274.949219 299.128906 274.949219 C 298.375 275.453125 299.800781 274.699219 299.882812 274.699219 C 299.546875 274.78125 299.210938 274.949219 298.960938 275.035156 C 298.625 275.117188 298.203125 275.203125 297.867188 275.285156 C 297.699219 275.285156 297.449219 275.371094 297.28125 275.371094 C 299.464844 274.949219 298.375 275.203125 297.867188 275.285156 C 296.777344 275.371094 295.769531 275.453125 294.675781 275.453125 C 291.90625 275.453125 289.21875 275.285156 286.445312 275.035156 C 284.765625 274.863281 283.171875 274.699219 281.492188 274.527344 C 280.566406 274.445312 279.640625 274.277344 278.71875 274.191406 C 278.632812 274.191406 280.230469 274.445312 279.558594 274.277344 C 279.476562 274.277344 279.304688 274.277344 279.222656 274.191406 C 278.96875 274.191406 278.804688 274.109375 278.550781 274.109375 C 278.046875 274.027344 277.542969 273.941406 277.121094 273.941406 C 268.304688 272.683594 259.484375 271.003906 250.664062 269.152344 C 240.167969 266.96875 229.667969 264.535156 219.253906 262.015625 C 208.082031 259.328125 196.996094 256.472656 185.910156 253.449219 C 174.90625 250.425781 163.902344 247.316406 152.902344 244.039062 C 142.988281 241.101562 133.164062 237.992188 123.335938 234.71875 C 115.441406 232.113281 107.628906 229.34375 99.902344 226.234375 C 99.0625 225.898438 98.308594 225.5625 97.46875 225.226562 C 97.132812 225.058594 96.710938 224.890625 96.375 224.808594 C 96.710938 224.976562 97.71875 225.394531 96.878906 225.058594 C 96.710938 224.976562 96.460938 224.890625 96.292969 224.808594 C 94.949219 224.21875 93.605469 223.628906 92.34375 223.042969 C 90.328125 222.121094 88.226562 221.027344 86.296875 219.851562 C 85.960938 219.597656 85.625 219.429688 85.203125 219.179688 C 85.035156 219.09375 84.867188 218.929688 84.785156 218.84375 C 84.617188 218.757812 86.042969 219.9375 85.371094 219.265625 C 85.121094 219.09375 84.953125 218.84375 84.699219 218.675781 C 84.617188 218.589844 84.53125 218.507812 84.449219 218.421875 C 84.027344 218.003906 85.371094 219.851562 84.953125 219.09375 C 84.867188 219.011719 84.867188 218.84375 84.785156 218.757812 C 84.195312 217.835938 85.289062 220.1875 84.953125 219.09375 C 84.785156 218.507812 84.617188 217.921875 84.449219 217.332031 C 84.363281 216.996094 84.363281 216.742188 84.28125 216.40625 C 84.113281 215.484375 84.449219 217.75 84.363281 217.078125 C 84.363281 216.828125 84.28125 216.578125 84.28125 216.40625 C 84.195312 215.570312 84.113281 214.726562 84.113281 213.886719 C 84.027344 209.519531 84.363281 205.070312 84.953125 200.703125 C 85.035156 200.113281 85.121094 199.441406 85.203125 198.851562 C 85.289062 198.433594 85.457031 197.257812 85.203125 199.023438 C 85.289062 198.6875 85.289062 198.265625 85.371094 197.929688 C 85.539062 196.585938 85.792969 195.160156 85.960938 193.816406 C 86.378906 190.957031 86.882812 188.019531 87.472656 185.164062 C 89.824219 172.480469 92.765625 159.964844 95.871094 147.453125 C 98.558594 136.617188 101.5 125.867188 104.523438 115.199219 C 105.53125 111.839844 106.453125 108.394531 107.546875 105.035156 C 107.714844 104.53125 107.882812 103.945312 108.050781 103.441406 C 108.300781 102.601562 108.554688 101.84375 108.890625 101.003906 C 109.058594 100.667969 109.140625 100.25 109.308594 99.914062 C 109.394531 99.746094 109.476562 99.578125 109.5625 99.410156 C 109.140625 100.753906 109.308594 99.914062 109.476562 99.578125 C 110.066406 98.316406 110.738281 97.058594 111.492188 95.882812 C 111.578125 95.714844 112.332031 94.789062 111.746094 95.546875 C 111.15625 96.300781 111.828125 95.460938 111.996094 95.292969 C 112.417969 94.875 112.835938 94.453125 113.339844 94.035156 C 113.84375 93.53125 112.835938 94.453125 112.835938 94.453125 C 112.921875 94.453125 113.089844 94.285156 113.171875 94.203125 C 113.425781 94.035156 113.675781 93.867188 113.929688 93.78125 C 114.179688 93.613281 114.433594 93.53125 114.683594 93.363281 C 115.273438 93.027344 113.339844 93.867188 114.601562 93.445312 C 115.1875 93.277344 115.777344 93.109375 116.367188 92.941406 C 116.53125 92.859375 117.792969 92.691406 116.785156 92.859375 C 115.777344 93.027344 117.121094 92.859375 117.375 92.859375 C 119.054688 92.773438 120.648438 92.859375 122.328125 93.027344 C 122.496094 93.027344 122.832031 93.109375 123 93.109375 C 122.917969 93.109375 121.742188 92.941406 122.664062 93.109375 C 123.167969 93.195312 123.589844 93.277344 124.09375 93.363281 C 125.183594 93.53125 126.191406 93.78125 127.285156 94.035156 C 137.949219 96.46875 148.617188 99.074219 159.285156 101.675781 C 180.785156 106.800781 202.289062 112.089844 223.707031 117.550781 C 245.207031 123.09375 266.625 128.890625 287.875 135.1875 C 298.035156 138.210938 308.367188 141.070312 318.363281 144.679688 C 319.285156 145.015625 320.125 145.351562 321.050781 145.6875 C 321.300781 145.773438 321.46875 145.855469 321.636719 145.941406 C 322.5625 146.277344 321.386719 145.773438 321.386719 145.855469 C 321.46875 145.773438 322.730469 146.445312 322.8125 146.527344 C 324.242188 147.199219 325.667969 147.957031 327.097656 148.796875 C 327.683594 149.132812 328.273438 149.550781 328.859375 149.972656 C 329.03125 150.054688 329.113281 150.140625 329.28125 150.308594 C 329.785156 150.644531 328.359375 149.550781 328.859375 149.972656 C 329.113281 150.222656 329.449219 150.390625 329.703125 150.644531 C 330.203125 151.0625 330.625 151.484375 331.046875 151.902344 C 331.210938 152.15625 331.464844 152.324219 331.632812 152.574219 C 331.71875 152.660156 331.800781 152.828125 331.882812 152.910156 C 332.390625 153.5 331.210938 151.988281 331.546875 152.492188 C 332.21875 153.5 332.808594 154.507812 333.3125 155.515625 C 333.566406 156.101562 332.808594 154.253906 333.230469 155.347656 C 333.3125 155.597656 333.398438 155.851562 333.480469 156.1875 C 333.648438 156.859375 333.816406 157.445312 333.984375 158.117188 C 334.070312 158.371094 334.070312 158.707031 334.152344 159.042969 C 334.152344 159.042969 333.984375 157.613281 334.070312 158.371094 C 334.070312 158.539062 334.070312 158.707031 334.152344 158.875 C 334.238281 159.546875 334.238281 160.132812 334.238281 160.804688 C 334.238281 162.316406 334.152344 163.746094 333.984375 165.257812 C 333.902344 166.097656 334.152344 163.996094 333.984375 165.339844 C 333.902344 165.761719 333.902344 166.097656 333.816406 166.515625 C 333.648438 167.359375 333.480469 168.199219 333.3125 169.121094 C 332.894531 170.96875 332.472656 172.734375 331.96875 174.496094 C 330.625 179.285156 329.195312 184.070312 327.769531 188.859375 C 321.722656 209.101562 315.253906 229.257812 308.367188 249.25 C 305.175781 258.570312 301.816406 267.976562 298.457031 277.21875 C 297.53125 279.652344 299.464844 282.84375 301.984375 283.433594 C 304.503906 283.515625 306.855469 282.003906 307.863281 279.402344 Z M 307.863281 279.402344 " fill-opacity="1" fill-rule="nonzero"/></g><path fill="#000000" d="M 331.128906 149.214844 C 319.035156 157.53125 306.6875 165.59375 294.171875 173.152344 C 281.65625 180.796875 268.890625 188.019531 255.871094 194.90625 C 248.566406 198.769531 241.175781 202.550781 233.699219 206.246094 C 231.347656 207.421875 230.507812 210.949219 231.851562 213.132812 C 233.449219 215.570312 236.21875 216.15625 238.738281 214.980469 C 251.925781 208.511719 264.945312 201.710938 277.710938 194.488281 C 290.476562 187.261719 303.074219 179.703125 315.421875 171.726562 C 322.394531 167.273438 329.28125 162.652344 336.167969 157.949219 C 338.351562 156.4375 339.527344 153.5 338.015625 151.0625 C 336.671875 148.878906 333.480469 147.621094 331.128906 149.214844 Z M 331.128906 149.214844 " fill-opacity="1" fill-rule="nonzero"/><path fill="#ffe9e9" d="M 268.722656 210.613281 C 269.394531 176.261719 268.890625 141.910156 267.296875 107.554688 C 266.289062 85.71875 260.074219 78.328125 236.136719 78.832031 C 171.546875 80.089844 107.210938 86.222656 42.957031 92.355469 C 25.992188 93.949219 22.464844 99.324219 22.714844 112.929688 C 23.304688 149.550781 26.496094 186.171875 32.375 222.371094 C 33.296875 228.167969 34.222656 234.632812 38.757812 238.414062 C 52.53125 250.003906 210.183594 236.398438 247.390625 233.121094 C 264.691406 231.527344 268.386719 225.984375 268.722656 210.613281 Z M 268.722656 210.613281 " fill-opacity="1" fill-rule="nonzero"/><g clip-path="url(#72bcf9329c)"><path fill="#000000" d="M 273.761719 210.613281 C 274.097656 191.882812 274.097656 173.152344 273.847656 154.421875 C 273.679688 145.101562 273.425781 135.777344 273.089844 126.453125 C 272.839844 118.222656 272.753906 109.90625 271.832031 101.675781 C 271.242188 96.386719 270.234375 91.011719 267.632812 86.222656 C 265.449219 82.273438 261.921875 78.914062 257.722656 77.066406 C 252.347656 74.714844 246.550781 73.960938 240.753906 73.707031 C 232.105469 73.457031 223.453125 73.960938 214.800781 74.296875 C 196.15625 74.96875 177.511719 75.976562 158.863281 77.234375 C 140.21875 78.496094 121.65625 80.007812 103.011719 81.601562 C 84.449219 83.199219 65.96875 84.960938 47.492188 86.726562 C 40.605469 87.398438 33.382812 87.734375 27.167969 91.011719 C 22.632812 93.445312 19.609375 97.730469 18.433594 102.683594 C 17.84375 105.457031 17.59375 108.226562 17.59375 111.082031 C 17.59375 115.367188 17.761719 119.652344 17.84375 123.851562 C 18.097656 133.089844 18.601562 142.414062 19.1875 151.652344 C 20.449219 170.382812 22.378906 189.027344 24.984375 207.671875 C 25.65625 212.207031 26.328125 216.742188 27 221.363281 C 27.585938 225.058594 28.007812 228.753906 29.183594 232.28125 C 30.609375 236.734375 33.296875 241.519531 37.664062 243.535156 C 42.539062 245.71875 47.914062 246.308594 53.203125 246.8125 C 60.511719 247.484375 67.820312 247.734375 75.210938 247.734375 C 84.617188 247.820312 94.023438 247.652344 103.347656 247.398438 C 113.929688 247.0625 124.511719 246.644531 135.09375 246.054688 C 145.929688 245.46875 156.765625 244.796875 167.601562 244.125 C 177.929688 243.453125 188.175781 242.699219 198.507812 241.941406 C 207.328125 241.269531 216.230469 240.597656 225.050781 239.839844 C 231.515625 239.335938 237.984375 238.75 244.449219 238.160156 C 253.941406 237.320312 265.785156 236.230469 270.570312 226.488281 C 273.175781 221.699219 273.597656 216.070312 273.761719 210.613281 C 273.847656 208.007812 271.410156 205.488281 268.722656 205.574219 C 265.953125 205.65625 263.769531 207.757812 263.683594 210.613281 C 263.683594 212.039062 263.601562 213.46875 263.515625 214.894531 C 263.433594 215.570312 263.433594 216.15625 263.347656 216.828125 C 263.265625 217.75 263.515625 215.652344 263.347656 216.492188 C 263.265625 216.828125 263.265625 217.164062 263.179688 217.5 C 263.011719 218.59375 262.761719 219.683594 262.339844 220.691406 C 262.257812 220.945312 262.171875 221.195312 262.089844 221.449219 C 261.753906 222.371094 262.59375 220.441406 262.257812 221.113281 C 262.003906 221.53125 261.835938 221.949219 261.585938 222.371094 C 261.332031 222.792969 260.996094 223.128906 260.828125 223.546875 C 260.996094 223.292969 261.667969 222.539062 261.164062 223.128906 C 260.996094 223.292969 260.828125 223.546875 260.660156 223.714844 C 260.324219 224.050781 259.988281 224.386719 259.652344 224.640625 C 259.066406 225.144531 260.660156 223.964844 259.988281 224.386719 C 259.738281 224.554688 259.570312 224.722656 259.316406 224.890625 C 258.898438 225.144531 258.476562 225.394531 257.972656 225.648438 C 257.804688 225.730469 257.554688 225.816406 257.386719 225.984375 C 256.292969 226.488281 258.140625 225.730469 257.46875 225.898438 C 256.292969 226.320312 255.199219 226.65625 254.027344 226.992188 C 253.355469 227.160156 252.683594 227.328125 252.011719 227.410156 C 251.421875 227.496094 250.414062 227.496094 249.828125 227.746094 C 249.910156 227.664062 251.085938 227.578125 250.164062 227.664062 C 249.992188 227.664062 249.828125 227.664062 249.65625 227.746094 C 249.238281 227.832031 248.820312 227.832031 248.484375 227.914062 C 247.976562 228 247.476562 228 246.96875 228.082031 C 245.792969 228.167969 244.535156 228.335938 243.359375 228.417969 C 240.417969 228.671875 237.394531 228.921875 234.457031 229.175781 C 226.644531 229.847656 218.917969 230.433594 211.105469 231.105469 C 201.53125 231.863281 192.039062 232.617188 182.464844 233.289062 C 171.964844 234.046875 161.46875 234.71875 150.96875 235.390625 C 140.386719 236.0625 129.804688 236.566406 119.136719 237.070312 C 109.226562 237.488281 99.316406 237.824219 89.320312 237.992188 C 81.003906 238.078125 72.605469 238.078125 64.289062 237.742188 C 60.929688 237.574219 57.570312 237.40625 54.296875 237.152344 C 52.867188 236.984375 51.441406 236.902344 50.097656 236.734375 C 49.003906 236.566406 51.609375 236.984375 50.433594 236.734375 C 50.097656 236.648438 49.761719 236.648438 49.425781 236.566406 C 48.835938 236.480469 48.25 236.398438 47.660156 236.230469 C 45.8125 235.894531 43.964844 235.390625 42.203125 234.800781 C 41.78125 234.632812 43.714844 235.472656 42.875 235.054688 C 42.707031 234.96875 42.539062 234.886719 42.371094 234.800781 C 42.117188 234.632812 41.867188 234.464844 41.613281 234.296875 C 41.027344 233.960938 43.042969 235.558594 42.035156 234.632812 C 41.699219 234.382812 41.445312 234.046875 41.109375 233.710938 L 40.773438 233.289062 C 40.941406 233.289062 41.363281 234.214844 40.773438 233.289062 C 40.355469 232.617188 39.933594 231.945312 39.597656 231.273438 C 39.511719 231.105469 39.34375 230.6875 39.261719 230.601562 C 39.261719 230.601562 39.597656 231.527344 39.429688 230.9375 C 39.261719 230.433594 39.09375 230.015625 38.925781 229.511719 C 37.832031 226.066406 37.328125 222.371094 36.824219 218.757812 C 36.152344 214.308594 35.480469 209.855469 34.808594 205.320312 C 34.640625 204.3125 34.558594 203.222656 34.390625 202.214844 C 34.390625 202.046875 34.222656 201.207031 34.390625 202.128906 C 34.390625 201.878906 34.304688 201.625 34.304688 201.375 C 34.222656 200.703125 34.136719 200.113281 34.054688 199.441406 C 33.800781 197.175781 33.464844 194.992188 33.214844 192.722656 C 32.710938 188.269531 32.207031 183.734375 31.703125 179.285156 C 29.855469 161.308594 28.59375 143.253906 28.007812 125.195312 C 27.839844 120.828125 27.753906 116.460938 27.671875 112.089844 C 27.671875 110.746094 27.671875 109.488281 27.753906 108.144531 C 27.753906 107.554688 27.839844 107.050781 27.921875 106.464844 C 27.753906 108.3125 27.921875 106.296875 28.089844 105.792969 C 28.175781 105.289062 28.34375 104.867188 28.425781 104.363281 C 28.511719 104.113281 28.59375 103.859375 28.679688 103.609375 C 28.761719 103.355469 29.183594 102.433594 28.761719 103.355469 C 28.34375 104.28125 28.929688 102.9375 29.097656 102.683594 C 29.351562 102.265625 29.601562 101.84375 29.9375 101.425781 C 30.023438 101.257812 29.015625 102.433594 29.6875 101.761719 C 29.855469 101.59375 29.9375 101.425781 30.105469 101.339844 C 30.273438 101.171875 30.441406 101.003906 30.609375 100.835938 C 30.777344 100.667969 31.535156 100.082031 30.777344 100.667969 C 29.9375 101.257812 31.199219 100.417969 31.449219 100.25 C 31.953125 99.914062 32.457031 99.660156 32.960938 99.410156 C 33.046875 99.324219 33.214844 99.324219 33.296875 99.242188 C 33.96875 98.90625 32.792969 99.492188 32.792969 99.492188 C 33.046875 99.410156 33.296875 99.324219 33.464844 99.242188 C 34.054688 98.988281 34.726562 98.820312 35.398438 98.652344 C 36.742188 98.234375 38.167969 97.980469 39.511719 97.730469 C 39.933594 97.644531 40.269531 97.644531 40.691406 97.5625 C 41.613281 97.394531 39.765625 97.644531 40.773438 97.5625 C 41.78125 97.476562 42.707031 97.308594 43.714844 97.226562 C 45.980469 96.972656 48.25 96.804688 50.515625 96.554688 C 59.585938 95.714844 68.742188 94.789062 77.8125 93.949219 C 96.039062 92.269531 114.179688 90.675781 132.40625 89.246094 C 150.632812 87.820312 168.859375 86.558594 187.085938 85.550781 C 196.238281 85.046875 205.3125 84.625 214.464844 84.289062 C 223.035156 83.953125 231.683594 83.535156 240.25 83.703125 C 241.679688 83.703125 243.191406 83.785156 244.617188 83.953125 C 245.289062 84.039062 245.960938 84.121094 246.632812 84.121094 C 246.96875 84.121094 245.375 83.953125 246.382812 84.121094 C 246.71875 84.207031 247.054688 84.207031 247.476562 84.289062 C 248.648438 84.457031 249.742188 84.710938 250.917969 85.046875 C 251.421875 85.214844 251.925781 85.382812 252.429688 85.550781 C 252.683594 85.632812 252.933594 85.71875 253.183594 85.800781 C 253.855469 86.054688 252.011719 85.214844 252.847656 85.71875 C 253.773438 86.136719 254.613281 86.558594 255.453125 87.148438 C 255.621094 87.316406 255.871094 87.398438 256.042969 87.566406 C 256.882812 88.15625 255.535156 87.148438 255.707031 87.316406 C 256.042969 87.652344 256.378906 87.902344 256.714844 88.238281 C 257.050781 88.574219 257.386719 88.910156 257.636719 89.246094 C 257.804688 89.414062 257.972656 89.582031 258.058594 89.75 C 258.476562 90.253906 257.300781 88.660156 257.804688 89.414062 C 258.308594 90.171875 258.898438 91.011719 259.316406 91.851562 C 259.402344 92.101562 259.570312 92.269531 259.652344 92.523438 C 259.738281 92.691406 260.15625 93.613281 259.738281 92.691406 C 259.316406 91.765625 259.738281 92.691406 259.820312 92.941406 C 259.90625 93.195312 259.988281 93.445312 260.074219 93.699219 C 260.410156 94.789062 260.746094 95.796875 260.996094 96.890625 C 261.25 98.066406 261.5 99.324219 261.667969 100.5 C 261.667969 100.667969 261.753906 100.835938 261.753906 101.089844 C 261.835938 101.675781 261.667969 100.332031 261.667969 100.417969 C 261.667969 100.753906 261.753906 101.089844 261.753906 101.425781 C 261.835938 102.097656 261.921875 102.769531 261.921875 103.523438 C 262.675781 111.921875 262.761719 120.40625 263.011719 128.804688 C 263.601562 147.199219 263.9375 165.59375 263.851562 183.988281 C 263.851562 192.808594 263.769531 201.625 263.601562 210.527344 C 263.515625 213.132812 265.953125 215.652344 268.640625 215.570312 C 271.496094 215.484375 273.679688 213.382812 273.761719 210.613281 Z M 273.761719 210.613281 " fill-opacity="1" fill-rule="nonzero"/></g><path fill="#000000" d="M 253.269531 85.046875 C 251.085938 87.988281 248.902344 90.925781 246.71875 93.78125 C 246.128906 94.539062 245.625 95.210938 245.039062 95.964844 C 244.953125 96.132812 244.785156 96.300781 244.703125 96.46875 C 244.367188 96.890625 244.871094 96.21875 244.871094 96.21875 C 244.535156 96.636719 244.199219 97.058594 243.945312 97.476562 C 242.855469 98.90625 241.679688 100.332031 240.585938 101.761719 C 236.050781 107.554688 231.347656 113.269531 226.644531 118.894531 C 217.238281 130.066406 207.578125 140.984375 197.582031 151.652344 C 191.957031 157.699219 186.160156 163.578125 180.28125 169.457031 C 178.433594 171.304688 178.265625 174.75 180.28125 176.597656 C 182.296875 178.445312 185.40625 178.613281 187.421875 176.597656 C 197.835938 166.179688 208 155.515625 217.824219 144.511719 C 227.652344 133.507812 237.144531 122.253906 246.296875 110.746094 C 251.671875 103.945312 256.964844 97.140625 262.089844 90.171875 C 262.84375 89.164062 262.929688 87.398438 262.59375 86.304688 C 262.257812 85.128906 261.332031 83.871094 260.242188 83.28125 C 257.554688 81.855469 254.949219 82.777344 253.269531 85.046875 Z M 253.269531 85.046875 " fill-opacity="1" fill-rule="nonzero"/><path fill="#000000" d="M 22.882812 106.714844 C 34.304688 117.71875 46.316406 128.21875 58.746094 138.210938 C 71.429688 148.375 84.449219 157.949219 97.972656 166.855469 C 105.445312 171.808594 113.003906 176.511719 120.734375 181.132812 C 123 182.476562 126.359375 181.71875 127.621094 179.285156 C 128.878906 176.847656 128.207031 173.824219 125.773438 172.398438 C 112.164062 164.417969 98.980469 155.765625 86.128906 146.527344 C 82.9375 144.175781 79.660156 141.824219 76.554688 139.472656 C 75.796875 138.882812 75.042969 138.296875 74.285156 137.792969 C 73.867188 137.457031 73.445312 137.203125 73.109375 136.867188 C 72.941406 136.699219 72.691406 136.53125 72.523438 136.449219 C 72.019531 136.113281 72.355469 136.28125 72.605469 136.53125 C 71.011719 135.355469 69.414062 134.011719 67.820312 132.835938 C 61.601562 127.964844 55.554688 122.925781 49.59375 117.71875 C 42.875 111.921875 36.324219 105.875 29.9375 99.746094 C 28.007812 97.898438 24.648438 97.730469 22.800781 99.746094 C 21.121094 101.59375 20.867188 104.785156 22.882812 106.714844 Z M 22.882812 106.714844 " fill-opacity="1" fill-rule="nonzero"/><path fill="#ef8989" d="M 156.175781 208.007812 C 139.882812 205.488281 110.234375 189.445312 109.058594 166.183594 C 108.46875 155.011719 116.113281 143.253906 127.117188 141.574219 C 135.933594 140.230469 144.921875 145.605469 149.039062 153.5 C 153.238281 146.023438 160.796875 140.144531 169.445312 139.304688 C 178.015625 138.546875 186.582031 143.839844 189.855469 151.820312 C 194.8125 163.660156 190.613281 190.285156 156.175781 208.007812 Z M 156.175781 208.007812 " fill-opacity="1" fill-rule="nonzero"/><path fill="#000000" d="M 157.519531 203.136719 C 154.414062 202.632812 151.390625 201.792969 148.449219 200.785156 C 147.609375 200.535156 146.851562 200.199219 146.015625 199.863281 C 145.675781 199.695312 145.257812 199.527344 144.921875 199.441406 C 144.585938 199.273438 143.746094 198.855469 145.257812 199.609375 C 145.003906 199.527344 144.839844 199.441406 144.585938 199.359375 C 142.824219 198.601562 141.140625 197.761719 139.460938 196.839844 C 136.019531 194.992188 132.660156 192.890625 129.550781 190.539062 C 129.300781 190.371094 128.542969 189.699219 129.71875 190.707031 C 129.550781 190.621094 129.46875 190.457031 129.300781 190.371094 C 128.878906 190.035156 128.460938 189.699219 128.039062 189.363281 C 127.285156 188.773438 126.527344 188.101562 125.855469 187.429688 C 124.34375 186.085938 122.917969 184.660156 121.65625 183.0625 C 121.40625 182.726562 121.070312 182.390625 120.816406 182.054688 C 120.566406 181.71875 119.640625 180.460938 120.648438 181.886719 C 120.0625 181.046875 119.390625 180.207031 118.882812 179.367188 C 117.875 177.773438 116.953125 176.175781 116.195312 174.496094 C 116.027344 174.160156 115.777344 173.238281 116.28125 174.75 C 116.195312 174.582031 116.113281 174.328125 116.027344 174.160156 C 115.859375 173.742188 115.691406 173.320312 115.523438 172.902344 C 115.1875 172.0625 114.9375 171.136719 114.769531 170.214844 C 114.515625 169.289062 114.433594 168.367188 114.265625 167.441406 C 114.601562 169.207031 114.347656 167.695312 114.265625 167.273438 C 114.179688 166.601562 114.179688 166.015625 114.179688 165.339844 C 114.179688 164.332031 114.265625 163.410156 114.347656 162.484375 C 114.433594 161.394531 114.097656 163.746094 114.347656 162.652344 C 114.433594 162.402344 114.433594 162.066406 114.515625 161.8125 C 114.601562 161.226562 114.769531 160.636719 114.9375 160.132812 C 115.1875 159.125 115.523438 158.117188 115.945312 157.109375 C 116.113281 156.773438 116.367188 156.523438 115.777344 157.53125 C 115.945312 157.277344 116.027344 157.027344 116.113281 156.773438 C 116.367188 156.269531 116.617188 155.765625 116.953125 155.261719 C 117.457031 154.339844 118.046875 153.5 118.71875 152.574219 C 119.304688 151.734375 118.128906 153.332031 118.546875 152.828125 C 118.71875 152.660156 118.882812 152.492188 118.96875 152.238281 C 119.390625 151.734375 119.808594 151.316406 120.226562 150.894531 C 120.566406 150.558594 120.984375 150.140625 121.40625 149.804688 C 121.574219 149.636719 121.742188 149.46875 121.910156 149.382812 C 122.414062 148.964844 120.816406 150.140625 121.65625 149.550781 C 122.582031 148.878906 123.503906 148.292969 124.511719 147.789062 C 124.679688 147.703125 124.847656 147.621094 125.015625 147.535156 C 125.773438 147.117188 123.839844 147.957031 125.097656 147.535156 C 125.605469 147.367188 126.191406 147.199219 126.695312 147.03125 C 127.285156 146.863281 127.789062 146.78125 128.375 146.695312 C 129.382812 146.527344 127.117188 146.78125 128.207031 146.695312 C 128.628906 146.695312 129.046875 146.613281 129.46875 146.613281 C 130.054688 146.613281 130.726562 146.613281 131.316406 146.613281 C 131.566406 146.613281 131.988281 146.695312 132.238281 146.695312 C 131.988281 146.695312 131.734375 146.613281 131.484375 146.613281 C 131.652344 146.613281 131.902344 146.695312 132.070312 146.695312 C 133.414062 146.949219 134.675781 147.367188 135.933594 147.789062 C 136.4375 147.957031 136.101562 148.125 135.597656 147.621094 C 135.851562 147.871094 136.4375 147.957031 136.691406 148.125 C 137.277344 148.375 137.78125 148.710938 138.285156 149.046875 C 138.789062 149.382812 139.292969 149.71875 139.796875 150.054688 C 140.722656 150.726562 138.957031 149.300781 139.796875 150.054688 C 140.132812 150.308594 140.46875 150.558594 140.722656 150.894531 C 141.644531 151.734375 142.488281 152.660156 143.324219 153.582031 C 144.082031 154.421875 142.652344 152.660156 143.324219 153.582031 C 143.496094 153.835938 143.660156 154.085938 143.832031 154.339844 C 144.25 154.925781 144.585938 155.597656 144.921875 156.1875 C 146.6875 159.546875 151.808594 159.378906 153.65625 156.1875 C 154.246094 155.179688 154.832031 154.171875 155.503906 153.246094 C 155.589844 153.164062 155.589844 153.078125 155.671875 152.996094 C 156.007812 152.574219 155.925781 152.660156 155.421875 153.246094 C 155.589844 153.246094 155.925781 152.660156 156.007812 152.492188 C 156.429688 151.988281 156.847656 151.566406 157.269531 151.0625 C 158.109375 150.222656 158.949219 149.46875 159.789062 148.710938 C 159.871094 148.628906 159.957031 148.542969 160.039062 148.542969 C 160.460938 148.207031 160.375 148.292969 159.789062 148.710938 C 159.871094 148.710938 160.292969 148.375 160.292969 148.375 C 160.878906 147.957031 161.46875 147.535156 162.140625 147.199219 C 163.0625 146.613281 164.070312 146.109375 165.078125 145.6875 C 165.75 145.351562 163.902344 146.109375 164.910156 145.773438 C 165.246094 145.6875 165.5 145.519531 165.75 145.4375 C 166.339844 145.269531 166.929688 145.015625 167.515625 144.933594 C 168.101562 144.765625 168.773438 144.679688 169.363281 144.511719 C 170.203125 144.34375 169.027344 144.597656 168.945312 144.597656 C 169.195312 144.679688 169.613281 144.511719 169.867188 144.511719 C 171.125 144.429688 172.300781 144.679688 173.480469 144.597656 C 172.136719 144.679688 172.808594 144.511719 173.308594 144.597656 C 173.480469 144.597656 173.730469 144.679688 173.898438 144.679688 C 174.488281 144.847656 175.074219 144.933594 175.660156 145.183594 C 176.082031 145.351562 176.671875 145.6875 177.089844 145.6875 C 176.839844 145.605469 176.671875 145.519531 176.417969 145.4375 C 176.585938 145.519531 176.753906 145.605469 177.007812 145.6875 C 177.34375 145.855469 177.679688 146.023438 177.929688 146.191406 C 178.855469 146.695312 179.695312 147.367188 180.617188 147.871094 C 179.441406 147.199219 180.28125 147.621094 180.535156 147.871094 C 180.785156 148.039062 181.039062 148.292969 181.207031 148.460938 C 181.625 148.878906 182.128906 149.300781 182.464844 149.71875 C 182.632812 149.972656 182.886719 150.140625 183.054688 150.390625 C 183.136719 150.476562 183.726562 151.316406 183.222656 150.558594 C 182.71875 149.886719 183.304688 150.644531 183.390625 150.8125 C 183.558594 151.0625 183.726562 151.316406 183.894531 151.566406 C 184.144531 151.988281 184.398438 152.40625 184.648438 152.910156 C 184.816406 153.164062 184.902344 153.414062 185.070312 153.75 C 185.152344 153.917969 185.238281 154.085938 185.320312 154.339844 C 184.984375 153.5 184.902344 153.246094 185.070312 153.667969 C 185.40625 154.589844 185.742188 155.515625 185.910156 156.4375 C 185.992188 156.941406 186.160156 157.445312 186.246094 157.949219 C 186.328125 158.203125 186.328125 158.539062 186.414062 158.789062 C 186.414062 158.957031 186.246094 157.195312 186.328125 157.867188 C 186.328125 158.035156 186.414062 158.285156 186.414062 158.453125 C 186.496094 159.628906 186.582031 160.890625 186.582031 162.066406 C 186.582031 163.410156 186.414062 164.671875 186.328125 165.929688 C 186.496094 163.914062 186.414062 165.339844 186.328125 165.847656 C 186.246094 166.183594 186.246094 166.433594 186.160156 166.769531 C 185.992188 167.527344 185.824219 168.28125 185.65625 169.039062 C 185.320312 170.464844 184.902344 171.894531 184.398438 173.238281 C 184.230469 173.65625 184.144531 173.992188 183.976562 174.414062 C 183.808594 174.832031 183.222656 176.09375 183.976562 174.414062 C 183.640625 175.253906 183.222656 176.007812 182.886719 176.765625 C 182.128906 178.359375 181.207031 179.871094 180.28125 181.382812 C 179.863281 182.054688 179.359375 182.726562 178.9375 183.398438 C 178.6875 183.820312 178.351562 184.238281 178.015625 184.574219 C 177.847656 184.828125 177.175781 185.582031 178.183594 184.324219 C 178.015625 184.492188 177.847656 184.742188 177.679688 184.910156 C 174.652344 188.691406 171.210938 192.050781 167.515625 194.992188 C 167.265625 195.160156 166.929688 195.328125 166.757812 195.578125 C 166.929688 195.410156 167.09375 195.328125 167.265625 195.160156 C 167.09375 195.328125 166.929688 195.410156 166.757812 195.578125 C 166.171875 196 165.667969 196.417969 165.078125 196.839844 C 163.988281 197.679688 162.8125 198.433594 161.636719 199.191406 C 159.03125 200.871094 156.34375 202.382812 153.65625 203.808594 C 151.304688 204.984375 150.464844 208.511719 151.808594 210.695312 C 153.320312 213.046875 156.175781 213.804688 158.695312 212.542969 C 174.90625 204.230469 189.941406 190.875 194.980469 172.816406 C 196.660156 166.855469 197.078125 160.46875 195.820312 154.339844 C 193.886719 145.101562 186.246094 137.457031 177.089844 135.1875 C 164.070312 131.914062 150.96875 139.976562 144.667969 151.148438 C 147.609375 151.148438 150.464844 151.148438 153.40625 151.148438 C 147.945312 140.984375 136.101562 134.683594 124.679688 137.121094 C 114.433594 139.304688 106.707031 148.964844 104.691406 158.957031 C 100.828125 178.191406 115.441406 194.488281 130.8125 203.640625 C 134.925781 206.078125 139.292969 208.175781 143.832031 209.941406 C 147.359375 211.285156 151.054688 212.460938 154.832031 213.046875 C 156.175781 213.300781 157.4375 213.300781 158.695312 212.542969 C 159.703125 211.957031 160.710938 210.695312 161.046875 209.519531 C 161.550781 206.917969 160.292969 203.558594 157.519531 203.136719 Z M 157.519531 203.136719 " fill-opacity="1" fill-rule="nonzero"/></svg>